<svg width="55" height="23" viewBox="0 0 55 23" fill="none" xmlns="http://www.w3.org/2000/svg">
<rect x="0.5" y="0.5" width="54" height="22" rx="3.5" fill="#EFEFEF"/>
<rect x="0.5" y="0.5" width="54" height="22" rx="3.5" stroke="#767676"/>
<path d="M24.508 6.076H25.504V16.936H24.508V6.076ZM21.328 7.252H22.312C22.312 8.036 22.216 8.792 22.024 9.52C21.84 10.248 21.548 10.94 21.148 11.596C20.748 12.244 20.228 12.848 19.588 13.408C18.948 13.968 18.172 14.468 17.26 14.908L16.732 14.104C17.78 13.6 18.644 13.012 19.324 12.34C20.004 11.668 20.508 10.92 20.836 10.096C21.164 9.264 21.328 8.368 21.328 7.408V7.252ZM17.236 7.252H21.748V8.056H17.236V7.252ZM28.1071 13.492H28.9591C29.6231 13.492 30.2311 13.484 30.7831 13.468C31.3351 13.452 31.8671 13.42 32.3791 13.372C32.8991 13.324 33.4311 13.252 33.9751 13.156L34.0711 13.972C33.5191 14.068 32.9791 14.144 32.4511 14.2C31.9231 14.248 31.3751 14.28 30.8071 14.296C30.2471 14.312 29.6311 14.32 28.9591 14.32H28.1071V13.492ZM28.1071 7.06H33.1591V7.888H29.1031V13.78H28.1071V7.06ZM28.8511 10.108H32.9191V10.912H28.8511V10.108ZM34.9831 6.076H35.9791V16.936H34.9831V6.076ZM35.7511 10.432H37.7551V11.272H35.7511V10.432Z" fill="black"/>
</svg>
