<svg width="412" height="412" viewBox="0 0 412 412" fill="none" xmlns="http://www.w3.org/2000/svg">
<rect x="17.5" y="17.5" width="377" height="377" rx="68.3333" fill="white"/>
<rect x="17.5" y="17.5" width="377" height="377" rx="68.3333" stroke="#AB1A2D" stroke-width="35"/>
<path d="M124.731 213.296L175.819 116.888H202.461L137.091 236.917V313H112.371V238.016L47 116.888H73.9173L124.731 213.296ZM281.128 116.888C306.763 116.888 325.44 121.924 337.16 131.995C348.879 142.066 354.738 156.257 354.738 174.568C354.738 182.625 353.365 190.407 350.618 197.915C348.055 205.239 343.752 211.831 337.709 217.691C331.666 223.55 323.609 228.22 313.538 231.699C303.467 234.995 291.107 236.643 276.458 236.643H253.936V313H229.216V116.888H281.128ZM278.93 138.037H253.936V215.493H273.712C286.163 215.493 296.509 214.212 304.749 211.648C312.989 208.901 319.123 204.598 323.152 198.739C327.18 192.879 329.194 185.188 329.194 175.667C329.194 163.032 325.166 153.602 317.109 147.376C309.052 141.15 296.326 138.037 278.93 138.037Z" fill="black"/>
</svg>
