<svg width="301" height="301" viewBox="0 0 301 301" fill="none" xmlns="http://www.w3.org/2000/svg">
<path d="M152.169 14.2275L151.191 14.1772L154.415 6.62402L155.377 6.67364L157.807 14.5182L156.83 14.4679L154.864 7.86836L154.803 7.86526L152.169 14.2275ZM152.685 11.2388L156.624 11.4419L156.582 12.2689L152.642 12.0658L152.685 11.2388Z" fill="#8F818C"/>
<path d="M167.833 15.5077C167.356 15.4365 166.953 15.2532 166.624 14.9579C166.296 14.6601 166.062 14.2749 165.922 13.8023C165.782 13.3273 165.758 12.7869 165.848 12.1814C165.938 11.5807 166.119 11.075 166.391 10.664C166.663 10.253 167.001 9.95463 167.404 9.76882C167.808 9.58301 168.25 9.52611 168.731 9.59812C169.104 9.6538 169.389 9.75983 169.586 9.91621C169.786 10.0705 169.932 10.2343 170.022 10.4078C170.116 10.5791 170.188 10.7192 170.237 10.8281L170.312 10.8393L170.733 8.02483L171.611 8.15623L170.471 15.7805L169.622 15.6536L169.754 14.775L169.65 14.7594C169.569 14.854 169.458 14.9718 169.315 15.1128C169.173 15.2514 168.982 15.3662 168.742 15.4572C168.503 15.5458 168.2 15.5626 167.833 15.5077ZM168.07 14.7363C168.422 14.789 168.734 14.7417 169.004 14.5944C169.275 14.4447 169.499 14.2154 169.674 13.9068C169.85 13.5956 169.97 13.2241 170.035 12.7923C170.099 12.3654 170.093 11.9826 170.016 11.6439C169.941 11.3027 169.794 11.0245 169.578 10.8094C169.362 10.5919 169.075 10.4564 168.718 10.4029C168.345 10.3473 168.021 10.3964 167.744 10.5504C167.47 10.7023 167.247 10.9315 167.074 11.2381C166.904 11.5425 166.789 11.8958 166.729 12.2979C166.668 12.7049 166.675 13.084 166.749 13.4351C166.827 13.7841 166.973 14.075 167.19 14.3078C167.409 14.5385 167.702 14.6814 168.07 14.7363Z" fill="#8F818C"/>
<path d="M180.192 17.6723C179.685 17.5487 179.27 17.3195 178.946 16.9848C178.624 16.6506 178.409 16.2404 178.301 15.7541C178.194 15.2684 178.212 14.7355 178.353 14.1552C178.496 13.5701 178.727 13.0852 179.045 12.7005C179.366 12.3164 179.746 12.0501 180.185 11.9015C180.627 11.7535 181.101 11.7413 181.609 11.865C182.116 11.9886 182.53 12.2175 182.851 12.5516C183.175 12.8864 183.39 13.2978 183.496 13.7859C183.604 14.2746 183.587 14.8116 183.444 15.3967C183.302 15.9769 183.072 16.4579 182.751 16.8395C182.433 17.2218 182.053 17.4869 181.612 17.6349C181.173 17.7835 180.699 17.796 180.192 17.6723ZM180.381 16.897C180.767 16.991 181.108 16.9695 181.405 16.8327C181.701 16.6959 181.949 16.4811 182.147 16.1884C182.345 15.8957 182.489 15.5617 182.581 15.1862C182.672 14.8108 182.698 14.4463 182.658 14.0929C182.617 13.7396 182.497 13.4326 182.297 13.172C182.097 12.9114 181.805 12.7342 181.419 12.6402C181.034 12.5463 180.693 12.569 180.396 12.7082C180.098 12.8475 179.85 13.0647 179.652 13.3598C179.453 13.655 179.308 13.9902 179.216 14.3657C179.125 14.7412 179.1 15.1044 179.141 15.4553C179.182 15.8063 179.302 16.1108 179.503 16.3689C179.703 16.6271 179.996 16.8031 180.381 16.897Z" fill="#8F818C"/>
<path d="M189.914 20.0271L192.417 12.7357L193.258 13.0242L192.333 15.7157L192.405 15.7402C192.499 15.6664 192.626 15.5747 192.786 15.465C192.949 15.3538 193.153 15.2755 193.4 15.2301C193.649 15.1831 193.952 15.2208 194.308 15.343C194.769 15.5011 195.135 15.7556 195.407 16.1064C195.679 16.4573 195.841 16.8777 195.893 17.3678C195.945 17.858 195.873 18.3902 195.676 18.9646C195.477 19.5437 195.206 20.0119 194.863 20.3691C194.521 20.724 194.136 20.9578 193.707 21.0706C193.279 21.181 192.837 21.158 192.381 21.0016C192.03 20.8809 191.769 20.7262 191.597 20.5374C191.427 20.3462 191.31 20.1563 191.248 19.9676C191.186 19.7766 191.141 19.6207 191.114 19.4998L191.014 19.4656L190.726 20.3058L189.914 20.0271ZM191.679 17.5764C191.537 17.9894 191.472 18.3745 191.485 18.7317C191.499 19.0866 191.591 19.393 191.763 19.6508C191.935 19.9063 192.19 20.092 192.527 20.2077C192.878 20.3283 193.203 20.3364 193.501 20.2319C193.803 20.1259 194.067 19.9354 194.294 19.6605C194.525 19.384 194.707 19.0511 194.84 18.6619C194.972 18.2774 195.032 17.9105 195.019 17.5612C195.01 17.2103 194.917 16.9039 194.742 16.6421C194.569 16.3786 194.305 16.1858 193.949 16.0636C193.608 15.9462 193.291 15.9342 192.999 16.0276C192.707 16.1187 192.449 16.2981 192.225 16.5659C192.001 16.8313 191.819 17.1682 191.679 17.5764Z" fill="#8F818C"/>
<path d="M203.648 25.2117C203.139 24.9843 202.751 24.6759 202.482 24.2865C202.217 23.8958 202.076 23.4532 202.058 22.9586C202.043 22.4627 202.156 21.9444 202.398 21.4037C202.64 20.8631 202.951 20.4306 203.333 20.1063C203.717 19.7807 204.139 19.5816 204.597 19.509C205.059 19.4351 205.528 19.5046 206.005 19.7177C206.28 19.8406 206.531 20.0078 206.758 20.2192C206.985 20.4307 207.162 20.6887 207.29 20.9932C207.419 21.2954 207.473 21.6441 207.453 22.0393C207.434 22.4344 207.313 22.8783 207.093 23.3708L206.94 23.7145L202.871 21.8955L203.184 21.1945L206.428 22.6447C206.561 22.3469 206.621 22.0545 206.606 21.7676C206.594 21.4817 206.509 21.2225 206.352 20.99C206.197 20.7586 205.973 20.5773 205.679 20.4462C205.356 20.3018 205.041 20.257 204.733 20.3119C204.429 20.3655 204.157 20.4913 203.917 20.6893C203.678 20.8872 203.493 21.1317 203.363 21.4227L203.154 21.89C202.976 22.2886 202.893 22.6573 202.907 22.9959C202.924 23.3333 203.023 23.6295 203.206 23.8845C203.39 24.1371 203.646 24.3367 203.974 24.4831C204.187 24.5784 204.392 24.6346 204.591 24.6519C204.793 24.6679 204.984 24.6433 205.164 24.5782C205.345 24.5108 205.511 24.4009 205.662 24.2483L206.347 24.8185C206.146 25.0474 205.903 25.2191 205.618 25.3337C205.334 25.4459 205.024 25.4942 204.687 25.4784C204.352 25.4604 204.005 25.3714 203.648 25.2117Z" fill="#8F818C"/>
<path d="M216.215 33.6027L220.386 26.8351L221.117 27.2854L220.635 28.0673L220.725 28.1226C220.833 28.0714 220.977 28.0098 221.157 27.938C221.34 27.8653 221.557 27.8339 221.807 27.8438C222.061 27.8528 222.348 27.9561 222.669 28.1537C223.083 28.4091 223.385 28.7379 223.573 29.14C223.761 29.5422 223.827 29.988 223.77 30.4775C223.713 30.9671 223.525 31.4704 223.206 31.9873C222.885 32.5086 222.518 32.9057 222.105 33.1788C221.693 33.4498 221.266 33.5931 220.823 33.6089C220.381 33.6226 219.955 33.503 219.545 33.2501C219.229 33.0552 219.008 32.8468 218.882 32.625C218.758 32.4009 218.686 32.19 218.667 31.9923C218.648 31.7923 218.639 31.6304 218.639 31.5064L218.575 31.4669L216.971 34.0689L216.215 33.6027ZM219.613 29.7543C219.384 30.126 219.236 30.4875 219.17 30.8388C219.105 31.1879 219.128 31.5071 219.238 31.7964C219.35 32.0835 219.558 32.3206 219.861 32.5076C220.177 32.7025 220.493 32.7818 220.807 32.7455C221.124 32.7085 221.424 32.5808 221.706 32.3625C221.991 32.1434 222.242 31.8587 222.458 31.5083C222.671 31.1623 222.81 30.8175 222.875 30.4739C222.942 30.1295 222.92 29.8103 222.806 29.5163C222.696 29.2214 222.481 28.9752 222.16 28.7777C221.853 28.5881 221.546 28.5067 221.241 28.5336C220.936 28.5584 220.645 28.6767 220.367 28.8885C220.091 29.0983 219.839 29.3869 219.613 29.7543Z" fill="#8F818C"/>
<path d="M230.67 36.1136L228.587 38.899L227.875 38.367L232.492 32.1933L233.204 32.7253L231.508 34.9922L231.569 35.0373C231.856 34.8793 232.161 34.8111 232.483 34.8328C232.809 34.8539 233.154 35.0005 233.517 35.2726C233.833 35.5085 234.062 35.7785 234.204 36.0825C234.348 36.3844 234.389 36.7138 234.325 37.0708C234.266 37.4272 234.087 37.8044 233.789 38.2023L231.589 41.1445L230.878 40.6124L233.042 37.7185C233.317 37.3507 233.434 36.995 233.393 36.6512C233.356 36.307 233.17 36.0093 232.834 35.7583C232.601 35.584 232.355 35.4769 232.097 35.4371C231.84 35.3988 231.588 35.4343 231.34 35.5435C231.095 35.6543 230.871 35.8443 230.67 36.1136Z" fill="#8F818C"/>
<path d="M239.117 47.2978C238.728 46.9494 238.47 46.5512 238.343 46.1032C238.217 45.6569 238.221 45.1938 238.355 44.7137C238.49 44.2354 238.757 43.7738 239.156 43.3291C239.558 42.8806 239.99 42.5619 240.453 42.3732C240.917 42.1861 241.378 42.1307 241.835 42.2069C242.294 42.2849 242.718 42.4981 243.107 42.8465C243.495 43.1949 243.753 43.5922 243.878 44.0385C244.006 44.4865 244.001 44.9506 243.864 45.4308C243.728 45.9127 243.46 46.3779 243.058 46.8264C242.659 47.2712 242.228 47.5862 241.766 47.7714C241.305 47.9583 240.845 48.0128 240.386 47.9348C239.929 47.8585 239.506 47.6462 239.117 47.2978ZM239.65 46.7035C239.945 46.9682 240.256 47.1103 240.582 47.1297C240.908 47.1492 241.228 47.0767 241.54 46.9121C241.853 46.7475 242.138 46.5213 242.396 46.2335C242.654 45.9457 242.849 45.6365 242.98 45.3059C243.111 44.9753 243.15 44.6479 243.097 44.3238C243.044 43.9998 242.869 43.7054 242.574 43.4407C242.279 43.1761 241.967 43.035 241.639 43.0174C241.311 42.9997 240.99 43.0742 240.676 43.2406C240.362 43.4071 240.075 43.6342 239.817 43.922C239.56 44.2098 239.366 44.5181 239.236 44.8468C239.107 45.1756 239.069 45.501 239.124 45.8233C239.179 46.1455 239.354 46.4389 239.65 46.7035Z" fill="#8F818C"/>
<path d="M252.222 51.5835L251.682 52.1086L249.592 49.9612L250.132 49.4362L252.222 51.5835ZM251.734 49.0959L252.353 49.7325L248.404 53.5761C248.224 53.7511 248.115 53.9084 248.076 54.0481C248.04 54.1878 248.047 54.3139 248.097 54.4264C248.151 54.5389 248.223 54.642 248.314 54.7355C248.382 54.8056 248.442 54.8597 248.493 54.8976C248.545 54.9338 248.588 54.9628 248.619 54.9845L248.173 55.6706C248.115 55.6432 248.04 55.5987 247.949 55.5371C247.856 55.4773 247.751 55.388 247.636 55.2693C247.461 55.0895 247.328 54.8756 247.237 54.6277C247.148 54.3816 247.128 54.1249 247.176 53.8575C247.226 53.592 247.371 53.342 247.612 53.1075L251.734 49.0959Z" fill="#8F818C"/>
<path d="M252.362 60.3837C252.024 59.9857 251.823 59.5561 251.757 59.095C251.693 58.6357 251.76 58.1774 251.958 57.72C252.157 57.2645 252.485 56.8436 252.94 56.4572C253.4 56.0675 253.871 55.8106 254.355 55.6864C254.84 55.5642 255.304 55.572 255.747 55.7098C256.191 55.8495 256.582 56.1183 256.92 56.5163C257.258 56.9143 257.458 57.343 257.522 57.8022C257.588 58.2634 257.52 58.7225 257.318 59.1796C257.119 59.6386 256.789 60.063 256.33 60.4526C255.875 60.8391 255.405 61.0926 254.922 61.2132C254.44 61.3357 253.977 61.3271 253.533 61.1874C253.09 61.0496 252.7 60.7817 252.362 60.3837ZM252.97 59.8674C253.227 60.1698 253.516 60.3528 253.836 60.4164C254.157 60.4801 254.483 60.4517 254.815 60.3311C255.147 60.2106 255.461 60.0253 255.755 59.7752C256.05 59.5252 256.285 59.2453 256.46 58.9356C256.635 58.6259 256.718 58.3069 256.709 57.9786C256.701 57.6503 256.568 57.335 256.311 57.0326C256.055 56.7303 255.765 56.5481 255.443 56.4861C255.12 56.424 254.792 56.4541 254.458 56.5762C254.124 56.6984 253.81 56.8845 253.515 57.1346C253.22 57.3846 252.986 57.6636 252.813 57.9717C252.64 58.2798 252.559 58.5972 252.57 58.9239C252.58 59.2506 252.714 59.5651 252.97 59.8674Z" fill="#8F818C"/>
<path d="M264.75 68.6014L264.103 68.0829C264.182 67.9648 264.244 67.8295 264.29 67.6769C264.338 67.525 264.348 67.3575 264.32 67.1746C264.291 66.9917 264.201 66.795 264.051 66.5845C263.846 66.2965 263.608 66.1038 263.339 66.0064C263.072 65.9097 262.838 65.9334 262.636 66.0777C262.456 66.2059 262.361 66.3726 262.35 66.5777C262.339 66.7828 262.398 67.049 262.526 67.3764L262.853 68.1975C263.051 68.6913 263.118 69.1164 263.055 69.4728C262.994 69.8278 262.799 70.1226 262.47 70.3572C262.2 70.5496 261.904 70.6439 261.581 70.6402C261.259 70.6385 260.938 70.5434 260.619 70.3551C260.3 70.1667 260.01 69.8896 259.749 69.5239C259.406 69.0438 259.227 68.5721 259.211 68.1088C259.195 67.6455 259.358 67.2292 259.698 66.8598L260.359 67.4239C260.153 67.67 260.051 67.9291 260.054 68.2013C260.058 68.4755 260.166 68.7607 260.378 69.057C260.618 69.3941 260.88 69.6107 261.165 69.7069C261.453 69.8037 261.698 69.7799 261.9 69.6357C262.063 69.5191 262.159 69.3643 262.188 69.1712C262.219 68.9766 262.177 68.7411 262.063 68.4648L261.688 67.5491C261.482 67.0451 261.415 66.6155 261.485 66.2603C261.559 65.9056 261.758 65.6124 262.083 65.3807C262.349 65.1912 262.637 65.0982 262.948 65.1017C263.26 65.1071 263.567 65.1981 263.868 65.3745C264.171 65.5529 264.44 65.8077 264.677 66.1386C265.009 66.6045 265.167 67.043 265.153 67.4544C265.139 67.8677 265.005 68.2501 264.75 68.6014Z" fill="#8F818C"/>
<path d="M268.353 75.644L265.363 77.4206L264.909 76.6569L271.537 72.7191L271.99 73.4828L269.557 74.9287L269.595 74.9934C269.921 74.9574 270.229 75.011 270.518 75.1543C270.811 75.2984 271.074 75.5658 271.306 75.9562C271.507 76.295 271.615 76.632 271.63 76.9673C271.648 77.3014 271.559 77.6212 271.364 77.9268C271.173 78.2333 270.863 78.5134 270.436 78.7672L267.278 80.6438L266.824 79.8801L269.931 78.0342C270.325 77.7996 270.57 77.5158 270.664 77.1826C270.761 76.8504 270.703 76.5041 270.489 76.1438C270.34 75.8936 270.154 75.7006 269.93 75.5649C269.708 75.4314 269.461 75.3677 269.191 75.3739C268.921 75.3822 268.642 75.4722 268.353 75.644Z" fill="#8F818C"/>
<path d="M271.881 89.216C271.655 88.7452 271.569 88.2785 271.623 87.8159C271.678 87.3555 271.859 86.9292 272.167 86.537C272.475 86.1471 272.899 85.8232 273.437 85.5651C273.981 85.3049 274.502 85.1762 275.001 85.179C275.502 85.1841 275.949 85.3095 276.342 85.5552C276.736 85.8032 277.046 86.1625 277.271 86.6333C277.497 87.104 277.582 87.5696 277.527 88.03C277.473 88.4927 277.291 88.9195 276.98 89.3105C276.671 89.7037 276.244 90.0304 275.701 90.2906C275.162 90.5487 274.644 90.6746 274.146 90.6685C273.649 90.6646 273.203 90.5386 272.809 90.2906C272.415 90.0449 272.106 89.6867 271.881 89.216ZM272.6 88.8712C272.772 89.2288 273.004 89.4791 273.298 89.6221C273.592 89.7651 273.915 89.8205 274.267 89.7883C274.619 89.756 274.969 89.6564 275.317 89.4895C275.666 89.3225 275.964 89.1115 276.212 88.8564C276.46 88.6013 276.621 88.3138 276.696 87.9941C276.771 87.6743 276.723 87.3357 276.552 86.9781C276.38 86.6205 276.147 86.3707 275.851 86.2288C275.554 86.0869 275.229 86.0325 274.875 86.0659C274.521 86.0992 274.17 86.1993 273.821 86.3663C273.473 86.5332 273.176 86.7437 272.93 86.9978C272.684 87.2518 272.525 87.5381 272.452 87.8568C272.38 88.1755 272.429 88.5136 272.6 88.8712Z" fill="#8F818C"/>
<path d="M274.127 98.8356L281.579 96.0671L281.878 96.8716L281.017 97.1915L281.054 97.2903C281.171 97.3165 281.322 97.3566 281.508 97.4106C281.697 97.4661 281.888 97.5748 282.079 97.7366C282.274 97.9 282.436 98.158 282.567 98.5109C282.737 98.9673 282.772 99.4119 282.673 99.8448C282.575 100.278 282.352 100.67 282.006 101.02C281.66 101.371 281.202 101.652 280.633 101.864C280.059 102.077 279.525 102.164 279.031 102.125C278.54 102.086 278.115 101.936 277.756 101.676C277.399 101.415 277.137 101.058 276.969 100.607C276.84 100.258 276.794 99.9583 276.832 99.7061C276.871 99.4531 276.944 99.2426 277.051 99.0746C277.159 98.9057 277.252 98.7724 277.328 98.6745L277.302 98.604L274.436 99.6684L274.127 98.8356ZM279.174 97.8925C278.764 98.0445 278.425 98.2387 278.157 98.4749C277.891 98.7102 277.713 98.9759 277.622 99.272C277.534 99.5672 277.551 99.8818 277.675 100.216C277.805 100.564 278.004 100.82 278.274 100.985C278.548 101.151 278.863 101.235 279.219 101.237C279.579 101.239 279.952 101.169 280.337 101.026C280.719 100.884 281.04 100.698 281.302 100.467C281.568 100.237 281.746 99.9712 281.837 99.6696C281.932 99.3694 281.914 99.0429 281.783 98.69C281.657 98.3513 281.465 98.0985 281.208 97.9318C280.953 97.7642 280.651 97.6783 280.301 97.6743C279.954 97.6694 279.578 97.7422 279.174 97.8925Z" fill="#8F818C"/>
<path d="M282.011 115.432L289.53 113.731L290.55 118.24L289.742 118.423L288.929 114.825L286.388 115.399L287.125 118.659L286.318 118.842L285.58 115.582L282.217 116.343L282.011 115.432Z" fill="#8F818C"/>
<path d="M284.426 126.859L290.134 125.937L290.276 126.814L284.568 127.736L284.426 126.859ZM291.157 126.229C291.13 126.058 291.164 125.901 291.26 125.758C291.357 125.618 291.487 125.535 291.651 125.508C291.814 125.482 291.964 125.52 292.1 125.623C292.237 125.728 292.319 125.866 292.346 126.037C292.374 126.208 292.339 126.363 292.243 126.503C292.146 126.646 292.016 126.731 291.853 126.757C291.689 126.783 291.539 126.744 291.403 126.639C291.267 126.537 291.185 126.4 291.157 126.229Z" fill="#8F818C"/>
<path d="M283.231 134.385C283.19 133.958 283.209 133.586 283.289 133.268C283.367 132.95 283.485 132.681 283.642 132.459C283.797 132.239 283.969 132.06 284.157 131.921L284.72 132.577C284.623 132.667 284.513 132.78 284.39 132.916C284.264 133.051 284.162 133.23 284.082 133.452C284.001 133.677 283.977 133.963 284.01 134.31C284.055 134.775 284.205 135.147 284.459 135.428C284.713 135.708 285.08 135.825 285.559 135.779L286.728 135.665L286.721 135.591C286.61 135.536 286.471 135.456 286.305 135.351C286.141 135.248 285.988 135.092 285.847 134.881C285.708 134.673 285.621 134.381 285.584 134.006C285.539 133.542 285.609 133.114 285.793 132.723C285.977 132.335 286.269 132.013 286.668 131.757C287.067 131.504 287.566 131.349 288.165 131.291C288.755 131.234 289.278 131.288 289.735 131.453C290.195 131.617 290.563 131.873 290.838 132.219C291.116 132.566 291.279 132.981 291.326 133.466C291.362 133.84 291.328 134.144 291.225 134.375C291.124 134.61 291.001 134.793 290.855 134.926C290.711 135.06 290.593 135.165 290.499 135.24L290.508 135.33L291.422 135.241L291.505 136.096L285.585 136.669C285.09 136.717 284.677 136.643 284.346 136.448C284.012 136.256 283.755 135.979 283.573 135.615C283.39 135.255 283.276 134.845 283.231 134.385ZM286.39 134.049C286.425 134.404 286.535 134.696 286.721 134.925C286.907 135.154 287.159 135.318 287.476 135.415C287.793 135.513 288.164 135.542 288.588 135.501C289.003 135.46 289.363 135.363 289.668 135.207C289.973 135.051 290.204 134.842 290.36 134.58C290.516 134.318 290.577 134.007 290.542 133.647C290.505 133.273 290.38 132.97 290.166 132.738C289.952 132.509 289.68 132.348 289.348 132.254C289.016 132.163 288.656 132.136 288.266 132.173C287.866 132.212 287.519 132.309 287.224 132.463C286.931 132.62 286.71 132.831 286.559 133.095C286.411 133.362 286.355 133.68 286.39 134.049Z" fill="#8F818C"/>
<path d="M286.518 144.543L292.299 144.628L292.287 145.486L291.383 145.472L291.382 145.548C291.689 145.673 291.926 145.871 292.093 146.142C292.262 146.413 292.344 146.736 292.338 147.113C292.333 147.494 292.241 147.81 292.064 148.061C291.89 148.315 291.647 148.511 291.337 148.649L291.336 148.709C291.632 148.862 291.866 149.087 292.037 149.386C292.211 149.685 292.295 150.041 292.289 150.455C292.281 150.972 292.113 151.392 291.785 151.716C291.459 152.04 290.956 152.197 290.276 152.187L286.407 152.13L286.42 151.242L290.289 151.299C290.715 151.305 291.022 151.193 291.209 150.962C291.395 150.732 291.491 150.458 291.496 150.142C291.502 149.736 291.383 149.419 291.141 149.192C290.9 148.965 290.593 148.849 290.22 148.844L286.456 148.788L286.469 147.885L290.429 147.943C290.757 147.948 291.024 147.845 291.227 147.635C291.434 147.425 291.539 147.151 291.544 146.815C291.548 146.584 291.489 146.367 291.369 146.165C291.249 145.965 291.081 145.802 290.865 145.676C290.651 145.552 290.402 145.488 290.118 145.484L286.505 145.431L286.518 144.543Z" fill="#8F818C"/>
<path d="M285.629 163.973C285.674 163.61 285.783 163.288 285.956 163.008C286.132 162.729 286.361 162.518 286.644 162.376C286.93 162.234 287.259 162.186 287.633 162.232C287.962 162.272 288.22 162.369 288.409 162.524C288.599 162.679 288.74 162.872 288.831 163.103C288.921 163.334 288.979 163.584 289.004 163.852C289.032 164.123 289.047 164.394 289.049 164.665C289.051 165.019 289.05 165.306 289.046 165.526C289.044 165.748 289.065 165.912 289.11 166.019C289.155 166.128 289.249 166.192 289.391 166.209L289.421 166.213C289.789 166.258 290.088 166.192 290.317 166.015C290.546 165.841 290.685 165.551 290.735 165.145C290.786 164.724 290.734 164.383 290.579 164.121C290.424 163.859 290.248 163.667 290.051 163.544L290.452 162.744C290.783 162.936 291.03 163.169 291.194 163.441C291.359 163.717 291.463 164.008 291.504 164.314C291.547 164.622 291.551 164.921 291.515 165.21C291.493 165.395 291.444 165.603 291.37 165.837C291.298 166.074 291.181 166.296 291.019 166.503C290.857 166.713 290.631 166.877 290.341 166.993C290.051 167.109 289.679 167.139 289.223 167.083L285.442 166.62L285.55 165.738L286.327 165.834L286.332 165.789C286.215 165.714 286.094 165.598 285.969 165.441C285.844 165.284 285.746 165.084 285.675 164.84C285.604 164.596 285.589 164.307 285.629 163.973ZM286.405 164.205C286.362 164.554 286.395 164.856 286.503 165.112C286.61 165.37 286.765 165.574 286.966 165.722C287.168 165.873 287.388 165.964 287.627 165.993L288.434 166.092C288.394 166.049 288.363 165.962 288.341 165.83C288.321 165.701 288.308 165.553 288.301 165.385C288.296 165.22 288.293 165.059 288.292 164.902C288.293 164.748 288.293 164.623 288.292 164.527C288.29 164.294 288.268 164.074 288.225 163.867C288.184 163.662 288.106 163.49 287.989 163.352C287.874 163.217 287.704 163.135 287.48 163.108C287.174 163.07 286.928 163.155 286.743 163.363C286.561 163.573 286.448 163.854 286.405 164.205Z" fill="#8F818C"/>
<path d="M283.43 179.407L290.877 181.403L290.635 182.305L287.319 181.416L286.255 185.387L289.571 186.275L289.329 187.177L281.883 185.181L282.124 184.279L285.455 185.172L286.519 181.202L283.189 180.309L283.43 179.407Z" fill="#8F818C"/>
<path d="M285.935 195.981L286.708 196.278L284.636 201.676L283.863 201.379L284.732 199.116L278.308 196.651L278.642 195.779L285.066 198.244L285.935 195.981Z" fill="#8F818C"/>
<path d="M281.439 209.857L280.921 210.844L274.037 210.194L273.996 210.274L278.447 215.565L277.93 216.552L271.102 212.973L271.507 212.199L276.695 214.919L276.73 214.852L272.661 209.999L273.052 209.252L279.358 209.838L279.393 209.771L274.205 207.052L274.611 206.278L281.439 209.857Z" fill="#8F818C"/>
<path d="M265.894 222.228L272.289 226.533L271.768 227.308L266.06 223.465L264.059 226.438L263.372 225.976L265.894 222.228Z" fill="#8F818C"/>
<path d="M255.659 244.486L256.282 243.791C256.519 243.929 256.759 244.015 257.003 244.048C257.245 244.083 257.482 244.073 257.716 244.02C257.949 243.97 258.171 243.88 258.381 243.752C258.591 243.623 258.781 243.463 258.952 243.273C259.263 242.925 259.458 242.532 259.535 242.092C259.611 241.654 259.552 241.199 259.36 240.726C259.165 240.255 258.819 239.797 258.322 239.351C257.825 238.905 257.332 238.612 256.843 238.469C256.352 238.329 255.893 238.32 255.466 238.443C255.038 238.568 254.667 238.804 254.356 239.151C254.185 239.342 254.047 239.548 253.942 239.771C253.837 239.993 253.771 240.223 253.745 240.459C253.719 240.698 253.736 240.936 253.797 241.173C253.858 241.413 253.969 241.643 254.13 241.861L253.507 242.556C253.261 242.241 253.083 241.91 252.976 241.564C252.868 241.218 252.825 240.87 252.847 240.518C252.871 240.169 252.955 239.828 253.1 239.497C253.244 239.167 253.446 238.858 253.706 238.568C254.145 238.079 254.655 237.751 255.235 237.584C255.816 237.417 256.425 237.422 257.062 237.599C257.699 237.776 258.32 238.136 258.926 238.679C259.531 239.221 259.956 239.8 260.201 240.414C260.446 241.028 260.517 241.633 260.414 242.228C260.312 242.824 260.041 243.366 259.602 243.856C259.342 244.145 259.056 244.38 258.745 244.558C258.431 244.739 258.101 244.859 257.754 244.919C257.409 244.98 257.059 244.976 256.703 244.907C256.349 244.839 256.001 244.699 255.659 244.486Z" fill="#8F818C"/>
<path d="M246.621 254.349C246.911 254.601 247.246 254.696 247.625 254.636C248.005 254.576 248.367 254.389 248.713 254.075C248.965 253.845 249.149 253.604 249.264 253.35C249.377 253.098 249.422 252.852 249.398 252.613C249.372 252.375 249.276 252.165 249.111 251.984C248.972 251.831 248.817 251.733 248.645 251.69C248.473 251.649 248.296 251.645 248.115 251.678C247.936 251.712 247.762 251.763 247.594 251.831C247.427 251.902 247.278 251.971 247.147 252.039L246.426 252.41C246.242 252.506 246.027 252.603 245.783 252.699C245.537 252.798 245.276 252.863 245.001 252.897C244.726 252.933 244.45 252.909 244.173 252.825C243.896 252.741 243.636 252.565 243.393 252.298C243.113 251.99 242.941 251.638 242.876 251.242C242.809 250.848 242.864 250.437 243.038 250.011C243.211 249.585 243.517 249.173 243.955 248.775C244.364 248.404 244.777 248.148 245.196 248.008C245.613 247.87 246.014 247.841 246.399 247.921C246.783 248.004 247.127 248.19 247.433 248.482L246.72 249.13C246.506 248.932 246.271 248.82 246.017 248.793C245.762 248.77 245.506 248.813 245.249 248.922C244.991 249.034 244.749 249.193 244.522 249.399C244.259 249.639 244.061 249.897 243.929 250.173C243.798 250.451 243.742 250.723 243.759 250.988C243.779 251.256 243.883 251.493 244.072 251.701C244.244 251.891 244.437 251.997 244.651 252.019C244.865 252.042 245.092 252.012 245.332 251.929C245.572 251.846 245.818 251.742 246.069 251.615L246.953 251.177C247.515 250.9 248.034 250.763 248.51 250.764C248.986 250.765 249.399 250.958 249.749 251.342C250.039 251.662 250.206 252.019 250.249 252.413C250.292 252.812 250.227 253.21 250.054 253.609C249.88 254.011 249.611 254.377 249.247 254.708C248.88 255.042 248.493 255.274 248.087 255.402C247.683 255.532 247.295 255.559 246.921 255.485C246.547 255.412 246.224 255.236 245.953 254.956L246.621 254.349Z" fill="#8F818C"/>
<path d="M236.204 263.085C236.469 263.363 236.793 263.49 237.177 263.467C237.56 263.443 237.939 263.292 238.312 263.012C238.586 262.807 238.792 262.584 238.93 262.343C239.067 262.102 239.135 261.862 239.134 261.622C239.131 261.383 239.055 261.165 238.908 260.968C238.785 260.803 238.64 260.691 238.473 260.631C238.305 260.574 238.13 260.554 237.946 260.568C237.765 260.585 237.587 260.62 237.412 260.672C237.24 260.726 237.085 260.781 236.948 260.836L236.195 261.136C236.002 261.214 235.78 261.29 235.527 261.363C235.273 261.437 235.007 261.478 234.73 261.485C234.452 261.495 234.18 261.445 233.913 261.335C233.645 261.224 233.403 261.025 233.187 260.735C232.937 260.402 232.799 260.035 232.773 259.635C232.744 259.236 232.837 258.833 233.052 258.425C233.265 258.018 233.608 257.637 234.082 257.282C234.524 256.952 234.96 256.736 235.391 256.637C235.819 256.539 236.221 256.549 236.597 256.666C236.97 256.784 237.296 257.003 237.572 257.322L236.801 257.9C236.606 257.682 236.384 257.547 236.133 257.497C235.881 257.45 235.622 257.468 235.356 257.552C235.089 257.639 234.832 257.774 234.587 257.957C234.302 258.171 234.08 258.409 233.922 258.671C233.766 258.935 233.684 259.201 233.676 259.467C233.67 259.735 233.751 259.981 233.919 260.206C234.072 260.411 234.255 260.535 234.465 260.578C234.676 260.621 234.905 260.613 235.152 260.553C235.399 260.494 235.653 260.413 235.916 260.311L236.837 259.96C237.423 259.737 237.953 259.65 238.427 259.696C238.901 259.743 239.293 259.975 239.604 260.391C239.863 260.736 239.995 261.107 240 261.504C240.006 261.905 239.903 262.295 239.692 262.676C239.481 263.059 239.178 263.398 238.784 263.693C238.386 263.991 237.979 264.184 237.563 264.273C237.149 264.364 236.759 264.354 236.395 264.244C236.029 264.136 235.724 263.93 235.481 263.626L236.204 263.085Z" fill="#8F818C"/>
<path d="M221.972 274.844L221.157 275.3L218.468 270.489C218.228 270.06 218.103 269.651 218.093 269.263C218.083 268.875 218.178 268.523 218.378 268.207C218.578 267.891 218.873 267.624 219.263 267.406C219.631 267.2 219.996 267.084 220.357 267.057C220.72 267.032 221.053 267.099 221.357 267.257C221.661 267.415 221.909 267.666 222.102 268.009L221.3 268.458C221.193 268.267 221.053 268.127 220.879 268.037C220.705 267.951 220.512 267.915 220.301 267.929C220.091 267.943 219.879 268.01 219.667 268.129C219.433 268.26 219.261 268.42 219.152 268.611C219.042 268.801 218.998 269.016 219.019 269.254C219.04 269.496 219.127 269.756 219.283 270.034L221.972 274.844Z" fill="#8F818C"/>
<path d="M209.089 272.782C209.422 272.631 209.754 272.557 210.083 272.559C210.413 272.564 210.712 272.65 210.981 272.817C211.251 272.987 211.463 273.243 211.619 273.586C211.756 273.888 211.807 274.159 211.773 274.401C211.74 274.644 211.649 274.865 211.499 275.062C211.349 275.26 211.165 275.439 210.949 275.601C210.732 275.765 210.508 275.919 210.278 276.062C209.977 276.248 209.731 276.397 209.542 276.508C209.351 276.622 209.222 276.726 209.154 276.82C209.085 276.915 209.079 277.027 209.138 277.158L209.151 277.185C209.304 277.523 209.516 277.744 209.786 277.848C210.054 277.952 210.374 277.92 210.746 277.751C211.133 277.576 211.397 277.354 211.54 277.085C211.683 276.817 211.755 276.566 211.757 276.334L212.649 276.26C212.657 276.642 212.587 276.974 212.44 277.256C212.291 277.541 212.096 277.781 211.856 277.975C211.615 278.173 211.362 278.331 211.097 278.452C210.928 278.528 210.724 278.596 210.486 278.654C210.247 278.716 209.997 278.732 209.735 278.702C209.471 278.672 209.214 278.564 208.964 278.377C208.714 278.19 208.494 277.888 208.304 277.47L206.731 274L207.54 273.633L207.864 274.346L207.905 274.328C207.908 274.189 207.944 274.025 208.013 273.837C208.082 273.648 208.202 273.46 208.373 273.272C208.544 273.085 208.783 272.921 209.089 272.782ZM209.295 273.565C208.975 273.71 208.734 273.895 208.571 274.121C208.407 274.347 208.313 274.585 208.292 274.834C208.267 275.085 208.305 275.32 208.405 275.539L208.74 276.28C208.756 276.223 208.814 276.151 208.915 276.064C209.015 275.98 209.135 275.892 209.274 275.798C209.412 275.708 209.548 275.622 209.681 275.539C209.814 275.46 209.921 275.395 210.002 275.344C210.2 275.221 210.376 275.088 210.531 274.943C210.685 274.802 210.79 274.645 210.847 274.473C210.903 274.305 210.884 274.117 210.791 273.912C210.664 273.631 210.463 273.465 210.19 273.416C209.916 273.369 209.617 273.419 209.295 273.565Z" fill="#8F818C"/>
<path d="M198.051 283.744L198.121 277.58L198.972 277.276L202.929 282.003L202.021 282.327L198.969 278.524L198.913 278.544L198.958 283.42L198.051 283.744Z" fill="#8F818C"/>
<path d="M188.183 280.74C188.537 280.646 188.876 280.628 189.2 280.685C189.525 280.745 189.806 280.879 190.043 281.089C190.281 281.301 190.448 281.589 190.544 281.953C190.629 282.274 190.634 282.55 190.561 282.782C190.488 283.017 190.361 283.219 190.18 283.389C189.999 283.559 189.789 283.705 189.549 283.829C189.307 283.955 189.061 284.069 188.81 284.172C188.482 284.305 188.215 284.411 188.01 284.489C187.803 284.569 187.658 284.65 187.576 284.732C187.491 284.814 187.467 284.924 187.504 285.063L187.511 285.092C187.606 285.451 187.778 285.704 188.028 285.851C188.274 285.998 188.595 286.02 188.991 285.915C189.401 285.807 189.699 285.632 189.884 285.391C190.069 285.15 190.182 284.915 190.223 284.686L191.115 284.761C191.06 285.14 190.935 285.455 190.743 285.709C190.549 285.965 190.317 286.169 190.048 286.321C189.778 286.475 189.502 286.59 189.22 286.664C189.041 286.712 188.829 286.745 188.584 286.763C188.338 286.784 188.088 286.757 187.835 286.684C187.58 286.612 187.344 286.462 187.129 286.236C186.913 286.01 186.747 285.675 186.63 285.231L185.656 281.549L186.514 281.322L186.715 282.078L186.758 282.067C186.784 281.93 186.847 281.775 186.946 281.601C187.046 281.426 187.195 281.261 187.395 281.104C187.595 280.947 187.858 280.826 188.183 280.74ZM188.256 281.546C187.916 281.636 187.648 281.778 187.45 281.974C187.25 282.169 187.118 282.388 187.055 282.631C186.99 282.874 186.988 283.112 187.049 283.345L187.257 284.131C187.282 284.078 187.352 284.016 187.466 283.947C187.578 283.881 187.711 283.814 187.864 283.745C188.015 283.679 188.163 283.616 188.309 283.557C188.452 283.501 188.568 283.454 188.657 283.418C188.873 283.33 189.069 283.227 189.246 283.11C189.421 282.997 189.551 282.86 189.636 282.7C189.719 282.543 189.731 282.355 189.674 282.137C189.595 281.838 189.425 281.642 189.163 281.548C188.9 281.456 188.598 281.456 188.256 281.546Z" fill="#8F818C"/>
<path d="M175.557 288.395L176.303 288.032C176.376 288.154 176.472 288.269 176.59 288.375C176.706 288.484 176.853 288.565 177.031 288.618C177.208 288.67 177.424 288.674 177.679 288.628C178.027 288.566 178.303 288.434 178.507 288.232C178.708 288.033 178.787 287.811 178.744 287.566C178.705 287.349 178.595 287.191 178.415 287.094C178.234 286.996 177.968 286.935 177.617 286.911L176.735 286.854C176.204 286.821 175.792 286.7 175.497 286.49C175.202 286.283 175.02 285.98 174.949 285.582C174.89 285.256 174.932 284.948 175.074 284.657C175.214 284.367 175.437 284.119 175.744 283.911C176.051 283.703 176.426 283.56 176.868 283.481C177.449 283.377 177.952 283.418 178.377 283.602C178.802 283.786 179.109 284.111 179.296 284.577L178.503 284.933C178.37 284.641 178.179 284.437 177.932 284.324C177.682 284.21 177.378 284.185 177.02 284.249C176.613 284.322 176.304 284.466 176.096 284.682C175.885 284.9 175.801 285.132 175.845 285.376C175.88 285.574 175.979 285.727 176.141 285.836C176.303 285.947 176.534 286.011 176.832 286.026L177.821 286.079C178.364 286.11 178.781 286.233 179.072 286.449C179.361 286.667 179.54 286.973 179.61 287.366C179.668 287.687 179.628 287.987 179.492 288.267C179.353 288.546 179.139 288.784 178.851 288.981C178.56 289.178 178.214 289.313 177.814 289.384C177.25 289.485 176.786 289.44 176.421 289.25C176.053 289.061 175.765 288.776 175.557 288.395Z" fill="#8F818C"/>
<path d="M165.921 285.172C166.46 285.121 166.937 285.204 167.351 285.422C167.765 285.64 168.098 285.962 168.351 286.389C168.603 286.817 168.756 287.317 168.811 287.892C168.867 288.477 168.808 289.003 168.636 289.47C168.461 289.941 168.192 290.32 167.829 290.61C167.464 290.901 167.021 291.072 166.502 291.121C166.097 291.16 165.725 291.12 165.386 291.001C165.047 290.882 164.761 290.697 164.528 290.447C164.295 290.197 164.136 289.894 164.052 289.539L164.936 289.455C165.029 289.711 165.201 289.929 165.452 290.11C165.702 290.293 166.021 290.366 166.411 290.328C166.756 290.296 167.049 290.177 167.292 289.972C167.533 289.771 167.71 289.5 167.824 289.162C167.936 288.826 167.971 288.441 167.93 288.006C167.887 287.561 167.78 287.181 167.609 286.864C167.435 286.548 167.211 286.311 166.937 286.153C166.659 285.996 166.346 285.933 165.996 285.967C165.766 285.988 165.562 286.048 165.382 286.146C165.202 286.244 165.054 286.374 164.939 286.536C164.823 286.698 164.748 286.887 164.713 287.102L163.828 287.186C163.846 286.842 163.941 286.524 164.112 286.233C164.281 285.944 164.519 285.705 164.826 285.514C165.131 285.327 165.496 285.213 165.921 285.172Z" fill="#8F818C"/>
<path d="M156.702 286.029L156.836 291.809L155.978 291.829L155.958 290.956L155.898 290.958C155.799 291.246 155.614 291.483 155.342 291.667C155.07 291.852 154.761 291.948 154.415 291.956C154.35 291.958 154.268 291.958 154.17 291.958C154.072 291.958 153.998 291.956 153.948 291.952L153.927 291.049C153.957 291.056 154.027 291.065 154.135 291.078C154.241 291.093 154.352 291.099 154.47 291.096C154.751 291.09 155.001 291.025 155.219 290.902C155.434 290.781 155.604 290.617 155.727 290.408C155.848 290.202 155.905 289.969 155.899 289.708L155.814 286.05L156.702 286.029Z" fill="#8F818C"/>
<path d="M148.789 286.133L148.652 291.913L147.764 291.892L147.901 286.112L148.789 286.133ZM148.178 292.866C148.351 292.87 148.499 292.933 148.621 293.053C148.741 293.174 148.799 293.317 148.796 293.483C148.792 293.649 148.727 293.789 148.601 293.904C148.473 294.019 148.322 294.074 148.149 294.07C147.976 294.066 147.829 294.004 147.709 293.883C147.587 293.762 147.527 293.619 147.531 293.453C147.535 293.287 147.601 293.147 147.729 293.032C147.855 292.917 148.005 292.862 148.178 292.866Z" fill="#8F818C"/>
<path d="M143.806 283.9L143.11 291.819L142.255 291.744L142.336 290.829L142.231 290.82C142.157 290.914 142.056 291.034 141.927 291.179C141.796 291.326 141.616 291.451 141.388 291.555C141.157 291.66 140.854 291.697 140.479 291.664C139.994 291.621 139.577 291.462 139.228 291.188C138.88 290.913 138.621 290.543 138.453 290.08C138.284 289.617 138.227 289.083 138.28 288.478C138.333 287.868 138.483 287.348 138.73 286.919C138.977 286.492 139.295 286.173 139.684 285.96C140.072 285.75 140.507 285.666 140.987 285.708C141.357 285.74 141.648 285.828 141.859 285.97C142.071 286.114 142.23 286.27 142.336 286.438C142.442 286.609 142.523 286.75 142.578 286.86L142.653 286.867L142.921 283.822L143.806 283.9ZM142.493 288.863C142.531 288.428 142.501 288.039 142.403 287.695C142.305 287.354 142.141 287.079 141.912 286.87C141.684 286.663 141.392 286.545 141.037 286.513C140.667 286.481 140.35 286.551 140.085 286.725C139.818 286.9 139.607 287.149 139.453 287.47C139.296 287.794 139.199 288.161 139.163 288.571C139.128 288.976 139.158 289.346 139.255 289.682C139.348 290.02 139.512 290.295 139.745 290.507C139.976 290.722 140.279 290.845 140.654 290.878C141.014 290.91 141.324 290.845 141.585 290.684C141.846 290.526 142.053 290.289 142.207 289.975C142.36 289.664 142.455 289.293 142.493 288.863Z" fill="#8F818C"/>
<path d="M128.007 290.136L128.125 289.393L131.085 289.863L130.967 290.606L128.007 290.136ZM129.887 291.837L129.01 291.698L129.874 286.255C129.913 286.008 129.907 285.816 129.854 285.681C129.799 285.547 129.718 285.451 129.611 285.39C129.501 285.332 129.381 285.293 129.252 285.273C129.156 285.257 129.075 285.25 129.012 285.25C128.948 285.252 128.897 285.254 128.858 285.256L128.805 284.439C128.868 284.426 128.955 284.417 129.065 284.412C129.175 284.404 129.312 284.413 129.476 284.439C129.724 284.478 129.958 284.57 130.179 284.715C130.398 284.859 130.568 285.052 130.689 285.295C130.808 285.537 130.842 285.825 130.789 286.157L129.887 291.837Z" fill="#8F818C"/>
<path d="M117.913 288.152L117.051 287.939L118.54 281.917C118.625 281.571 118.759 281.286 118.941 281.062C119.121 280.838 119.347 280.686 119.62 280.606C119.891 280.526 120.206 280.53 120.567 280.619C120.596 280.626 120.625 280.634 120.655 280.641C120.684 280.648 120.713 280.655 120.742 280.663L120.543 281.467C120.514 281.459 120.487 281.453 120.463 281.447C120.439 281.441 120.412 281.434 120.383 281.427C120.12 281.362 119.908 281.392 119.747 281.518C119.588 281.641 119.473 281.845 119.402 282.13L117.913 288.152ZM117.258 288.983C117.426 289.025 117.557 289.118 117.65 289.262C117.741 289.406 117.767 289.559 117.727 289.719C117.687 289.88 117.593 290.003 117.446 290.088C117.296 290.172 117.137 290.194 116.968 290.152C116.8 290.111 116.671 290.018 116.58 289.874C116.486 289.729 116.459 289.577 116.499 289.416C116.539 289.255 116.634 289.132 116.784 289.048C116.932 288.963 117.09 288.941 117.258 288.983Z" fill="#8F818C"/>
<path d="M110.699 282.775L109.727 282.455L109.266 281.113L109.145 280.757L108.463 278.74L109.435 279.061L109.882 280.397L109.993 280.735L110.699 282.775ZM106.729 282.988C106.984 282.216 107.343 281.594 107.807 281.124C108.272 280.653 108.797 280.346 109.384 280.201C109.971 280.056 110.576 280.087 111.201 280.293C111.825 280.499 112.33 280.835 112.716 281.3C113.101 281.765 113.341 282.325 113.434 282.98C113.527 283.634 113.447 284.347 113.192 285.12C112.938 285.892 112.578 286.513 112.114 286.983C111.649 287.454 111.124 287.762 110.537 287.906C109.95 288.051 109.345 288.02 108.72 287.814C108.096 287.608 107.591 287.273 107.205 286.807C106.82 286.342 106.58 285.782 106.487 285.128C106.394 284.473 106.474 283.76 106.729 282.988ZM107.587 283.271C107.378 283.905 107.307 284.475 107.376 284.981C107.442 285.486 107.618 285.91 107.904 286.253C108.187 286.595 108.551 286.839 108.994 286.985C109.437 287.131 109.876 287.152 110.309 287.046C110.741 286.94 111.134 286.704 111.49 286.338C111.844 285.971 112.125 285.471 112.334 284.837C112.543 284.203 112.615 283.633 112.549 283.128C112.481 282.622 112.305 282.198 112.021 281.856C111.735 281.513 111.371 281.269 110.927 281.122C110.484 280.976 110.047 280.956 109.615 281.062C109.182 281.168 108.788 281.404 108.434 281.771C108.078 282.137 107.796 282.637 107.587 283.271Z" fill="#8F818C"/>
<path d="M95.351 277.057L93.9565 280.178L93.1455 279.815L95.5045 274.537L96.3155 274.899L95.9162 275.793L95.9712 275.817C96.2147 275.604 96.509 275.462 96.8542 275.391C97.1983 275.322 97.5697 275.377 97.9683 275.555C98.2982 275.703 98.5592 275.906 98.7513 276.165C98.9424 276.426 99.0457 276.736 99.0613 277.095C99.0758 277.456 98.9828 277.861 98.7821 278.31L97.2831 281.664L96.4721 281.302L97.9465 278.003C98.1185 277.618 98.148 277.263 98.035 276.937C97.9198 276.611 97.6938 276.373 97.357 276.222C97.1554 276.132 96.9273 276.092 96.6727 276.102C96.4159 276.111 96.1688 276.19 95.9315 276.34C95.692 276.488 95.4985 276.727 95.351 277.057Z" fill="#8F818C"/>
<path d="M86.6294 270.096C87.116 270.367 87.4758 270.709 87.7089 271.12C87.9386 271.533 88.0407 271.986 88.0151 272.48C87.986 272.976 87.8273 273.482 87.5389 273.999C87.2505 274.516 86.9021 274.92 86.4936 275.209C86.0818 275.499 85.6442 275.661 85.1811 275.693C84.7145 275.726 84.2533 275.615 83.7974 275.361C83.5344 275.214 83.2991 275.025 83.0916 274.795C82.884 274.564 82.73 274.291 82.6296 273.977C82.5279 273.664 82.5045 273.312 82.5592 272.92C82.6139 272.529 82.7726 272.097 83.0353 271.626L83.2186 271.297L87.1112 273.468L86.7373 274.138L83.6337 272.408C83.4749 272.693 83.3901 272.979 83.3794 273.266C83.3666 273.552 83.4282 273.817 83.5643 274.063C83.6982 274.307 83.9055 274.507 84.186 274.664C84.4951 274.836 84.8052 274.908 85.1165 274.881C85.4244 274.854 85.7064 274.753 85.9626 274.577C86.2188 274.401 86.4245 274.174 86.5797 273.895L86.829 273.448C87.0417 273.067 87.1562 272.707 87.1725 272.368C87.1855 272.031 87.1121 271.727 86.9523 271.457C86.7914 271.189 86.5542 270.968 86.2408 270.793C86.037 270.679 85.837 270.605 85.6408 270.57C85.4412 270.537 85.2488 270.544 85.0635 270.593C84.8769 270.644 84.7019 270.739 84.5384 270.878L83.9061 270.249C84.1268 270.039 84.384 269.89 84.6779 269.801C84.9705 269.714 85.2837 269.693 85.6176 269.738C85.9502 269.786 86.2875 269.905 86.6294 270.096Z" fill="#8F818C"/>
<path d="M78.4925 265.535L75.3171 270.367L74.5999 269.895L75.0795 269.166L75.0292 269.132C74.784 269.314 74.4971 269.403 74.1686 269.4C73.8401 269.397 73.5311 269.301 73.2417 269.111C73.1872 269.075 73.1197 269.029 73.0393 268.973C72.9589 268.917 72.8991 268.874 72.8599 268.842L73.3561 268.087C73.3771 268.11 73.4286 268.157 73.5105 268.229C73.5889 268.301 73.6774 268.37 73.7759 268.435C74.0108 268.589 74.2529 268.678 74.5022 268.701C74.7481 268.724 74.981 268.685 75.2009 268.583C75.4174 268.482 75.5973 268.323 75.7407 268.105L77.7501 265.047L78.4925 265.535Z" fill="#8F818C"/>
<path d="M72.6326 259.03C72.7522 259.122 72.8513 259.213 72.9297 259.305C73.0097 259.394 73.0608 259.462 73.083 259.507L72.4281 259.992C72.2901 259.817 72.1508 259.685 72.0101 259.597C71.8694 259.508 71.7078 259.478 71.5253 259.506C71.3424 259.53 71.1189 259.626 70.8549 259.794L70.449 260.052L68.6182 265.968L67.8526 265.383L69.3826 260.753L69.3347 260.717L65.2688 263.408L64.5032 262.823L70.4763 259.05C70.7453 258.88 71.0041 258.766 71.2525 258.71C71.5025 258.651 71.7422 258.65 71.9716 258.705C72.1989 258.759 72.4193 258.867 72.6326 259.03Z" fill="#8F818C"/>
<path d="M58.3283 250.213L52.8897 255.677L51.0437 253.839C50.6168 253.414 50.3391 252.993 50.2103 252.574C50.0799 252.157 50.0745 251.757 50.1943 251.374C50.3141 250.99 50.5342 250.637 50.8546 250.316C51.1751 249.994 51.525 249.774 51.9045 249.656C52.2839 249.538 52.6805 249.543 53.0942 249.672C53.5062 249.802 53.9238 250.078 54.3471 250.499L55.841 251.986L55.2462 252.584L53.7736 251.118C53.4819 250.828 53.2047 250.637 52.9419 250.545C52.6773 250.452 52.4271 250.443 52.1912 250.52C51.9519 250.597 51.7233 250.745 51.5055 250.964C51.2878 251.182 51.1384 251.414 51.0573 251.659C50.9763 251.904 50.9813 252.161 51.0724 252.428C51.1617 252.698 51.354 252.98 51.6492 253.274L52.8124 254.431L57.6667 249.555L58.3283 250.213ZM53.3135 250.108L54.4121 246.315L55.1804 247.08L54.0605 250.851L53.3135 250.108Z" fill="#8F818C"/>
<path d="M47.9885 239.282C48.346 239.709 48.5602 240.157 48.6309 240.624C48.6981 241.092 48.6315 241.552 48.431 242.004C48.227 242.456 47.8979 242.872 47.4438 243.253C46.9896 243.633 46.5201 243.885 46.0352 244.009C45.5468 244.133 45.0806 244.128 44.6366 243.992C44.189 243.856 43.7977 243.588 43.4627 243.188C43.2694 242.957 43.1171 242.697 43.0056 242.407C42.8941 242.118 42.8477 241.808 42.8662 241.478C42.8829 241.15 42.9867 240.813 43.1778 240.466C43.3689 240.12 43.6713 239.773 44.085 239.427L44.3737 239.186L47.2342 242.603L46.6453 243.096L44.3647 240.371C44.1145 240.581 43.9331 240.818 43.8206 241.082C43.7065 241.344 43.6691 241.614 43.7086 241.892C43.7465 242.168 43.8685 242.429 44.0747 242.676C44.3018 242.947 44.5656 243.125 44.8662 243.211C45.1633 243.296 45.4629 243.302 45.7651 243.229C46.0673 243.156 46.3405 243.017 46.5849 242.813L46.9775 242.484C47.3123 242.204 47.5479 241.909 47.6841 241.598C47.8167 241.288 47.8567 240.978 47.804 240.668C47.7493 240.361 47.6069 240.069 47.3765 239.794C47.2268 239.615 47.0664 239.474 46.8956 239.372C46.7213 239.269 46.5388 239.208 46.3482 239.187C46.1557 239.168 45.9583 239.194 45.7561 239.265L45.39 238.453C45.6712 238.335 45.9649 238.287 46.2711 238.309C46.5755 238.333 46.8754 238.425 47.171 238.587C47.4647 238.75 47.7372 238.982 47.9885 239.282Z" fill="#8F818C"/>
<path d="M40.9282 230.433C41.1383 230.733 41.2725 231.045 41.3307 231.369C41.3868 231.694 41.3574 232.004 41.2423 232.299C41.1251 232.595 40.9124 232.852 40.604 233.068C40.3327 233.258 40.0753 233.358 39.8319 233.369C39.5864 233.382 39.3528 233.332 39.1309 233.221C38.9091 233.11 38.699 232.963 38.5006 232.78C38.2987 232.597 38.1064 232.405 37.9236 232.206C37.6851 231.944 37.494 231.73 37.3503 231.564C37.2031 231.397 37.077 231.29 36.9722 231.24C36.8659 231.189 36.7541 231.205 36.637 231.287L36.6123 231.304C36.3081 231.517 36.13 231.766 36.078 232.05C36.0245 232.333 36.1151 232.642 36.3497 232.977C36.593 233.324 36.8597 233.543 37.15 233.634C37.4403 233.725 37.6998 233.75 37.9287 233.709L38.1656 234.573C37.7914 234.651 37.4522 234.643 37.1479 234.55C36.8402 234.456 36.5688 234.309 36.3338 234.109C36.0953 233.908 35.8926 233.689 35.7256 233.45C35.6191 233.298 35.5153 233.111 35.4141 232.887C35.3095 232.663 35.2479 232.42 35.2294 232.157C35.2094 231.893 35.2683 231.62 35.406 231.34C35.5437 231.06 35.8006 230.788 36.1768 230.524L39.2973 228.34L39.8068 229.067L39.1654 229.516L39.1913 229.553C39.3287 229.531 39.4962 229.536 39.694 229.569C39.8918 229.602 40.0987 229.685 40.3148 229.819C40.5308 229.953 40.7353 230.157 40.9282 230.433ZM40.1967 230.779C39.9953 230.492 39.7689 230.289 39.5177 230.17C39.265 230.05 39.014 230.002 38.7646 230.027C38.5138 230.049 38.2897 230.13 38.0924 230.268L37.4264 230.734C37.4849 230.739 37.5664 230.783 37.6706 230.866C37.7713 230.949 37.8805 231.05 37.9981 231.17C38.1122 231.289 38.2221 231.407 38.3278 231.523C38.43 231.638 38.5136 231.731 38.5785 231.802C38.7356 231.974 38.8995 232.123 39.0701 232.248C39.2373 232.373 39.4106 232.448 39.59 232.472C39.766 232.496 39.9465 232.443 40.1315 232.314C40.3844 232.137 40.5101 231.909 40.5086 231.632C40.5036 231.353 40.3997 231.069 40.1967 230.779Z" fill="#8F818C"/>
<path d="M34.2521 220.433C34.5244 220.901 34.6483 221.369 34.6236 221.836C34.599 222.304 34.4454 222.741 34.163 223.149C33.8805 223.557 33.4897 223.906 32.9907 224.196C32.483 224.491 31.9807 224.658 31.4839 224.697C30.9837 224.735 30.5263 224.65 30.1117 224.441C29.6937 224.231 29.3536 223.9 29.0914 223.449C28.8871 223.098 28.7682 222.743 28.7344 222.385C28.7007 222.028 28.7487 221.691 28.8784 221.374C29.0081 221.058 29.2166 220.787 29.5038 220.562L29.9501 221.331C29.7563 221.522 29.6302 221.769 29.5717 222.073C29.5097 222.376 29.5771 222.697 29.7738 223.035C29.9478 223.335 30.1784 223.552 30.4658 223.687C30.7497 223.821 31.0692 223.869 31.4244 223.83C31.7762 223.791 32.1408 223.662 32.5183 223.443C32.9046 223.219 33.2056 222.962 33.4214 222.674C33.6359 222.384 33.7574 222.081 33.786 221.766C33.8133 221.448 33.7386 221.138 33.5621 220.834C33.4461 220.634 33.3062 220.473 33.1422 220.351C32.9782 220.228 32.7983 220.149 32.6026 220.111C32.4068 220.074 32.204 220.085 31.994 220.143L31.5477 219.375C31.868 219.247 32.1962 219.2 32.5323 219.234C32.8649 219.267 33.182 219.383 33.4835 219.582C33.7816 219.78 34.0378 220.064 34.2521 220.433Z" fill="#8F818C"/>
<path d="M23.3755 212.805L24.0505 212.472L25.378 215.158L24.7031 215.491L23.3755 212.805ZM23.0743 215.322L22.6807 214.526L27.6211 212.084C27.846 211.973 27.9986 211.857 28.0789 211.736C28.1557 211.614 28.1877 211.492 28.1748 211.369C28.1586 211.246 28.1215 211.126 28.0637 211.009C28.0204 210.921 27.9803 210.851 27.9435 210.799C27.9044 210.749 27.8732 210.708 27.8498 210.678L28.4851 210.162C28.5321 210.206 28.5896 210.272 28.6576 210.358C28.7279 210.444 28.7998 210.561 28.8731 210.709C28.9843 210.934 29.0449 211.179 29.0549 211.443C29.0638 211.704 29.0043 211.955 28.8764 212.194C28.7473 212.432 28.5321 212.625 28.2306 212.774L23.0743 215.322Z" fill="#8F818C"/>
<path d="M16.9412 203.329L22.2947 199.006L22.2645 198.921L15.3834 198.929L15.0567 198.007L23.2685 198.102L23.5901 199.01L17.2679 204.252L16.9412 203.329Z" fill="#8F818C"/>
<path d="M19.952 188.065L14.3797 189.607L14.1427 188.751L19.715 187.208L19.952 188.065ZM13.3305 189.429C13.3767 189.596 13.3597 189.755 13.2795 189.908C13.1986 190.058 13.0784 190.155 12.9187 190.199C12.7591 190.243 12.6061 190.222 12.4596 190.135C12.3125 190.045 12.2158 189.917 12.1696 189.75C12.1234 189.583 12.1407 189.425 12.2216 189.275C12.3018 189.123 12.4217 189.024 12.5813 188.98C12.741 188.936 12.8943 188.959 13.0415 189.048C13.188 189.135 13.2843 189.262 13.3305 189.429Z" fill="#8F818C"/>
<path d="M13.3164 180.069L13.7047 180.802C13.5852 180.879 13.4744 180.979 13.3723 181.101C13.2672 181.221 13.1915 181.371 13.1453 181.55C13.0991 181.729 13.1032 181.945 13.1574 182.198C13.2317 182.544 13.3734 182.815 13.5824 183.011C13.7884 183.206 14.0129 183.277 14.2558 183.225C14.4717 183.179 14.6253 183.063 14.7167 182.88C14.8082 182.696 14.8597 182.428 14.8715 182.076L14.8974 181.193C14.9116 180.661 15.0184 180.244 15.2179 179.942C15.4149 179.641 15.711 179.447 16.106 179.363C16.4299 179.293 16.7394 179.324 17.0346 179.456C17.3293 179.585 17.5858 179.799 17.8041 180.099C18.0225 180.399 18.1788 180.768 18.2731 181.207C18.3969 181.784 18.3743 182.288 18.2051 182.719C18.036 183.151 17.7218 183.469 17.2625 183.673L16.8794 182.892C17.1668 182.749 17.3631 182.551 17.4683 182.3C17.573 182.047 17.5872 181.742 17.5108 181.386C17.4238 180.981 17.2689 180.678 17.0461 180.477C16.8203 180.274 16.5859 180.199 16.343 180.251C16.1467 180.293 15.9971 180.397 15.8941 180.563C15.7886 180.729 15.7334 180.962 15.7282 181.261L15.7097 182.25C15.6982 182.795 15.5897 183.216 15.3843 183.514C15.1758 183.81 14.8765 184 14.4864 184.084C14.1675 184.152 13.8661 184.124 13.5823 183.997C13.2979 183.868 13.0524 183.663 12.8456 183.381C12.6383 183.097 12.492 182.757 12.4067 182.359C12.2865 181.8 12.3149 181.334 12.4918 180.963C12.6681 180.589 12.943 180.291 13.3164 180.069Z" fill="#8F818C"/>
<path d="M13.5697 169.376L10.1798 169.814L10.0662 168.933L15.8005 168.193L15.9141 169.074L14.9435 169.199L14.9512 169.259C15.2597 169.356 15.5343 169.533 15.775 169.79C16.0132 170.048 16.1602 170.393 16.2161 170.826C16.2623 171.185 16.225 171.514 16.1042 171.813C15.9809 172.112 15.7702 172.362 15.4722 172.562C15.1716 172.763 14.7775 172.895 14.2897 172.958L10.646 173.428L10.5323 172.547L14.1163 172.084C14.5344 172.03 14.8528 171.87 15.0715 171.604C15.2899 171.336 15.3755 171.018 15.3283 170.653C15.3001 170.434 15.2153 170.218 15.0741 170.006C14.9326 169.791 14.7361 169.622 14.4848 169.498C14.2331 169.371 13.928 169.33 13.5697 169.376Z" fill="#8F818C"/>
<path d="M15.0085 159.031C15.024 159.397 14.9691 159.732 14.8439 160.036C14.7161 160.341 14.5243 160.586 14.2685 160.773C14.0102 160.959 13.693 161.061 13.3169 161.077C12.986 161.091 12.7149 161.037 12.5038 160.915C12.2902 160.794 12.1198 160.626 11.9927 160.413C11.8656 160.2 11.7677 159.963 11.6989 159.702C11.6274 159.439 11.5684 159.174 11.522 158.907C11.462 158.558 11.416 158.275 11.3842 158.058C11.3498 157.838 11.3016 157.68 11.2397 157.582C11.1777 157.482 11.0752 157.434 10.9323 157.44L10.9022 157.442C10.5311 157.458 10.2471 157.571 10.0501 157.783C9.85305 157.992 9.76317 158.301 9.78051 158.71C9.79848 159.134 9.90533 159.462 10.1011 159.695C10.2968 159.928 10.5021 160.089 10.7168 160.177L10.4517 161.033C10.0943 160.897 9.8125 160.708 9.6063 160.466C9.39749 160.221 9.2479 159.951 9.15752 159.656C9.06453 159.358 9.01187 159.064 8.99953 158.773C8.99166 158.588 9.00519 158.374 9.04011 158.131C9.07242 157.886 9.15148 157.648 9.2773 157.417C9.40302 157.183 9.59933 156.985 9.86623 156.823C10.1331 156.661 10.496 156.57 10.9548 156.55L14.7608 156.389L14.7984 157.277L14.0162 157.31L14.0181 157.355C14.146 157.41 14.2844 157.504 14.4332 157.639C14.5821 157.773 14.7116 157.955 14.8218 158.184C14.932 158.412 14.9942 158.695 15.0085 159.031ZM14.2054 158.929C14.1905 158.578 14.109 158.285 13.9609 158.05C13.8127 157.813 13.6269 157.638 13.4036 157.524C13.1802 157.408 12.9481 157.355 12.7074 157.365L11.8951 157.4C11.9418 157.435 11.9867 157.516 12.0297 157.643C12.0701 157.766 12.1076 157.911 12.1422 158.075C12.1742 158.237 12.2035 158.395 12.2302 158.55C12.2542 158.702 12.2745 158.825 12.2911 158.92C12.331 159.149 12.389 159.363 12.4652 159.561C12.5388 159.756 12.6446 159.912 12.7827 160.029C12.9182 160.144 13.0988 160.197 13.3244 160.187C13.6328 160.174 13.8611 160.05 14.0094 159.815C14.1551 159.578 14.2204 159.283 14.2054 158.929Z" fill="#8F818C"/>
<path d="M6.92602 148.308L14.6339 148.444L14.6182 149.333L6.91028 149.196L6.92602 148.308Z" fill="#8F818C"/>
<path d="M9.82886 133.393C9.44477 133.39 9.12801 133.534 8.8786 133.827C8.62918 134.119 8.47521 134.497 8.41667 134.96C8.37387 135.298 8.3912 135.601 8.46864 135.869C8.5464 136.135 8.67216 136.35 8.84593 136.516C9.02001 136.68 9.22904 136.777 9.47302 136.808C9.67718 136.834 9.85883 136.808 10.018 136.729C10.175 136.648 10.3118 136.536 10.4284 136.394C10.5425 136.252 10.6414 136.1 10.725 135.938C10.8062 135.776 10.8744 135.627 10.9297 135.49L11.237 134.74C11.3145 134.547 11.4147 134.334 11.5376 134.102C11.6609 133.867 11.8164 133.648 12.004 133.444C12.1895 133.237 12.4148 133.076 12.6798 132.96C12.9449 132.845 13.2567 132.809 13.6152 132.855C14.0284 132.907 14.3882 133.062 14.6944 133.321C15.001 133.578 15.2265 133.925 15.3709 134.363C15.5157 134.799 15.5509 135.31 15.4766 135.898C15.4074 136.445 15.2591 136.909 15.0316 137.287C14.8045 137.663 14.5184 137.946 14.1733 138.135C13.8284 138.321 13.445 138.403 13.023 138.38L13.1438 137.424C13.4358 137.436 13.687 137.369 13.8977 137.223C14.1061 137.075 14.2729 136.876 14.3981 136.626C14.521 136.374 14.6017 136.096 14.6401 135.792C14.6848 135.438 14.6677 135.114 14.5887 134.818C14.5073 134.522 14.3736 134.279 14.1877 134.088C13.9994 133.897 13.7658 133.784 13.4869 133.749C13.233 133.717 13.0174 133.762 12.8401 133.884C12.6628 134.005 12.5098 134.176 12.3809 134.395C12.252 134.614 12.1333 134.853 12.0246 135.112L11.6368 136.019C11.3894 136.595 11.0844 137.037 10.7217 137.345C10.3589 137.654 9.9199 137.775 9.40454 137.71C8.97632 137.656 8.61751 137.493 8.3281 137.221C8.03652 136.947 7.82721 136.601 7.70016 136.186C7.57095 135.767 7.53718 135.314 7.59886 134.826C7.66118 134.333 7.80495 133.906 8.03018 133.545C8.25292 133.184 8.53032 132.91 8.86238 132.724C9.19476 132.536 9.55468 132.46 9.94215 132.497L9.82886 133.393Z" fill="#8F818C"/>
<path d="M11.6297 122.135L12.3679 122.282L11.7797 125.22L11.0415 125.073L11.6297 122.135ZM9.85465 123.944L10.0291 123.073L15.4326 124.155C15.6787 124.204 15.8703 124.206 16.0077 124.159C16.143 124.109 16.2429 124.032 16.3074 123.927C16.37 123.819 16.414 123.702 16.4396 123.574C16.4589 123.478 16.4697 123.398 16.4722 123.334C16.4722 123.271 16.4722 123.219 16.4722 123.181L17.2902 123.16C17.3005 123.224 17.3061 123.311 17.3071 123.421C17.3105 123.532 17.296 123.668 17.2634 123.831C17.2142 124.077 17.113 124.307 16.9599 124.522C16.8073 124.735 16.6072 124.897 16.3596 125.009C16.1125 125.118 15.8241 125.14 15.4944 125.074L9.85465 123.944Z" fill="#8F818C"/>
<path d="M16.8112 114.897L13.5146 113.994L13.7492 113.138L19.3258 114.664L19.0912 115.521L18.1473 115.263L18.1314 115.321C18.3788 115.529 18.564 115.798 18.6869 116.128C18.8074 116.458 18.81 116.833 18.6947 117.255C18.5993 117.603 18.4383 117.892 18.2116 118.121C17.9825 118.35 17.6918 118.499 17.3396 118.57C16.985 118.639 16.5704 118.609 16.096 118.479L12.5526 117.509L12.7871 116.652L16.2725 117.606C16.6791 117.717 17.0346 117.693 17.3389 117.531C17.6439 117.368 17.8451 117.108 17.9425 116.752C18.0008 116.539 18.0056 116.308 17.957 116.057C17.9091 115.805 17.7931 115.573 17.609 115.361C17.4257 115.147 17.1597 114.992 16.8112 114.897Z" fill="#8F818C"/>
<path d="M22.2635 105.465C22.0948 105.916 21.8318 106.272 21.4747 106.532C21.1151 106.791 20.6897 106.94 20.1984 106.979C19.7047 107.017 19.1711 106.929 18.5975 106.714C18.0287 106.501 17.5715 106.219 17.2261 105.868C16.8806 105.516 16.6589 105.124 16.561 104.691C16.463 104.258 16.4993 103.813 16.6698 103.357C16.8016 103.004 16.9645 102.748 17.1585 102.587C17.351 102.424 17.5415 102.315 17.73 102.263C17.917 102.207 18.069 102.166 18.1859 102.14L18.2122 102.069L15.5467 101.073L15.8578 100.24L23.0787 102.94L22.7781 103.744L21.946 103.433L21.9091 103.532C21.985 103.63 22.0771 103.763 22.1853 103.932C22.2912 104.101 22.3638 104.311 22.4032 104.564C22.4401 104.817 22.3936 105.117 22.2635 105.465ZM21.5582 105.072C21.683 104.739 21.7015 104.424 21.6137 104.129C21.5235 103.832 21.3457 103.566 21.0802 103.33C20.8124 103.094 20.474 102.899 20.065 102.746C19.6607 102.595 19.285 102.521 18.9378 102.525C18.5883 102.529 18.2859 102.614 18.0305 102.781C17.7728 102.947 17.5807 103.199 17.4542 103.538C17.3223 103.89 17.303 104.218 17.3961 104.521C17.4878 104.82 17.6656 105.086 17.9296 105.319C18.1921 105.548 18.5137 105.734 18.8945 105.877C19.28 106.021 19.6522 106.093 20.0111 106.093C20.3685 106.09 20.6836 106.007 20.9563 105.844C21.2275 105.677 21.4282 105.42 21.5582 105.072Z" fill="#8F818C"/>
<path d="M25.8455 96.0478L20.5708 93.6799L20.9346 92.8694L26.2093 95.2373L25.8455 96.0478ZM19.8767 92.8731C19.8058 93.0311 19.6908 93.1432 19.5318 93.2093C19.3739 93.2732 19.2193 93.2712 19.0682 93.2034C18.9172 93.1356 18.813 93.0214 18.7557 92.8609C18.6995 92.6981 18.7069 92.5378 18.7778 92.3798C18.8487 92.2218 18.9631 92.1109 19.1211 92.047C19.2801 91.9809 19.4351 91.9817 19.5862 92.0495C19.7373 92.1174 19.8409 92.2327 19.8972 92.3954C19.9544 92.5559 19.9476 92.7152 19.8767 92.8731Z" fill="#8F818C"/>
<path d="M29.103 89.3352C28.8595 89.7969 28.5359 90.144 28.1324 90.3765C27.73 90.6069 27.2797 90.7155 26.7816 90.7024C26.2847 90.6871 25.7721 90.5401 25.2438 90.2614C24.7111 89.9804 24.2971 89.6385 24.0016 89.2358C23.7074 88.8309 23.5417 88.3973 23.5046 87.9352C23.4687 87.4708 23.5725 87.0077 23.8161 86.546C24.0596 86.0844 24.3826 85.7384 24.7849 85.508C25.1885 85.2755 25.6399 85.1675 26.139 85.1839C26.6394 85.1982 27.1559 85.3459 27.6886 85.6269C28.2168 85.9056 28.627 86.2468 28.919 86.6505C29.2122 87.0521 29.3768 87.485 29.4127 87.9494C29.4498 88.4116 29.3465 88.8735 29.103 89.3352ZM28.3972 88.9628C28.5822 88.6122 28.6445 88.2762 28.5841 87.9549C28.5238 87.6337 28.3758 87.3414 28.1402 87.0781C27.9046 86.8148 27.6159 86.5929 27.2741 86.4126C26.9323 86.2323 26.5851 86.1187 26.2325 86.0717C25.8799 86.0247 25.5529 86.0664 25.2515 86.1968C24.9501 86.3272 24.7069 86.5677 24.5219 86.9184C24.3369 87.2691 24.2757 87.6057 24.3382 87.9281C24.4008 88.2505 24.551 88.5439 24.7889 88.8084C25.0267 89.0729 25.3165 89.2953 25.6583 89.4757C26.0001 89.656 26.3462 89.769 26.6965 89.8148C27.0469 89.8606 27.3717 89.8178 27.6709 89.6862C27.9701 89.5547 28.2122 89.3135 28.3972 88.9628Z" fill="#8F818C"/>
<path d="M36.1097 67.4663L35.5621 68.2224C35.3122 68.1096 35.0645 68.0495 34.8189 68.042C34.5748 68.0325 34.3395 68.0666 34.1129 68.1441C33.8857 68.2182 33.6745 68.3301 33.4792 68.48C33.284 68.6298 33.1113 68.8084 32.9611 69.0157C32.6873 69.3937 32.5348 69.8054 32.5036 70.2506C32.4738 70.6939 32.5794 71.1406 32.8203 71.5909C33.0627 72.0391 33.4542 72.459 33.9948 72.8506C34.5354 73.2422 35.0565 73.4832 35.5579 73.5738C36.0608 73.6623 36.5182 73.6233 36.9301 73.4568C37.3434 73.2883 37.6869 73.015 37.9607 72.637C38.1109 72.4297 38.2267 72.2099 38.3081 71.9776C38.3896 71.7453 38.4311 71.5105 38.4327 71.273C38.4337 71.0321 38.3916 70.7971 38.3065 70.5681C38.2208 70.3356 38.0864 70.119 37.9033 69.9182L38.4509 69.1622C38.7288 69.4502 38.9393 69.7607 39.0823 70.0936C39.2254 70.4265 39.3044 70.7688 39.3193 71.1205C39.3322 71.4706 39.2835 71.818 39.1733 72.1627C39.0646 72.5054 38.8961 72.8342 38.668 73.1492C38.2823 73.6817 37.8093 74.0611 37.2488 74.2873C36.6884 74.5134 36.0823 74.5717 35.4304 74.4621C34.7786 74.3525 34.1234 74.0592 33.4649 73.5823C32.8064 73.1053 32.3235 72.5742 32.0161 71.989C31.7087 71.4038 31.575 70.8097 31.6152 70.2067C31.6553 69.6037 31.8682 69.0359 32.2539 68.5034C32.482 68.1884 32.7419 67.9258 33.0336 67.7156C33.3267 67.5034 33.6426 67.3496 33.9813 67.2541C34.318 67.1571 34.6669 67.1247 35.0278 67.1568C35.3867 67.1875 35.7473 67.2907 36.1097 67.4663Z" fill="#8F818C"/>
<path d="M47.1594 62.1383C46.8129 62.5287 46.416 62.7888 45.9687 62.9186C45.523 63.0464 45.0599 63.0447 44.5792 62.9133C44.1002 62.7801 43.6374 62.5153 43.1907 62.1188C42.7403 61.719 42.4196 61.2884 42.2285 60.8269C42.0392 60.3635 41.9815 59.903 42.0556 59.4453C42.1313 58.9857 42.3424 58.5607 42.6889 58.1703C43.0353 57.7799 43.4314 57.5208 43.8771 57.3929C44.3244 57.2632 44.7885 57.2657 45.2694 57.4006C45.7519 57.5336 46.2184 57.8001 46.6688 58.1999C47.1155 58.5963 47.4326 59.0254 47.6201 59.4871C47.8092 59.9469 47.8659 60.4066 47.7902 60.8662C47.7162 61.3239 47.5059 61.748 47.1594 62.1383ZM46.5626 61.6086C46.8258 61.3121 46.9663 61.0006 46.9842 60.6742C47.0021 60.3478 46.928 60.0287 46.7619 59.7169C46.5957 59.405 46.3682 59.1208 46.0791 58.8643C45.7901 58.6077 45.48 58.4147 45.1487 58.2851C44.8175 58.1555 44.49 58.1181 44.1662 58.173C43.8424 58.2278 43.5489 58.4035 43.2857 58.7001C43.0225 58.9966 42.8829 59.3089 42.8669 59.6369C42.8509 59.965 42.9269 60.2858 43.0949 60.5993C43.2629 60.9128 43.4914 61.1978 43.7804 61.4544C44.0694 61.7109 44.3786 61.9031 44.708 62.0311C45.0373 62.159 45.363 62.1947 45.6849 62.1382C46.0068 62.0817 46.2994 61.9052 46.5626 61.6086Z" fill="#8F818C"/>
<path d="M55.3438 53.3481C54.9929 53.6783 54.5997 53.8811 54.1642 53.9565C53.727 54.0302 53.2795 53.9757 52.8218 53.7931C52.3623 53.6086 51.9228 53.2934 51.5032 52.8474C51.0871 52.4051 50.8019 51.9499 50.6475 51.4818C50.4932 51.0137 50.4678 50.5638 50.5716 50.132C50.6753 49.7002 50.9044 49.3175 51.259 48.9839C51.5332 48.726 51.7928 48.5679 52.0377 48.5097C52.2828 48.448 52.5016 48.4351 52.694 48.4712C52.8865 48.5037 53.0409 48.5341 53.1572 48.5625L53.212 48.5109L51.2622 46.4382L51.9092 45.8295L57.1913 51.4445L56.5663 52.0326L55.9576 51.3856L55.8808 51.4578C55.9055 51.5793 55.929 51.7398 55.9513 51.9393C55.9719 52.137 55.9439 52.358 55.8672 52.6025C55.7888 52.8451 55.6143 53.0936 55.3438 53.3481ZM54.8847 52.6843C55.1443 52.4401 55.3 52.1662 55.3519 51.8624C55.402 51.5568 55.3602 51.2395 55.2265 50.9105C55.091 50.5797 54.8737 50.2553 54.5745 49.9373C54.2787 49.6229 53.9743 49.3908 53.6611 49.241C53.3462 49.0894 53.0372 49.032 52.7343 49.0689C52.4297 49.104 52.1458 49.2453 51.8826 49.4929C51.6084 49.7509 51.4461 50.0362 51.3958 50.3489C51.3455 50.658 51.3873 50.9753 51.5211 51.3007C51.6551 51.6226 51.8614 51.9316 52.1399 52.2277C52.4219 52.5275 52.7238 52.7568 53.0456 52.9158C53.3675 53.0712 53.6869 53.136 54.0036 53.1101C54.3205 53.0807 54.6142 52.9388 54.8847 52.6843Z" fill="#8F818C"/>
<path d="M64.7763 44.9155C64.3383 45.2597 63.8845 45.4599 63.4148 45.5162C62.9456 45.5689 62.488 45.4881 62.0419 45.2737C61.5962 45.0558 61.1905 44.714 60.8246 44.2483C60.4587 43.7826 60.221 43.3055 60.1117 42.817C60.0027 42.325 60.0229 41.8591 60.1721 41.4195C60.3218 40.9763 60.6018 40.5935 61.0123 40.271C61.2491 40.085 61.5139 39.9407 61.8068 39.8382C62.0996 39.7357 62.4106 39.6989 62.7395 39.7276C63.0669 39.7544 63.4008 39.8686 63.7412 40.0703C64.0816 40.272 64.4184 40.585 64.7518 41.0092L64.9843 41.3052L61.48 44.0589L61.0055 43.4551L63.7996 41.2596C63.598 41.0031 63.3669 40.8145 63.1061 40.6938C62.8473 40.5716 62.5785 40.526 62.2996 40.5568C62.0226 40.5862 61.7579 40.7001 61.5053 40.8985C61.2271 41.1171 61.0406 41.3754 60.9459 41.6732C60.8516 41.9675 60.8363 42.2668 60.8998 42.5711C60.9634 42.8754 61.0936 43.1529 61.2905 43.4035L61.6068 43.806C61.8766 44.1494 62.1644 44.3939 62.4704 44.5396C62.7768 44.6818 63.0854 44.7314 63.3962 44.6882C63.7054 44.6431 64.0011 44.5097 64.2833 44.288C64.4668 44.1438 64.6124 43.9879 64.7201 43.8203C64.8282 43.6492 64.8954 43.4687 64.9218 43.2789C64.9466 43.087 64.9266 42.8889 64.8617 42.6846L65.6854 42.3437C65.7942 42.6284 65.833 42.9235 65.8017 43.229C65.7688 43.5324 65.6671 43.8294 65.4964 44.1199C65.3242 44.4084 65.0842 44.6736 64.7763 44.9155Z" fill="#8F818C"/>
<path d="M78.9478 28.4837C78.7491 28.3059 78.5408 28.164 78.323 28.0582C78.106 27.9489 77.8814 27.8789 77.649 27.8482C77.4188 27.8162 77.1839 27.8261 76.9442 27.8779C76.7045 27.9297 76.4641 28.0254 76.223 28.1649C75.8278 28.3938 75.5275 28.704 75.3221 29.0955C75.1167 29.487 75.0335 29.9368 75.0725 30.4449C75.1115 30.9529 75.2982 31.4958 75.6327 32.0735C75.9671 32.6512 76.346 33.0828 76.7694 33.3683C77.1928 33.6538 77.6286 33.8031 78.0769 33.8161C78.5252 33.8291 78.9557 33.7162 79.3683 33.4772C79.7505 33.2559 80.04 32.9796 80.2367 32.6482C80.4343 32.3134 80.5278 31.949 80.5171 31.555C80.5074 31.1575 80.3844 30.7547 80.148 30.3464L80.4257 30.2552L78.4191 31.417L78.0041 30.7004L80.545 29.2292L80.96 29.9458C81.2781 30.4953 81.4374 31.041 81.438 31.5829C81.4408 32.1235 81.3017 32.6246 81.0207 33.0859C80.7407 33.5438 80.3357 33.9262 79.8058 34.233C79.2151 34.575 78.6156 34.7366 78.0073 34.7176C77.4012 34.6974 76.8249 34.5034 76.2784 34.1354C75.7341 33.7662 75.2582 33.2298 74.8508 32.5262C74.5453 31.9985 74.3412 31.4831 74.2384 30.98C74.1365 30.4735 74.1298 29.9961 74.2181 29.5476C74.3065 29.0992 74.4828 28.6926 74.7472 28.3279C75.0116 27.9631 75.3577 27.6569 75.7855 27.4092C76.1373 27.2055 76.496 27.0688 76.8617 26.9992C77.2282 26.9261 77.5869 26.9171 77.9377 26.972C78.2894 27.0236 78.6229 27.1364 78.9383 27.3104C79.2524 27.4823 79.5335 27.7125 79.7817 28.0009L78.9478 28.4837Z" fill="#8F818C"/>
<path d="M90.0057 28.5029L87.4876 23.2982L88.2873 22.9113L90.8054 28.116L90.0057 28.5029ZM87.4745 22.234C87.3186 22.3095 87.1586 22.3214 86.9942 22.2699C86.8322 22.2173 86.7151 22.1164 86.643 21.9673C86.5708 21.8182 86.5644 21.6638 86.6237 21.5041C86.6853 21.3433 86.794 21.2251 86.9499 21.1497C87.1058 21.0743 87.2647 21.0629 87.4268 21.1155C87.5911 21.167 87.7093 21.2674 87.7815 21.4164C87.8536 21.5655 87.8589 21.7205 87.7973 21.8813C87.738 22.041 87.6304 22.1586 87.4745 22.234Z" fill="#8F818C"/>
<path d="M94.5375 20.0389L94.8359 20.73L92.0851 21.9178L91.7866 21.2266L94.5375 20.0389ZM92.0393 19.6087L92.8549 19.2565L95.0392 24.3159C95.1387 24.5463 95.2467 24.7047 95.3633 24.791C95.4811 24.8741 95.6015 24.9123 95.7244 24.9057C95.8486 24.8958 95.9706 24.865 96.0904 24.8133C96.1802 24.7745 96.252 24.7381 96.3056 24.704C96.3582 24.6676 96.4003 24.6385 96.4319 24.6166L96.9141 25.2777C96.8677 25.3223 96.7995 25.3763 96.7094 25.4399C96.6203 25.5057 96.4997 25.5714 96.3476 25.6371C96.1172 25.7365 95.8701 25.7845 95.6061 25.7809C95.3445 25.7763 95.0973 25.704 94.8646 25.5639C94.6343 25.4229 94.4524 25.198 94.3191 24.8892L92.0393 19.6087Z" fill="#8F818C"/>
<path d="M106.202 21.563L104.035 14.1647L104.931 13.9023L105.896 17.1968L109.841 16.0414L108.876 12.7468L109.772 12.4844L111.939 19.8827L111.043 20.1451L110.074 16.8361L106.129 17.9916L107.098 21.3006L106.202 21.563Z" fill="#8F818C"/>
<path d="M123.778 14.5423L123.152 11.1822L124.025 11.0195L125.084 16.7036L124.21 16.8662L124.031 15.9041L123.972 15.9151C123.892 16.2286 123.731 16.5126 123.487 16.7673C123.243 17.0195 122.907 17.1856 122.477 17.2656C122.122 17.3317 121.792 17.3128 121.487 17.2089C121.181 17.1025 120.92 16.9061 120.703 16.6197C120.486 16.3308 120.332 15.9446 120.242 15.4611L119.57 11.8493L120.443 11.6867L121.105 15.2392C121.182 15.6537 121.359 15.9627 121.637 16.1662C121.917 16.3693 122.239 16.437 122.602 16.3695C122.819 16.329 123.029 16.2324 123.233 16.0796C123.439 15.9263 123.597 15.7207 123.708 15.4627C123.82 15.2044 123.844 14.8975 123.778 14.5423Z" fill="#8F818C"/>
<path d="M132.504 15.4173L131.775 7.74274L132.659 7.65869L132.929 10.4917L133.003 10.4845C133.059 10.3784 133.137 10.2425 133.237 10.0767C133.339 9.90813 133.493 9.75232 133.699 9.60926C133.907 9.46345 134.199 9.37275 134.573 9.33713C135.058 9.29107 135.497 9.37164 135.889 9.57883C136.282 9.78602 136.603 10.1021 136.853 10.5271C137.103 10.9521 137.256 11.4668 137.314 12.0714C137.371 12.681 137.318 13.2192 137.153 13.6861C136.988 14.1505 136.734 14.5225 136.39 14.8022C136.045 15.0795 135.633 15.2409 135.154 15.2865C134.784 15.3216 134.482 15.2885 134.248 15.1872C134.014 15.0835 133.829 14.9586 133.695 14.8126C133.559 14.6641 133.454 14.5405 133.379 14.4417L133.275 14.4517L133.359 15.3361L132.504 15.4173ZM133.1 12.4567C133.141 12.8914 133.242 13.2688 133.401 13.589C133.559 13.9066 133.77 14.1475 134.033 14.3116C134.295 14.4732 134.604 14.5371 134.958 14.5034C135.328 14.4683 135.627 14.3415 135.856 14.1232C136.087 13.9021 136.249 13.6194 136.343 13.2753C136.438 12.9284 136.467 12.5502 136.428 12.1405C136.389 11.7357 136.292 11.3769 136.136 11.064C135.983 10.7484 135.772 10.5075 135.504 10.3414C135.239 10.1725 134.919 10.1059 134.544 10.1415C134.184 10.1757 133.89 10.2956 133.663 10.5013C133.435 10.7044 133.274 10.9743 133.18 11.3109C133.086 11.6451 133.059 12.027 133.1 12.4567Z" fill="#8F818C"/>
</svg>
