<svg width="172" height="44" viewBox="0 0 172 44" fill="none" xmlns="http://www.w3.org/2000/svg">
<path d="M0.72 2.808C0.72 1.968 0.673333 1.13733 0.58 0.316C4.332 0.371999 6.74 0.399999 7.804 0.399999C8.88667 0.399999 11.304 0.371999 15.056 0.316C14.9253 1.45467 14.86 2.28533 14.86 2.808H14.664C12.592 2.28533 10.828 2.00533 9.372 1.968C9.27867 2.93867 9.232 4.44133 9.232 6.476V14.176C9.232 16.696 9.372 18.572 9.652 19.804V20H5.984V19.804C6.22667 18.5907 6.348 16.752 6.348 14.288V6.588C6.348 4.47867 6.30133 2.93867 6.208 1.968C4.78933 2.00533 3.02533 2.28533 0.916 2.808H0.72ZM32.0325 10.592L27.6085 10.564C25.7605 10.564 24.2952 10.5733 23.2125 10.592V14.148C23.2125 14.8387 23.2499 15.8467 23.3245 17.172C23.4179 18.4973 23.5205 19.3747 23.6325 19.804V20H19.9085V19.804C20.1885 18.7213 20.3285 16.8267 20.3285 14.12V6.28C20.3285 3.57333 20.1885 1.67867 19.9085 0.595999V0.399999H23.6325V0.595999C23.5205 1.02533 23.4179 1.912 23.3245 3.256C23.2499 4.58133 23.2125 5.58933 23.2125 6.28V8.828H32.0325V6.28C32.0325 5.58933 31.9859 4.58133 31.8925 3.256C31.8179 1.912 31.7245 1.02533 31.6125 0.595999V0.399999H35.3365V0.595999C35.0565 1.67867 34.9165 3.57333 34.9165 6.28V14.12C34.9165 16.8267 35.0565 18.7213 35.3365 19.804V20H31.6125V19.804C31.7245 19.3747 31.8179 18.4973 31.8925 17.172C31.9859 15.8467 32.0325 14.8387 32.0325 14.148V10.592ZM54.0294 2.416C52.928 2.136 51.5934 1.996 50.0254 1.996C48.476 1.996 47.4867 2.01467 47.0574 2.052C47.02 2.76133 47.0014 5.05733 47.0014 8.94L53.6654 8.8L52.8534 10.732H52.6574C51.388 10.5827 50.38 10.508 49.6334 10.508C48.8867 10.508 48.0094 10.536 47.0014 10.592C47.0014 15.128 47.0387 17.676 47.1134 18.236C47.5427 18.292 48.252 18.32 49.2414 18.32C52.172 18.32 54.3094 18.0213 55.6534 17.424H55.8494L55.3454 20H43.6134V19.804C43.912 18.6467 44.0614 16.752 44.0614 14.12V6.28C44.0614 3.648 43.912 1.75333 43.6134 0.595999V0.399999L54.9254 0.316L54.2254 2.416H54.0294ZM72.2532 2.304C71.8612 2.808 71.6652 3.424 71.6652 4.152C71.6652 4.86133 71.8426 5.44933 72.1972 5.916C72.5519 6.38267 73.0186 6.77467 73.5972 7.092C74.1759 7.39067 74.8106 7.68933 75.5012 7.988C76.1919 8.268 76.8826 8.58533 77.5732 8.94C78.2639 9.276 78.8986 9.67733 79.4772 10.144C80.0559 10.592 80.5226 11.1987 80.8772 11.964C81.2319 12.7107 81.4092 13.5787 81.4092 14.568C81.4092 16.4533 80.8026 17.8813 79.5892 18.852C78.3759 19.8227 76.7146 20.308 74.6052 20.308C72.4959 20.308 70.6012 19.7107 68.9212 18.516C68.9772 17.284 69.3132 16.2107 69.9292 15.296C70.6759 16.192 71.5812 16.9293 72.6452 17.508C73.7092 18.0867 74.7266 18.376 75.6972 18.376C76.6679 18.376 77.4986 18.1613 78.1892 17.732C78.6559 17.172 78.8892 16.4347 78.8892 15.52C78.8892 14.6053 78.6466 13.8587 78.1612 13.28C77.6946 12.7013 77.1066 12.2533 76.3972 11.936C75.7066 11.6 74.9412 11.236 74.1012 10.844C73.2799 10.4333 72.5146 10.0227 71.8052 9.612C71.1146 9.20133 70.5266 8.61333 70.0412 7.848C69.5746 7.08267 69.3412 6.18667 69.3412 5.16C69.3412 3.44267 69.9199 2.164 71.0772 1.324C72.2532 0.483999 73.7186 0.0639997 75.4732 0.0639997C77.2466 0.0639997 79.0572 0.493333 80.9052 1.352C80.6999 2.45333 80.3639 3.49867 79.8972 4.488C79.1319 3.72267 78.2452 3.09733 77.2372 2.612C76.2479 2.108 75.3052 1.856 74.4092 1.856C73.5132 1.856 72.7946 2.00533 72.2532 2.304ZM100.52 10.592L96.0959 10.564C94.2479 10.564 92.7825 10.5733 91.6999 10.592V14.148C91.6999 14.8387 91.7372 15.8467 91.8119 17.172C91.9052 18.4973 92.0079 19.3747 92.1199 19.804V20H88.3959V19.804C88.6759 18.7213 88.8159 16.8267 88.8159 14.12V6.28C88.8159 3.57333 88.6759 1.67867 88.3959 0.595999V0.399999H92.1199V0.595999C92.0079 1.02533 91.9052 1.912 91.8119 3.256C91.7372 4.58133 91.6999 5.58933 91.6999 6.28V8.828H100.52V6.28C100.52 5.58933 100.473 4.58133 100.38 3.256C100.305 1.912 100.212 1.02533 100.1 0.595999V0.399999H103.824V0.595999C103.544 1.67867 103.404 3.57333 103.404 6.28V14.12C103.404 16.8267 103.544 18.7213 103.824 19.804V20H100.1V19.804C100.212 19.3747 100.305 18.4973 100.38 17.172C100.473 15.8467 100.52 14.8387 100.52 14.148V10.592ZM115.405 6.56V14.12C115.405 14.8107 115.442 15.828 115.517 17.172C115.61 18.4973 115.713 19.3747 115.825 19.804V20H112.101V19.804C112.381 18.7213 112.521 16.7333 112.521 13.84V6.28C112.521 3.57333 112.381 1.67867 112.101 0.595999V0.399999H115.825V0.595999C115.713 1.02533 115.61 1.94933 115.517 3.368C115.442 4.78667 115.405 5.85067 115.405 6.56ZM124.102 20V19.804C124.382 18.7213 124.522 16.8267 124.522 14.12V6.28C124.522 3.57333 124.382 1.67867 124.102 0.595999V0.399999H127.826V0.595999C127.714 1.044 127.612 1.94933 127.518 3.312C127.444 4.656 127.406 5.67333 127.406 6.364V14.232C127.406 15.464 127.462 16.7987 127.574 18.236C127.985 18.292 128.732 18.32 129.814 18.32C132.67 18.32 134.761 18.0213 136.086 17.424H136.282L135.778 20H124.102ZM140.999 20V19.804C141.279 18.7213 141.419 16.8267 141.419 14.12V6.28C141.419 3.57333 141.279 1.67867 140.999 0.595999V0.399999H144.723V0.595999C144.611 1.044 144.508 1.94933 144.415 3.312C144.34 4.656 144.303 5.67333 144.303 6.364V14.232C144.303 15.464 144.359 16.7987 144.471 18.236C144.881 18.292 145.628 18.32 146.711 18.32C149.567 18.32 151.657 18.0213 152.983 17.424H153.179L152.675 20H140.999ZM165.124 13.168C164.378 13.1493 163.323 13.14 161.96 13.14C160.598 13.14 159.562 13.1493 158.852 13.168C158.33 15.2587 158.003 16.6493 157.872 17.34C157.76 18.012 157.704 18.74 157.704 19.524V20H153.896V19.72C154.736 19.0667 155.856 16.4813 157.256 11.964C158.675 7.428 159.59 4.46 160 3.06C160.43 1.66 160.663 0.764 160.7 0.371999L163.976 0.0359983C163.976 0.689332 164.564 2.73333 165.74 6.168C166.916 9.584 167.859 12.2253 168.568 14.092C169.296 15.9587 169.856 17.256 170.248 17.984C170.64 18.712 171.079 19.2907 171.564 19.72V20H166.86V19.524C166.86 18.852 166.767 18.2267 166.58 17.648C166.412 17.0693 166.3 16.696 166.244 16.528L165.124 13.168ZM161.876 2.472C161.503 3.46133 160.607 6.49467 159.188 11.572H164.648C164.312 10.5453 163.818 8.93067 163.164 6.728C162.511 4.52533 162.082 3.10667 161.876 2.472ZM9.656 37.624L7.128 37.608C6.072 37.608 5.23467 37.6133 4.616 37.624V39.656C4.616 40.0507 4.63733 40.6267 4.68 41.384C4.73333 42.1413 4.792 42.6427 4.856 42.888V43H2.728V42.888C2.888 42.2693 2.968 41.1867 2.968 39.64V35.16C2.968 33.6133 2.888 32.5307 2.728 31.912V31.8H4.856V31.912C4.792 32.1573 4.73333 32.664 4.68 33.432C4.63733 34.1893 4.616 34.7653 4.616 35.16V36.616H9.656V35.16C9.656 34.7653 9.62933 34.1893 9.576 33.432C9.53333 32.664 9.48 32.1573 9.416 31.912V31.8H11.544V31.912C11.384 32.5307 11.304 33.6133 11.304 35.16V39.64C11.304 41.1867 11.384 42.2693 11.544 42.888V43H9.416V42.888C9.48 42.6427 9.53333 42.1413 9.576 41.384C9.62933 40.6267 9.656 40.0507 9.656 39.656V37.624ZM20.6896 43.192C19.1536 43.192 17.927 42.6533 17.0096 41.576C16.103 40.4987 15.6496 39.1387 15.6496 37.496C15.6496 35.8427 16.167 34.4453 17.2016 33.304C18.2363 32.152 19.5696 31.576 21.2016 31.576C22.2576 31.576 23.1643 31.8373 23.9216 32.36C25.3936 33.3733 26.1296 34.9573 26.1296 37.112C26.1296 38.872 25.607 40.328 24.5616 41.48C23.527 42.6213 22.2363 43.192 20.6896 43.192ZM24.3216 37.544C24.3216 36.1787 24.0656 35.064 23.5536 34.2C22.9883 33.2293 22.039 32.744 20.7056 32.744C19.767 32.744 19.031 32.9093 18.4976 33.24C18.1883 33.624 17.9376 34.168 17.7456 34.872C17.5536 35.5653 17.4576 36.3493 17.4576 37.224C17.4576 38.088 17.5696 38.872 17.7936 39.576C18.0176 40.2693 18.4176 40.856 18.9936 41.336C19.5803 41.816 20.295 42.056 21.1376 42.056C21.991 42.056 22.695 41.88 23.2496 41.528C23.9643 40.728 24.3216 39.4 24.3216 37.544ZM28.3525 33.176C28.3525 32.696 28.3258 32.2213 28.2725 31.752C30.4165 31.784 31.7925 31.8 32.4005 31.8C33.0192 31.8 34.4005 31.784 36.5445 31.752C36.4698 32.4027 36.4325 32.8773 36.4325 33.176H36.3205C35.1365 32.8773 34.1285 32.7173 33.2965 32.696C33.2432 33.2507 33.2165 34.1093 33.2165 35.272V39.672C33.2165 41.112 33.2965 42.184 33.4565 42.888V43H31.3605V42.888C31.4992 42.1947 31.5685 41.144 31.5685 39.736V35.336C31.5685 34.1307 31.5418 33.2507 31.4885 32.696C30.6778 32.7173 29.6698 32.8773 28.4645 33.176H28.3525ZM45.5894 32.952C44.96 32.792 44.1974 32.712 43.3014 32.712C42.416 32.712 41.8507 32.7227 41.6054 32.744C41.584 33.1493 41.5734 34.4613 41.5734 36.68L45.3814 36.6L44.9174 37.704H44.8054C44.08 37.6187 43.504 37.576 43.0774 37.576C42.6507 37.576 42.1494 37.592 41.5734 37.624C41.5734 40.216 41.5947 41.672 41.6374 41.992C41.8827 42.024 42.288 42.04 42.8534 42.04C44.528 42.04 45.7494 41.8693 46.5174 41.528H46.6294L46.3414 43H39.6374V42.888C39.808 42.2267 39.8934 41.144 39.8934 39.64V35.16C39.8934 33.656 39.808 32.5733 39.6374 31.912V31.8L46.1014 31.752L45.7014 32.952H45.5894ZM50.4093 43V42.888C50.5693 42.2693 50.6493 41.1867 50.6493 39.64V35.16C50.6493 33.6133 50.5693 32.5307 50.4093 31.912V31.8H52.5373V31.912C52.4733 32.168 52.4146 32.6853 52.3613 33.464C52.3186 34.232 52.2973 34.8133 52.2973 35.208V39.704C52.2973 40.408 52.3293 41.1707 52.3933 41.992C52.6279 42.024 53.0546 42.04 53.6733 42.04C55.3053 42.04 56.4999 41.8693 57.2573 41.528H57.3693L57.0813 43H50.4093ZM61.4243 32.888C61.2003 33.176 61.0883 33.528 61.0883 33.944C61.0883 34.3493 61.1896 34.6853 61.3923 34.952C61.5949 35.2187 61.8616 35.4427 62.1923 35.624C62.5229 35.7947 62.8856 35.9653 63.2803 36.136C63.6749 36.296 64.0696 36.4773 64.4643 36.68C64.8589 36.872 65.2216 37.1013 65.5523 37.368C65.8829 37.624 66.1496 37.9707 66.3523 38.408C66.5549 38.8347 66.6562 39.3307 66.6562 39.896C66.6562 40.9733 66.3096 41.7893 65.6163 42.344C64.9229 42.8987 63.9736 43.176 62.7682 43.176C61.5629 43.176 60.4803 42.8347 59.5203 42.152C59.5523 41.448 59.7443 40.8347 60.0963 40.312C60.5229 40.824 61.0403 41.2453 61.6483 41.576C62.2563 41.9067 62.8376 42.072 63.3923 42.072C63.9469 42.072 64.4216 41.9493 64.8163 41.704C65.0829 41.384 65.2163 40.9627 65.2163 40.44C65.2163 39.9173 65.0776 39.4907 64.8003 39.16C64.5336 38.8293 64.1976 38.5733 63.7923 38.392C63.3976 38.2 62.9603 37.992 62.4803 37.768C62.0109 37.5333 61.5736 37.2987 61.1683 37.064C60.7736 36.8293 60.4376 36.4933 60.1603 36.056C59.8936 35.6187 59.7603 35.1067 59.7603 34.52C59.7603 33.5387 60.0909 32.808 60.7523 32.328C61.4243 31.848 62.2616 31.608 63.2643 31.608C64.2776 31.608 65.3123 31.8533 66.3683 32.344C66.2509 32.9733 66.0589 33.5707 65.7923 34.136C65.3549 33.6987 64.8483 33.3413 64.2723 33.064C63.7069 32.776 63.1683 32.632 62.6562 32.632C62.1443 32.632 61.7336 32.7173 61.4243 32.888ZM85.0904 36.568H84.0184C84.061 37.0373 84.0824 37.464 84.0824 37.848C84.0824 38.8933 83.9117 39.7893 83.5704 40.536C84.5517 41.208 85.6504 41.8587 86.8664 42.488L85.8104 43.912C84.9997 43.2507 84.4184 42.7973 84.0664 42.552L82.8984 41.64C82.0237 42.6747 80.7917 43.192 79.2024 43.192C77.8264 43.192 76.7917 42.8507 76.0984 42.168C75.4157 41.4853 75.0744 40.6 75.0744 39.512C75.0744 38.9893 75.1544 38.52 75.3144 38.104C75.4744 37.688 75.677 37.368 75.9224 37.144C76.3597 36.7493 76.7864 36.4933 77.2024 36.376C76.509 35.4693 76.1624 34.6107 76.1624 33.8C76.1624 32.3493 77.117 31.624 79.0264 31.624C80.0717 31.624 81.0584 31.7787 81.9864 32.088C81.9117 32.76 81.7144 33.304 81.3944 33.72C80.445 32.92 79.6184 32.52 78.9144 32.52C78.445 32.52 78.077 32.6533 77.8104 32.92C77.5544 33.176 77.4264 33.5547 77.4264 34.056C77.4264 35.0373 78.429 36.3867 80.4344 38.104C81.1917 38.7653 81.9757 39.3893 82.7864 39.976C82.893 39.4747 82.9464 38.936 82.9464 38.36C82.9464 37.7733 82.845 37.16 82.6424 36.52L80.9464 36.552L81.5864 35.624C82.397 35.6987 82.989 35.736 83.3624 35.736L85.5224 35.64L85.0904 36.568ZM82.2744 41.128C80.109 39.3573 78.573 37.9547 77.6664 36.92C76.9624 37.4 76.6104 38.1573 76.6104 39.192C76.6104 40.0133 76.861 40.712 77.3624 41.288C77.8637 41.864 78.621 42.152 79.6344 42.152C80.861 42.152 81.741 41.8107 82.2744 41.128ZM96.3871 31.832L98.7711 31.8C101.331 31.8 102.611 32.7227 102.611 34.568C102.611 35.464 102.312 36.216 101.715 36.824C101.128 37.4213 100.344 37.7787 99.3631 37.896L101.203 40.216C101.971 41.1867 102.547 41.848 102.931 42.2C103.315 42.552 103.646 42.7653 103.923 42.84V43H101.299C101.096 42.6693 100.776 42.1947 100.339 41.576L97.7471 37.944L97.2831 37.912V40.424C97.2831 41.544 97.3631 42.3653 97.5231 42.888V43H95.3311V42.888C95.5338 42.344 95.6351 41.5813 95.6351 40.6V34.392C95.6351 33.2827 95.5551 32.456 95.3951 31.912V31.8C95.3951 31.8 95.7258 31.8107 96.3871 31.832ZM98.5631 32.616C98.0511 32.616 97.6405 32.6373 97.3311 32.68C97.2991 32.9147 97.2831 34.3973 97.2831 37.128C97.6671 37.1707 98.0351 37.192 98.3871 37.192C99.2831 37.192 99.9125 36.9893 100.275 36.584C100.648 36.168 100.835 35.56 100.835 34.76C100.835 33.9493 100.664 33.3893 100.323 33.08C99.9818 32.7707 99.3951 32.616 98.5631 32.616ZM113.133 32.952C112.504 32.792 111.741 32.712 110.845 32.712C109.96 32.712 109.394 32.7227 109.149 32.744C109.128 33.1493 109.117 34.4613 109.117 36.68L112.925 36.6L112.461 37.704H112.349C111.624 37.6187 111.048 37.576 110.621 37.576C110.194 37.576 109.693 37.592 109.117 37.624C109.117 40.216 109.138 41.672 109.181 41.992C109.426 42.024 109.832 42.04 110.397 42.04C112.072 42.04 113.293 41.8693 114.061 41.528H114.173L113.885 43H107.181V42.888C107.352 42.2267 107.437 41.144 107.437 39.64V35.16C107.437 33.656 107.352 32.5733 107.181 31.912V31.8L113.645 31.752L113.245 32.952H113.133ZM118.993 32.888C118.769 33.176 118.657 33.528 118.657 33.944C118.657 34.3493 118.758 34.6853 118.961 34.952C119.164 35.2187 119.43 35.4427 119.761 35.624C120.092 35.7947 120.454 35.9653 120.849 36.136C121.244 36.296 121.638 36.4773 122.033 36.68C122.428 36.872 122.79 37.1013 123.121 37.368C123.452 37.624 123.718 37.9707 123.921 38.408C124.124 38.8347 124.225 39.3307 124.225 39.896C124.225 40.9733 123.878 41.7893 123.185 42.344C122.492 42.8987 121.542 43.176 120.337 43.176C119.132 43.176 118.049 42.8347 117.089 42.152C117.121 41.448 117.313 40.8347 117.665 40.312C118.092 40.824 118.609 41.2453 119.217 41.576C119.825 41.9067 120.406 42.072 120.961 42.072C121.516 42.072 121.99 41.9493 122.385 41.704C122.652 41.384 122.785 40.9627 122.785 40.44C122.785 39.9173 122.646 39.4907 122.369 39.16C122.102 38.8293 121.766 38.5733 121.361 38.392C120.966 38.2 120.529 37.992 120.049 37.768C119.58 37.5333 119.142 37.2987 118.737 37.064C118.342 36.8293 118.006 36.4933 117.729 36.056C117.462 35.6187 117.329 35.1067 117.329 34.52C117.329 33.5387 117.66 32.808 118.321 32.328C118.993 31.848 119.83 31.608 120.833 31.608C121.846 31.608 122.881 31.8533 123.937 32.344C123.82 32.9733 123.628 33.5707 123.361 34.136C122.924 33.6987 122.417 33.3413 121.841 33.064C121.276 32.776 120.737 32.632 120.225 32.632C119.713 32.632 119.302 32.7173 118.993 32.888ZM132.633 43.192C131.097 43.192 129.871 42.6533 128.953 41.576C128.047 40.4987 127.593 39.1387 127.593 37.496C127.593 35.8427 128.111 34.4453 129.145 33.304C130.18 32.152 131.513 31.576 133.145 31.576C134.201 31.576 135.108 31.8373 135.865 32.36C137.337 33.3733 138.073 34.9573 138.073 37.112C138.073 38.872 137.551 40.328 136.505 41.48C135.471 42.6213 134.18 43.192 132.633 43.192ZM136.265 37.544C136.265 36.1787 136.009 35.064 135.497 34.2C134.932 33.2293 133.983 32.744 132.649 32.744C131.711 32.744 130.975 32.9093 130.441 33.24C130.132 33.624 129.881 34.168 129.689 34.872C129.497 35.5653 129.401 36.3493 129.401 37.224C129.401 38.088 129.513 38.872 129.737 39.576C129.961 40.2693 130.361 40.856 130.937 41.336C131.524 41.816 132.239 42.056 133.081 42.056C133.935 42.056 134.639 41.88 135.193 41.528C135.908 40.728 136.265 39.4 136.265 37.544ZM143.24 31.832L145.624 31.8C148.184 31.8 149.464 32.7227 149.464 34.568C149.464 35.464 149.166 36.216 148.568 36.824C147.982 37.4213 147.198 37.7787 146.216 37.896L148.056 40.216C148.824 41.1867 149.4 41.848 149.784 42.2C150.168 42.552 150.499 42.7653 150.776 42.84V43H148.152C147.95 42.6693 147.63 42.1947 147.192 41.576L144.6 37.944L144.136 37.912V40.424C144.136 41.544 144.216 42.3653 144.376 42.888V43H142.184V42.888C142.387 42.344 142.488 41.5813 142.488 40.6V34.392C142.488 33.2827 142.408 32.456 142.248 31.912V31.8C142.248 31.8 142.579 31.8107 143.24 31.832ZM145.416 32.616C144.904 32.616 144.494 32.6373 144.184 32.68C144.152 32.9147 144.136 34.3973 144.136 37.128C144.52 37.1707 144.888 37.192 145.24 37.192C146.136 37.192 146.766 36.9893 147.128 36.584C147.502 36.168 147.688 35.56 147.688 34.76C147.688 33.9493 147.518 33.3893 147.176 33.08C146.835 32.7707 146.248 32.616 145.416 32.616ZM152.146 33.176C152.146 32.696 152.12 32.2213 152.066 31.752C154.21 31.784 155.586 31.8 156.194 31.8C156.813 31.8 158.194 31.784 160.338 31.752C160.264 32.4027 160.226 32.8773 160.226 33.176H160.114C158.93 32.8773 157.922 32.7173 157.09 32.696C157.037 33.2507 157.01 34.1093 157.01 35.272V39.672C157.01 41.112 157.09 42.184 157.25 42.888V43H155.154V42.888C155.293 42.1947 155.362 41.144 155.362 39.736V35.336C155.362 34.1307 155.336 33.2507 155.282 32.696C154.472 32.7173 153.464 32.8773 152.258 33.176H152.146ZM164.471 32.888C164.247 33.176 164.135 33.528 164.135 33.944C164.135 34.3493 164.236 34.6853 164.439 34.952C164.642 35.2187 164.908 35.4427 165.239 35.624C165.57 35.7947 165.932 35.9653 166.327 36.136C166.722 36.296 167.116 36.4773 167.511 36.68C167.906 36.872 168.268 37.1013 168.599 37.368C168.93 37.624 169.196 37.9707 169.399 38.408C169.602 38.8347 169.703 39.3307 169.703 39.896C169.703 40.9733 169.356 41.7893 168.663 42.344C167.97 42.8987 167.02 43.176 165.815 43.176C164.61 43.176 163.527 42.8347 162.567 42.152C162.599 41.448 162.791 40.8347 163.143 40.312C163.57 40.824 164.087 41.2453 164.695 41.576C165.303 41.9067 165.884 42.072 166.439 42.072C166.994 42.072 167.468 41.9493 167.863 41.704C168.13 41.384 168.263 40.9627 168.263 40.44C168.263 39.9173 168.124 39.4907 167.847 39.16C167.58 38.8293 167.244 38.5733 166.839 38.392C166.444 38.2 166.007 37.992 165.527 37.768C165.058 37.5333 164.62 37.2987 164.215 37.064C163.82 36.8293 163.484 36.4933 163.207 36.056C162.94 35.6187 162.807 35.1067 162.807 34.52C162.807 33.5387 163.138 32.808 163.799 32.328C164.471 31.848 165.308 31.608 166.311 31.608C167.324 31.608 168.359 31.8533 169.415 32.344C169.298 32.9733 169.106 33.5707 168.839 34.136C168.402 33.6987 167.895 33.3413 167.319 33.064C166.754 32.776 166.215 32.632 165.703 32.632C165.191 32.632 164.78 32.7173 164.471 32.888Z" fill="white"/>
</svg>
