<svg width="216" height="160" viewBox="0 0 216 160" fill="none" xmlns="http://www.w3.org/2000/svg">
<rect width="216" height="160" fill="white"/>
<path d="M19.3273 39.3659C22.359 38.5789 25.3615 38.1853 28.335 38.1853C31.9205 38.1853 34.8648 38.885 37.1677 40.2842C39.4707 41.6835 40.6222 44.0156 40.6222 47.2805C40.6222 50.7786 39.6747 53.5626 37.7799 55.6323C35.9142 57.702 33.2469 58.7369 29.7779 58.7369C28.1455 58.7369 26.411 58.5037 24.5745 58.0373V68.9689H19.3273V39.3659ZM24.5745 53.0087C26.5859 53.65 28.3204 53.9707 29.7779 53.9707C31.7019 53.9707 33.1157 53.4022 34.0194 52.2653C34.9231 51.1284 35.375 49.4668 35.375 47.2805C35.375 45.7355 34.7774 44.6277 33.5822 43.9573C32.4161 43.2576 30.8128 42.9078 28.7722 42.9078C27.5479 42.9078 26.1486 43.0244 24.5745 43.2576V53.0087ZM42.3555 57.6C42.3555 55.1804 42.8365 53.0816 43.7985 51.3033C44.7605 49.5251 46.0723 48.1696 47.7339 47.2368C49.3955 46.3039 51.232 45.8375 53.2435 45.8375C55.0217 45.8375 56.6104 46.3331 58.0097 47.3242C59.4089 48.2862 60.5021 49.598 61.2892 51.2596C62.0763 52.8921 62.4698 54.6849 62.4698 56.638C62.4698 57.3085 62.3969 58.1101 62.2512 59.043H47.6902C47.8942 60.8795 48.4918 62.2787 49.483 63.2407C50.5033 64.1736 51.7568 64.64 53.2435 64.64C54.2346 64.64 55.1966 64.3922 56.1294 63.8966C57.0914 63.4011 58.4032 62.512 60.0648 61.2293L63.3006 64.9898C61.3766 66.5057 59.6567 67.628 58.1409 68.3568C56.625 69.0855 54.9925 69.4499 53.2435 69.4499C51.2029 69.4499 49.3518 68.9689 47.6902 68.0069C46.0577 67.0741 44.7605 65.7186 43.7985 63.9404C42.8365 62.1621 42.3555 60.0487 42.3555 57.6ZM56.9165 54.6703C56.7707 53.5042 56.3626 52.5423 55.6922 51.7843C55.0217 51.0264 54.2054 50.6474 53.2435 50.6474C51.99 50.6474 50.8968 50.9973 49.964 51.6969C49.0311 52.3674 48.3752 53.3585 47.9963 54.6703H56.9165ZM66.342 68.9689V46.231H71.5892L72.0265 49.598C72.8719 48.432 73.9213 47.4991 75.1748 46.7995C76.4283 46.0999 77.7692 45.75 79.1977 45.75C80.6844 45.75 82.1273 46.1436 83.5266 46.9307L80.7281 52.484C79.7952 51.7552 78.7458 51.3908 77.5798 51.3908C76.5595 51.3908 75.5829 51.6677 74.6501 52.2216C73.7464 52.7755 73.003 53.5334 72.42 54.4954C71.8661 55.4574 71.5892 56.4922 71.5892 57.6V68.9689H66.342ZM90.7907 61.0107C91.1114 62.1476 91.6361 63.0221 92.3649 63.6343C93.0936 64.2464 94.216 64.5525 95.7318 64.5525C97.0728 64.5525 97.991 64.3339 98.4866 63.8966C99.0113 63.4302 99.2737 62.818 99.2737 62.0601C99.2737 61.4188 99.1133 60.9232 98.7927 60.5734C98.472 60.1944 97.991 59.9175 97.3497 59.7426C96.7084 59.5677 95.7464 59.3636 94.4637 59.1304C92.3357 58.8389 90.5138 58.1393 88.9979 57.0315C87.482 55.9238 86.7241 54.4225 86.7241 52.5277C86.7241 50.1373 87.5695 48.432 89.2603 47.4117C90.951 46.3622 92.9916 45.8375 95.382 45.8375C97.1019 45.8375 98.7344 46.2748 100.279 47.1493C101.824 48.0238 103.078 49.1607 104.04 50.56L99.6672 53.271C99.1425 52.4548 98.4866 51.7989 97.6995 51.3033C96.9124 50.8078 96.1691 50.5454 95.4695 50.5163C94.3617 50.458 93.5309 50.56 92.977 50.8223C92.4232 51.0556 92.0879 51.5074 91.9713 52.1779C91.8256 53.3148 92.9187 54.0581 95.2508 54.4079C98.1951 54.8452 100.469 55.6323 102.072 56.7692C103.705 57.8769 104.521 59.626 104.521 62.0164C104.521 63.2116 104.215 64.3776 103.603 65.5145C103.02 66.6223 102.058 67.5405 100.717 68.2693C99.4049 68.9981 97.7287 69.3625 95.6881 69.3625C92.6855 69.3625 90.4117 68.6483 88.8667 67.2199C87.3217 65.8206 86.2723 64.1881 85.7184 62.3225L90.7907 61.0107ZM117.935 64.64C119.596 64.64 120.937 64.057 121.958 62.8909C123.007 61.6957 123.532 59.9758 123.532 57.7312C123.532 55.4865 123.007 53.7812 121.958 52.6151C120.937 51.4199 119.596 50.8223 117.935 50.8223C116.302 50.8223 114.961 51.4199 113.912 52.6151C112.892 53.7812 112.381 55.4865 112.381 57.7312C112.381 59.9758 112.892 61.6957 113.912 62.8909C114.961 64.057 116.302 64.64 117.935 64.64ZM117.935 69.4499C115.952 69.4499 114.131 68.9835 112.469 68.0507C110.836 67.1178 109.539 65.7769 108.577 64.0278C107.615 62.2496 107.134 60.1507 107.134 57.7312C107.134 55.3116 107.615 53.2273 108.577 51.4782C109.539 49.7 110.836 48.3445 112.469 47.4117C114.131 46.4788 115.952 46.0124 117.935 46.0124C119.946 46.0124 121.768 46.4788 123.401 47.4117C125.062 48.3445 126.374 49.7 127.336 51.4782C128.298 53.2273 128.779 55.3116 128.779 57.7312C128.779 60.1507 128.298 62.2496 127.336 64.0278C126.374 65.7769 125.062 67.1178 123.401 68.0507C121.768 68.9835 119.946 69.4499 117.935 69.4499ZM131.847 68.9689V46.231H137.094L137.619 49.7729C138.493 48.4319 139.528 47.4117 140.723 46.712C141.918 45.9833 143.245 45.6189 144.702 45.6189C145.344 45.6189 145.912 45.6772 146.408 45.7938C148.565 46.1727 150.197 47.4117 151.305 49.5105C152.413 51.6094 152.967 54.0727 152.967 56.9004V68.9689H147.719V58.2122C147.719 56.638 147.472 55.2242 146.976 53.9707C146.481 52.7172 145.65 51.8864 144.484 51.4782C144.046 51.3325 143.609 51.2596 143.172 51.2596C142.268 51.2596 141.335 51.4928 140.373 51.9592C139.441 52.4257 138.653 53.1107 138.012 54.0144C137.4 54.8889 137.094 55.9384 137.094 57.1627V68.9689H131.847ZM158.083 47.0181C161.26 46.0561 164.001 45.5751 166.304 45.5751C170.035 45.5751 172.513 46.5809 173.737 48.5923C174.962 50.6037 175.574 52.9795 175.574 55.7197C175.574 58.2267 175.705 60.4714 175.967 62.4536C176.259 64.4359 176.769 66.2141 177.498 67.7883L172.775 69.7997C172.163 68.8961 171.711 67.9195 171.42 66.87C170.574 67.5697 169.714 68.109 168.84 68.4879C167.965 68.8669 166.989 69.1147 165.91 69.2313C165.415 69.2896 164.729 69.3187 163.855 69.3187C160.882 69.3187 158.826 68.692 157.689 67.4385C156.582 66.185 156.028 64.742 156.028 63.1095C156.028 60.2819 157.369 58.183 160.051 56.8129C162.733 55.4428 166.129 54.4079 170.239 53.7083C170.122 52.5714 169.773 51.6969 169.19 51.0847C168.636 50.4725 167.688 50.1664 166.347 50.1664C164.773 50.1664 162.572 50.6329 159.745 51.5657L158.083 47.0181ZM161.275 63.1095C161.275 64.1881 162.193 64.7274 164.03 64.7274C164.555 64.7274 165.167 64.6837 165.866 64.5963C166.77 64.4797 167.645 64.2464 168.49 63.8966C169.335 63.5177 170.064 63.095 170.676 62.6286C170.56 61.8998 170.472 60.8358 170.414 59.4365C170.414 58.8826 170.399 58.4599 170.37 58.1684C167.717 58.6348 165.531 59.3053 163.811 60.1799C162.12 61.0252 161.275 62.0018 161.275 63.1095ZM192.846 68.6191C191.447 68.9981 190.077 69.1876 188.736 69.1876C186.404 69.1876 184.524 68.5462 183.095 67.2636C181.696 66.0101 180.997 64.1881 180.997 61.7977V38.3602H186.244V61.7977C186.244 62.7014 186.433 63.3719 186.812 63.8092C187.191 64.2173 187.818 64.4214 188.692 64.4214C189.509 64.4214 190.456 64.2756 191.535 63.9841L192.846 68.6191ZM70.4962 119.737C70.9918 121.486 71.8372 122.885 73.0324 123.935C74.2276 124.955 76.0204 125.465 78.4107 125.465C82.5211 125.465 84.5762 123.949 84.5762 120.917C84.5762 119.781 84.2847 118.891 83.7017 118.25C83.1187 117.609 82.3024 117.128 81.253 116.807C80.2035 116.487 78.7314 116.166 76.8366 115.845C74.4462 115.466 72.187 114.635 70.0589 113.353C67.9601 112.07 66.9106 110.117 66.9106 107.493C66.9106 106.91 66.9398 106.459 66.9981 106.138C67.4353 103.281 68.8346 101.357 71.1958 100.366C73.5571 99.3748 76.0787 98.923 78.7606 99.0104C80.8303 99.0979 82.798 99.7246 84.6637 100.891C86.5293 102.028 88.0743 103.485 89.2987 105.263L85.0135 107.974C84.1681 106.721 83.177 105.73 82.0401 105.001C80.9032 104.243 79.7517 103.85 78.5857 103.82C76.8074 103.733 75.3353 103.908 74.1693 104.345C73.0324 104.753 72.3619 105.584 72.1578 106.837C72.1287 106.954 72.1141 107.114 72.1141 107.318C72.1141 109.272 73.9506 110.54 77.6237 111.123C79.9266 111.473 81.938 111.954 83.658 112.566C85.3779 113.149 86.8354 114.111 88.0306 115.452C89.2258 116.793 89.8234 118.6 89.8234 120.874C89.8234 122.419 89.4445 123.905 88.6865 125.334C87.9577 126.762 86.7334 127.943 85.0135 128.876C83.3227 129.809 81.1364 130.275 78.4545 130.275C74.5482 130.275 71.5894 129.371 69.578 127.564C67.5665 125.727 66.1818 123.556 65.4239 121.049L70.4962 119.737ZM97.8343 104.389C96.9597 104.389 96.2018 104.083 95.5605 103.471C94.9483 102.858 94.6422 102.115 94.6422 101.24C94.6422 100.337 94.9483 99.5789 95.5605 98.9667C96.2018 98.3545 96.9597 98.0484 97.8343 98.0484C98.7088 98.0484 99.4522 98.3545 100.064 98.9667C100.706 99.5789 101.026 100.337 101.026 101.24C101.026 102.115 100.706 102.858 100.064 103.471C99.4522 104.083 98.7088 104.389 97.8343 104.389ZM95.2107 129.969V106.837H100.458V129.969H95.2107ZM113.734 99.5789V107.1H120.774V111.91H113.734V119.693C113.734 121.734 113.953 123.235 114.39 124.197C114.828 125.13 115.6 125.596 116.708 125.596C117.641 125.596 118.938 125.217 120.6 124.459L122.786 128.832C120.454 129.94 118.355 130.494 116.489 130.494C113.924 130.494 111.942 129.532 110.542 127.608C109.172 125.655 108.487 123.016 108.487 119.693V111.91H104.508V107.1H108.487V99.5789H113.734ZM124.962 118.6C124.962 116.18 125.443 114.082 126.405 112.303C127.367 110.525 128.679 109.17 130.341 108.237C132.002 107.304 133.839 106.837 135.85 106.837C137.628 106.837 139.217 107.333 140.616 108.324C142.016 109.286 143.109 110.598 143.896 112.26C144.683 113.892 145.077 115.685 145.077 117.638C145.077 118.308 145.004 119.11 144.858 120.043H130.297C130.501 121.879 131.099 123.279 132.09 124.241C133.11 125.174 134.364 125.64 135.85 125.64C136.841 125.64 137.803 125.392 138.736 124.897C139.698 124.401 141.01 123.512 142.672 122.229L145.907 125.99C143.983 127.506 142.263 128.628 140.748 129.357C139.232 130.086 137.599 130.45 135.85 130.45C133.81 130.45 131.959 129.969 130.297 129.007C128.664 128.074 127.367 126.719 126.405 124.94C125.443 123.162 124.962 121.049 124.962 118.6ZM139.523 115.67C139.378 114.504 138.969 113.542 138.299 112.784C137.628 112.026 136.812 111.647 135.85 111.647C134.597 111.647 133.504 111.997 132.571 112.697C131.638 113.367 130.982 114.358 130.603 115.67H139.523Z" fill="black"/>
</svg>
