<svg width="100" height="100" viewBox="0 0 100 100" fill="none" xmlns="http://www.w3.org/2000/svg">
<rect width="100" height="100" fill="white"/>
<path d="M8.13718 30.6032C9.61859 30.2186 11.0858 30.0263 12.5387 30.0263C14.2907 30.0263 15.7294 30.3682 16.8547 31.0519C17.98 31.7357 18.5426 32.8752 18.5426 34.4706C18.5426 36.1799 18.0797 37.5402 17.1538 38.5516C16.2422 39.5629 14.9388 40.0686 13.2438 40.0686C12.4461 40.0686 11.5985 39.9546 10.7012 39.7267V45.0683H8.13718V30.6032ZM10.7012 37.2696C11.684 37.5829 12.5316 37.7396 13.2438 37.7396C14.1839 37.7396 14.8747 37.4619 15.3163 36.9063C15.7579 36.3508 15.9787 35.5389 15.9787 34.4706C15.9787 33.7156 15.6867 33.1743 15.1026 32.8467C14.5329 32.5048 13.7494 32.3339 12.7523 32.3339C12.1541 32.3339 11.4703 32.3909 10.7012 32.5048V37.2696ZM19.3896 39.513C19.3896 38.3308 19.6247 37.3052 20.0947 36.4363C20.5648 35.5674 21.2058 34.905 22.0177 34.4492C22.8296 33.9934 23.727 33.7655 24.7099 33.7655C25.5788 33.7655 26.3551 34.0076 27.0388 34.4919C27.7225 34.962 28.2567 35.603 28.6413 36.4149C29.0259 37.2126 29.2182 38.0886 29.2182 39.043C29.2182 39.3706 29.1826 39.7623 29.1114 40.2181H21.9963C22.096 41.1155 22.3881 41.7993 22.8724 42.2693C23.3709 42.7251 23.9834 42.953 24.7099 42.953C25.1942 42.953 25.6642 42.832 26.1201 42.5898C26.5901 42.3477 27.2311 41.9132 28.043 41.2865L29.6242 43.124C28.684 43.8647 27.8436 44.4131 27.1029 44.7692C26.3622 45.1253 25.5645 45.3034 24.7099 45.3034C23.7128 45.3034 22.8083 45.0683 21.9963 44.5983C21.1987 44.1424 20.5648 43.4801 20.0947 42.6112C19.6247 41.7423 19.3896 40.7096 19.3896 39.513ZM26.5047 38.0815C26.4334 37.5117 26.234 37.0417 25.9064 36.6713C25.5788 36.301 25.1799 36.1158 24.7099 36.1158C24.0974 36.1158 23.5632 36.2867 23.1074 36.6286C22.6516 36.9562 22.3311 37.4405 22.1459 38.0815H26.5047ZM31.1103 45.0683V33.9578H33.6743L33.8879 35.603C34.301 35.0332 34.8138 34.5774 35.4263 34.2355C36.0388 33.8937 36.6941 33.7227 37.392 33.7227C38.1185 33.7227 38.8236 33.915 39.5073 34.2996L38.1399 37.0132C37.684 36.6571 37.1713 36.479 36.6015 36.479C36.1029 36.479 35.6257 36.6143 35.1699 36.885C34.7284 37.1556 34.3651 37.526 34.0802 37.996C33.8096 38.4661 33.6743 38.9718 33.6743 39.513V45.0683H31.1103ZM43.0568 41.1796C43.2135 41.7352 43.4699 42.1625 43.826 42.4616C44.1821 42.7607 44.7305 42.9103 45.4712 42.9103C46.1265 42.9103 46.5752 42.8035 46.8173 42.5898C47.0737 42.3619 47.2019 42.0628 47.2019 41.6924C47.2019 41.379 47.1236 41.1369 46.9669 40.966C46.8102 40.7808 46.5752 40.6455 46.2618 40.56C45.9484 40.4745 45.4784 40.3748 44.8516 40.2609C43.8118 40.1184 42.9215 39.7766 42.1808 39.2353C41.4401 38.694 41.0697 37.9604 41.0697 37.0345C41.0697 35.8665 41.4828 35.0332 42.309 34.5347C43.1352 34.0219 44.1323 33.7655 45.3003 33.7655C46.1407 33.7655 46.9384 33.9791 47.6933 34.4065C48.4483 34.8338 49.0608 35.3893 49.5309 36.073L47.3942 37.3978C47.1378 36.9989 46.8173 36.6784 46.4327 36.4363C46.0481 36.1941 45.6849 36.0659 45.343 36.0517C44.8017 36.0232 44.3958 36.073 44.1251 36.2012C43.8545 36.3152 43.6907 36.536 43.6337 36.8636C43.5625 37.4191 44.0967 37.7824 45.2362 37.9533C46.6749 38.167 47.7859 38.5516 48.5694 39.1071C49.367 39.6484 49.7659 40.503 49.7659 41.6711C49.7659 42.2551 49.6163 42.8248 49.3172 43.3804C49.0323 43.9217 48.5622 44.3704 47.907 44.7265C47.266 45.0826 46.447 45.2606 45.4499 45.2606C43.9827 45.2606 42.8716 44.9116 42.1167 44.2137C41.3617 43.5299 40.849 42.7323 40.5783 41.8206L43.0568 41.1796ZM56.3204 42.953C57.1323 42.953 57.7875 42.6682 58.2861 42.0984C58.7989 41.5144 59.0553 40.674 59.0553 39.5771C59.0553 38.4803 58.7989 37.647 58.2861 37.0773C57.7875 36.4933 57.1323 36.2012 56.3204 36.2012C55.5227 36.2012 54.8675 36.4933 54.3547 37.0773C53.8561 37.647 53.6068 38.4803 53.6068 39.5771C53.6068 40.674 53.8561 41.5144 54.3547 42.0984C54.8675 42.6682 55.5227 42.953 56.3204 42.953ZM56.3204 45.3034C55.3518 45.3034 54.4615 45.0754 53.6496 44.6196C52.8519 44.1638 52.218 43.5086 51.748 42.6539C51.2779 41.785 51.0429 40.7594 51.0429 39.5771C51.0429 38.3949 51.2779 37.3764 51.748 36.5217C52.218 35.6528 52.8519 34.9905 53.6496 34.5347C54.4615 34.0788 55.3518 33.8509 56.3204 33.8509C57.3032 33.8509 58.1935 34.0788 58.9912 34.5347C59.8031 34.9905 60.4441 35.6528 60.9142 36.5217C61.3842 37.3764 61.6193 38.3949 61.6193 39.5771C61.6193 40.7594 61.3842 41.785 60.9142 42.6539C60.4441 43.5086 59.8031 44.1638 58.9912 44.6196C58.1935 45.0754 57.3032 45.3034 56.3204 45.3034ZM63.1183 45.0683V33.9578H65.6822L65.9386 35.6884C66.366 35.0332 66.8716 34.5347 67.4556 34.1928C68.0397 33.8367 68.6878 33.6586 69.4 33.6586C69.7134 33.6586 69.9911 33.6871 70.2333 33.7441C71.2874 33.9293 72.085 34.5347 72.6263 35.5602C73.1676 36.5858 73.4383 37.7895 73.4383 39.1712V45.0683H70.8743V39.8122C70.8743 39.043 70.7532 38.3521 70.5111 37.7396C70.2689 37.1271 69.8629 36.7212 69.2932 36.5217C69.0795 36.4505 68.8658 36.4149 68.6522 36.4149C68.2106 36.4149 67.7548 36.5289 67.2847 36.7568C66.8289 36.9847 66.4443 37.3194 66.1309 37.761C65.8318 38.1883 65.6822 38.7011 65.6822 39.2994V45.0683H63.1183ZM75.9383 34.3424C77.4909 33.8723 78.8299 33.6373 79.9552 33.6373C81.7785 33.6373 82.9892 34.1287 83.5875 35.1116C84.1858 36.0944 84.4849 37.2553 84.4849 38.5943C84.4849 39.8193 84.549 40.9161 84.6772 41.8847C84.8196 42.8533 85.0689 43.7222 85.425 44.4914L83.1174 45.4743C82.8183 45.0327 82.5975 44.5555 82.4551 44.0427C82.042 44.3846 81.6218 44.6481 81.1944 44.8333C80.7671 45.0185 80.2899 45.1395 79.7629 45.1965C79.5207 45.225 79.186 45.2393 78.7587 45.2393C77.3058 45.2393 76.3015 44.933 75.746 44.3205C75.2047 43.708 74.9341 43.0029 74.9341 42.2052C74.9341 40.8235 75.5893 39.7979 76.8998 39.1284C78.2103 38.459 79.8697 37.9533 81.8782 37.6114C81.8212 37.0559 81.6503 36.6286 81.3654 36.3294C81.0947 36.0303 80.6318 35.8807 79.9766 35.8807C79.2074 35.8807 78.1319 36.1087 76.7502 36.5645L75.9383 34.3424ZM77.498 42.2052C77.498 42.7323 77.9467 42.9958 78.8441 42.9958C79.1005 42.9958 79.3997 42.9744 79.7415 42.9317C80.1831 42.8747 80.6104 42.7607 81.0235 42.5898C81.4366 42.4046 81.7927 42.1981 82.0918 41.9702C82.0349 41.6141 81.9921 41.0942 81.9636 40.4104C81.9636 40.1398 81.9565 39.9333 81.9423 39.7908C80.646 40.0187 79.5777 40.3463 78.7373 40.7737C77.9111 41.1867 77.498 41.6639 77.498 42.2052ZM92.925 44.8974C92.2412 45.0826 91.5718 45.1752 90.9165 45.1752C89.777 45.1752 88.8582 44.8618 88.1602 44.235C87.4765 43.6225 87.1347 42.7323 87.1347 41.5642V30.1118H89.6986V41.5642C89.6986 42.0058 89.7912 42.3334 89.9764 42.5471C90.1616 42.7465 90.4678 42.8462 90.8951 42.8462C91.294 42.8462 91.7569 42.775 92.284 42.6325L92.925 44.8974ZM33.1402 70.0686C33.3823 70.9232 33.7954 71.607 34.3794 72.1198C34.9635 72.6183 35.8395 72.8676 37.0075 72.8676C39.016 72.8676 40.0202 72.1269 40.0202 70.6455C40.0202 70.0899 39.8778 69.6555 39.5929 69.3421C39.308 69.0287 38.9091 68.7937 38.3963 68.637C37.8835 68.4803 37.1642 68.3236 36.2383 68.167C35.0703 67.9818 33.9664 67.5758 32.9265 66.9491C31.9009 66.3223 31.3881 65.368 31.3881 64.086C31.3881 63.8011 31.4024 63.5803 31.4309 63.4236C31.6445 62.0277 32.3283 61.0875 33.4821 60.6032C34.6358 60.1189 35.868 59.8981 37.1785 59.9409C38.1898 59.9836 39.1513 60.2899 40.0629 60.8596C40.9746 61.4152 41.7295 62.1274 42.3278 62.9963L40.2339 64.321C39.8208 63.7085 39.3365 63.2242 38.7809 62.8681C38.2254 62.4977 37.6628 62.3054 37.093 62.2912C36.2241 62.2484 35.5048 62.3339 34.935 62.5476C34.3794 62.747 34.0518 63.153 33.9521 63.7655C33.9379 63.8224 33.9308 63.9008 33.9308 64.0005C33.9308 64.9549 34.8281 65.5745 36.6229 65.8594C37.7482 66.0303 38.7311 66.2653 39.5715 66.5645C40.4119 66.8494 41.1241 67.3194 41.7081 67.9747C42.2922 68.6299 42.5842 69.513 42.5842 70.6241C42.5842 71.379 42.399 72.1055 42.0286 72.8035C41.6725 73.5014 41.0743 74.0783 40.2339 74.5342C39.4077 74.99 38.3394 75.2179 37.0289 75.2179C35.1202 75.2179 33.6744 74.7763 32.6915 73.8932C31.7086 72.9958 31.032 71.9346 30.6617 70.7096L33.1402 70.0686ZM46.4986 62.5689C46.0712 62.5689 45.7009 62.4194 45.3875 62.1202C45.0884 61.8211 44.9388 61.4579 44.9388 61.0306C44.9388 60.589 45.0884 60.2186 45.3875 59.9195C45.7009 59.6204 46.0712 59.4708 46.4986 59.4708C46.9259 59.4708 47.2891 59.6204 47.5883 59.9195C47.9016 60.2186 48.0583 60.589 48.0583 61.0306C48.0583 61.4579 47.9016 61.8211 47.5883 62.1202C47.2891 62.4194 46.9259 62.5689 46.4986 62.5689ZM45.2166 75.0683V63.7655H47.7806V75.0683H45.2166ZM54.268 60.2186V63.8937H57.708V66.244H54.268V70.0472C54.268 71.0443 54.3748 71.7779 54.5884 72.248C54.8021 72.7038 55.1796 72.9317 55.7209 72.9317C56.1767 72.9317 56.8106 72.7465 57.6225 72.3761L58.6908 74.5128C57.5513 75.0541 56.5257 75.3247 55.614 75.3247C54.3605 75.3247 53.3919 74.8547 52.7082 73.9145C52.0387 72.9602 51.704 71.6711 51.704 70.0472V66.244H49.7596V63.8937H51.704V60.2186H54.268ZM59.7543 69.513C59.7543 68.3308 59.9893 67.3052 60.4594 66.4363C60.9294 65.5674 61.5704 64.905 62.3824 64.4492C63.1943 63.9934 64.0917 63.7655 65.0745 63.7655C65.9434 63.7655 66.7198 64.0076 67.4035 64.4919C68.0872 64.962 68.6214 65.603 69.006 66.4149C69.3906 67.2126 69.5829 68.0886 69.5829 69.043C69.5829 69.3706 69.5472 69.7623 69.476 70.2181H62.361C62.4607 71.1155 62.7527 71.7993 63.237 72.2693C63.7356 72.7251 64.3481 72.953 65.0745 72.953C65.5588 72.953 66.0289 72.832 66.4847 72.5898C66.9548 72.3477 67.5958 71.9132 68.4077 71.2865L69.9888 73.124C69.0487 73.8647 68.2083 74.4131 67.4676 74.7692C66.7269 75.1253 65.9292 75.3034 65.0745 75.3034C64.0774 75.3034 63.1729 75.0683 62.361 74.5983C61.5633 74.1424 60.9294 73.4801 60.4594 72.6112C59.9893 71.7423 59.7543 70.7096 59.7543 69.513ZM66.8693 68.0815C66.7981 67.5117 66.5987 67.0417 66.2711 66.6713C65.9434 66.301 65.5446 66.1158 65.0745 66.1158C64.462 66.1158 63.9279 66.2867 63.4721 66.6286C63.0162 66.9562 62.6957 67.4405 62.5106 68.0815H66.8693Z" fill="black"/>
</svg>
