<svg width="100" height="100" viewBox="0 0 100 100" fill="none" xmlns="http://www.w3.org/2000/svg">
<path d="M25.18 53.9C25.3267 54.34 25.4867 54.6533 25.66 54.84C25.4333 55.0933 25.12 55.22 24.72 55.22C24.4667 55.22 24.2467 55.16 24.06 55.04C23.8733 54.9333 23.7533 54.7733 23.7 54.56L22.48 50.6H17.24L16.24 53.94C16.16 54.2333 16.12 54.4533 16.12 54.6C16.12 54.8133 16.16 54.9667 16.24 55.06C15.96 55.1667 15.6667 55.22 15.36 55.22C14.7467 55.22 14.44 54.9733 14.44 54.48C14.44 54.3067 14.5067 54.0067 14.64 53.58L18.88 41.14C19.32 40.9667 19.76 40.88 20.2 40.88C20.72 40.88 21.04 41.08 21.16 41.48L25.18 53.9ZM22.2 49.64L19.84 41.96L17.54 49.64H22.2ZM31.7559 44.58C32.4493 44.58 33.0026 44.7667 33.4159 45.14C33.8426 45.5 34.0559 46.0067 34.0559 46.66C34.0559 47.1 33.9293 47.4667 33.6759 47.76C33.4226 48.04 33.1226 48.18 32.7759 48.18C32.4826 48.18 32.2826 48.1133 32.1759 47.98C32.3226 47.7533 32.4226 47.5467 32.4759 47.36C32.5293 47.16 32.5559 46.94 32.5559 46.7C32.5559 45.8733 32.1693 45.46 31.3959 45.46C30.7959 45.46 30.2893 45.8467 29.8759 46.62C29.4759 47.38 29.2759 48.5667 29.2759 50.18V51.26C29.2759 52.46 29.2893 53.2733 29.3159 53.7C29.3426 54.1267 29.4159 54.5 29.5359 54.82C29.2559 55.06 28.9426 55.18 28.5959 55.18C28.3293 55.18 28.1093 55.1 27.9359 54.94C27.7626 54.7667 27.6759 54.5333 27.6759 54.24V46.88C27.6759 46.5067 27.6293 46.24 27.5359 46.08C27.4559 45.92 27.3159 45.84 27.1159 45.84C26.8626 45.84 26.6893 45.9467 26.5959 46.16C26.4359 45.9333 26.3559 45.72 26.3559 45.52C26.3559 45.24 26.4626 45.02 26.6759 44.86C26.8893 44.6867 27.1826 44.6 27.5559 44.6C28.0759 44.6 28.4626 44.7867 28.7159 45.16C28.9826 45.52 29.1093 46.06 29.0959 46.78V46.88C29.3226 46.12 29.6626 45.5467 30.1159 45.16C30.5693 44.7733 31.1159 44.58 31.7559 44.58ZM37.2041 43C36.9107 43 36.6574 42.8933 36.4441 42.68C36.2307 42.4667 36.1241 42.2133 36.1241 41.92C36.1241 41.6133 36.2307 41.36 36.4441 41.16C36.6574 40.9467 36.9107 40.84 37.2041 40.84C37.5107 40.84 37.7641 40.9467 37.9641 41.16C38.1774 41.36 38.2841 41.6133 38.2841 41.92C38.2841 42.2133 38.1774 42.4667 37.9641 42.68C37.7641 42.8933 37.5107 43 37.2041 43ZM38.0841 52.72C38.0841 53.6933 38.1707 54.4067 38.3441 54.86C38.0641 55.1 37.7574 55.22 37.4241 55.22C37.1574 55.22 36.9374 55.14 36.7641 54.98C36.6041 54.82 36.5241 54.6067 36.5241 54.34L36.5041 47.08C36.5041 46.16 36.4174 45.4467 36.2441 44.94C36.5241 44.7 36.8307 44.58 37.1641 44.58C37.4307 44.58 37.6441 44.66 37.8041 44.82C37.9774 44.9667 38.0641 45.18 38.0641 45.46L38.0841 52.72ZM44.1794 44.86C44.3927 44.86 44.6727 44.8533 45.0194 44.84C45.3794 44.8267 45.666 44.8133 45.8794 44.8L45.8594 45.24C45.846 45.3733 45.7994 45.4867 45.7194 45.58C45.6394 45.66 45.5394 45.7 45.4194 45.7H43.3594V46.46V52.9C43.3594 53.2467 43.4394 53.5133 43.5994 53.7C43.7594 53.8867 43.9994 53.98 44.3194 53.98C44.5194 53.98 44.706 53.9467 44.8794 53.88C45.066 53.8 45.1927 53.6933 45.2594 53.56C45.406 53.76 45.4794 53.9733 45.4794 54.2C45.4794 54.5067 45.3194 54.7533 44.9994 54.94C44.6794 55.1267 44.2727 55.22 43.7794 55.22C43.1527 55.22 42.6594 55.0267 42.2994 54.64C41.9394 54.24 41.7594 53.6933 41.7594 53V45.7H41.4794C40.9327 45.7 40.5327 45.72 40.2794 45.76L40.2994 45.3C40.3127 45.0067 40.4594 44.86 40.7394 44.86H41.7594V43.08C41.7594 42.8 41.846 42.5867 42.0194 42.44C42.1927 42.28 42.4194 42.2 42.6994 42.2C43.0327 42.2 43.3394 42.32 43.6194 42.56C43.4727 43.0133 43.3927 43.78 43.3794 44.86H44.1794ZM57.2167 53.54C57.3634 53.74 57.4367 53.9467 57.4367 54.16C57.4367 54.4533 57.2967 54.7 57.0167 54.9C56.7501 55.1 56.4234 55.2 56.0367 55.2C55.4634 55.2 55.0301 55 54.7367 54.6C54.4434 54.2 54.2967 53.5733 54.2967 52.72V52.14C53.8567 53.0867 53.2567 53.84 52.4967 54.4C51.7501 54.9467 50.9301 55.22 50.0367 55.22C49.2634 55.22 48.6501 55.0133 48.1967 54.6C47.7567 54.1733 47.5367 53.6067 47.5367 52.9C47.5367 52.1133 47.8367 51.4467 48.4367 50.9C49.0367 50.3533 49.8434 49.94 50.8567 49.66C51.7501 49.42 52.6767 49.3 53.6367 49.3C53.9034 49.3 54.0967 49.3067 54.2167 49.32V48.8C54.2167 47.6133 54.0167 46.7333 53.6167 46.16C53.2301 45.5867 52.5834 45.3 51.6767 45.3C51.0901 45.3 50.5967 45.4267 50.1967 45.68C49.7967 45.9333 49.5967 46.3467 49.5967 46.92C49.5967 47.2267 49.6634 47.5133 49.7967 47.78C49.9434 48.0467 50.1634 48.2333 50.4567 48.34C50.2434 48.6067 49.9234 48.74 49.4967 48.74C49.0567 48.74 48.6967 48.5667 48.4167 48.22C48.1367 47.86 47.9967 47.4467 47.9967 46.98C47.9967 46.2067 48.3367 45.6133 49.0167 45.2C49.6967 44.7867 50.6301 44.58 51.8167 44.58C53.1901 44.58 54.2034 44.9333 54.8567 45.64C55.5101 46.3467 55.8367 47.4333 55.8367 48.9V52.9C55.8367 53.6067 56.0767 53.96 56.5567 53.96C56.6634 53.96 56.7834 53.9267 56.9167 53.86C57.0501 53.78 57.1501 53.6733 57.2167 53.54ZM50.6767 54.1C51.2101 54.1 51.7501 53.9067 52.2967 53.52C52.8567 53.12 53.3167 52.6 53.6767 51.96C54.0501 51.32 54.2434 50.6533 54.2567 49.96L53.7967 49.94C53.3301 49.94 52.8567 49.98 52.3767 50.06C51.8967 50.1267 51.4901 50.2267 51.1567 50.36C50.5701 50.5733 50.1101 50.8667 49.7767 51.24C49.4434 51.6133 49.2767 52.0533 49.2767 52.56C49.2767 53 49.3901 53.3667 49.6167 53.66C49.8434 53.9533 50.1967 54.1 50.6767 54.1ZM68.2128 53.66C68.3728 53.8733 68.4528 54.08 68.4528 54.28C68.4528 54.56 68.3461 54.7867 68.1328 54.96C67.9195 55.12 67.6261 55.2 67.2528 55.2C66.2128 55.2 65.6928 54.52 65.6928 53.16V52.76C65.4128 53.5467 64.9795 54.16 64.3928 54.6C63.8061 55.04 63.1195 55.26 62.3328 55.26C61.2395 55.26 60.4461 54.94 59.9528 54.3C59.4595 53.66 59.2061 52.58 59.1928 51.06V47.1C59.1928 46.18 59.1061 45.46 58.9328 44.94C59.2261 44.7 59.5395 44.58 59.8728 44.58C60.1395 44.58 60.3528 44.66 60.5128 44.82C60.6861 44.98 60.7728 45.2 60.7728 45.48L60.7928 50.86C60.7928 51.7267 60.8528 52.4133 60.9728 52.92C61.1061 53.4267 61.3128 53.8 61.5928 54.04C61.8861 54.2667 62.2861 54.38 62.7928 54.38C63.2461 54.38 63.6795 54.22 64.0928 53.9C64.5195 53.5667 64.8661 53.0467 65.1328 52.34C65.4128 51.62 65.5528 50.7133 65.5528 49.62C65.5528 47.9 65.5395 46.78 65.5128 46.26C65.4861 45.74 65.4061 45.3 65.2728 44.94C65.5528 44.7 65.8595 44.58 66.1928 44.58C66.4595 44.58 66.6795 44.6667 66.8528 44.84C67.0261 45.0133 67.1128 45.2467 67.1128 45.54L67.1328 52.94C67.1328 53.3133 67.1728 53.58 67.2528 53.74C67.3461 53.8867 67.4928 53.96 67.6928 53.96C67.9328 53.96 68.1061 53.86 68.2128 53.66ZM84.8609 52.72C84.8609 53.64 84.9476 54.3533 85.1209 54.86C84.8276 55.1 84.5209 55.22 84.2009 55.22C83.9343 55.22 83.7143 55.14 83.5409 54.98C83.3676 54.82 83.2809 54.6067 83.2809 54.34V48.94C83.2809 47.7933 83.1409 46.9267 82.8609 46.34C82.5809 45.7533 82.0876 45.46 81.3809 45.46C80.9543 45.46 80.5409 45.6133 80.1409 45.92C79.7409 46.2267 79.4009 46.72 79.1209 47.4C78.8543 48.0667 78.7143 48.9067 78.7009 49.92L78.7209 52.72C78.7209 53.68 78.8009 54.3933 78.9609 54.86C78.6943 55.1 78.3943 55.22 78.0609 55.22C77.7943 55.22 77.5809 55.14 77.4209 54.98C77.2609 54.82 77.1809 54.6067 77.1809 54.34L77.1609 48.94C77.1609 47.7533 77.0143 46.88 76.7209 46.32C76.4276 45.7467 75.9209 45.46 75.2009 45.46C74.7609 45.46 74.3409 45.6267 73.9409 45.96C73.5543 46.28 73.2343 46.8067 72.9809 47.54C72.7276 48.26 72.6009 49.18 72.6009 50.3C72.6009 51.98 72.6143 53.0733 72.6409 53.58C72.6676 54.0867 72.7476 54.5133 72.8809 54.86C72.6009 55.1 72.2943 55.22 71.9609 55.22C71.6809 55.22 71.4543 55.1333 71.2809 54.96C71.1209 54.7867 71.0409 54.5533 71.0409 54.26L71.0209 46.9C71.0209 46.5533 70.9609 46.2933 70.8409 46.12C70.7209 45.9333 70.5476 45.84 70.3209 45.84C70.2009 45.84 70.0809 45.88 69.9609 45.96C69.8409 46.0267 69.7543 46.1267 69.7009 46.26C69.5543 46.0733 69.4809 45.8667 69.4809 45.64C69.4809 45.3333 69.6009 45.0867 69.8409 44.9C70.0809 44.7 70.3743 44.6 70.7209 44.6C71.2676 44.6 71.6876 44.7933 71.9809 45.18C72.2876 45.5533 72.4409 46.1 72.4409 46.82V47.14C72.7076 46.34 73.1209 45.7133 73.6809 45.26C74.2409 44.8067 74.9009 44.58 75.6609 44.58C77.2876 44.58 78.2543 45.4467 78.5609 47.18C78.8009 46.3667 79.2076 45.7333 79.7809 45.28C80.3543 44.8133 81.0343 44.58 81.8209 44.58C82.8609 44.58 83.6276 44.9333 84.1209 45.64C84.6143 46.3333 84.8609 47.3667 84.8609 48.74V52.72Z" fill="black"/>
</svg>
