<svg width="167" height="167" viewBox="0 0 167 167" fill="none" xmlns="http://www.w3.org/2000/svg">
<path d="M84.8446 11.0659L83.7202 10.9992L87.4979 2.33496L88.605 2.40065L91.3318 11.4507L90.2073 11.384L88.0029 3.77109L87.9337 3.76698L84.8446 11.0659ZM85.4651 7.63068L89.9974 7.89958L89.941 8.85103L85.4086 8.58214L85.4651 7.63068Z" fill="black"/>
<path d="M95.3101 12.2415C94.7636 12.1473 94.305 11.9261 93.9342 11.5778C93.5639 11.2268 93.3043 10.7776 93.1554 10.2302C93.007 9.67996 92.9927 9.05761 93.1124 8.36312C93.2312 7.67433 93.4523 7.09698 93.7759 6.63108C94.0995 6.16518 94.4957 5.8305 94.9646 5.62704C95.4334 5.42358 95.944 5.36946 96.4961 5.46466C96.9231 5.53828 97.2481 5.66759 97.4712 5.8526C97.6976 6.03525 97.8608 6.22752 97.9608 6.42941C98.0642 6.62894 98.143 6.79201 98.1974 6.91862L98.2828 6.93334L98.8393 3.70569L99.8469 3.87941L98.3393 12.6231L97.3659 12.4553L97.5396 11.4477L97.4201 11.4271C97.3254 11.5339 97.1941 11.6666 97.0261 11.8252C96.8586 11.9809 96.6359 12.1081 96.358 12.2068C96.0806 12.3026 95.7313 12.3142 95.3101 12.2415ZM95.6028 11.36C96.0069 11.4297 96.3666 11.3832 96.6819 11.2207C96.9976 11.0553 97.2605 10.7973 97.4704 10.4466C97.6808 10.0931 97.8287 9.6687 97.9141 9.17345C97.9985 8.68389 98.0012 8.24326 97.9222 7.85156C97.8437 7.45701 97.6827 7.13322 97.4391 6.88019C97.196 6.62432 96.8695 6.46105 96.4596 6.39039C96.0327 6.31677 95.658 6.36501 95.3356 6.5351C95.0165 6.70283 94.7537 6.96086 94.5471 7.30918C94.3438 7.65515 94.2024 8.05868 94.1229 8.51977C94.0424 8.98656 94.0405 9.42292 94.117 9.82886C94.1969 10.2324 94.3584 10.571 94.6014 10.8444C94.8477 11.1155 95.1815 11.2873 95.6028 11.36Z" fill="black"/>
<path d="M102.912 13.9505C102.334 13.7869 101.865 13.5059 101.507 13.1073C101.151 12.7094 100.921 12.2286 100.816 11.6647C100.715 11.1016 100.757 10.4893 100.945 9.82792C101.133 9.16093 101.419 8.61292 101.801 8.18387C102.187 7.75561 102.635 7.46526 103.147 7.31281C103.661 7.16115 104.207 7.16711 104.785 7.33069C105.363 7.49426 105.83 7.77496 106.186 8.17278C106.544 8.57138 106.774 9.05363 106.875 9.61951C106.979 10.1861 106.936 10.803 106.747 11.47C106.56 12.1314 106.274 12.6749 105.89 13.1003C105.508 13.5266 105.06 13.8156 104.546 13.9672C104.034 14.1197 103.49 14.1141 102.912 13.9505ZM103.162 13.0668C103.601 13.191 103.994 13.1807 104.341 13.0358C104.688 12.8909 104.982 12.6543 105.222 12.326C105.462 11.9977 105.642 11.6195 105.764 11.1916C105.885 10.7636 105.929 10.3455 105.898 9.93739C105.866 9.52923 105.741 9.1711 105.522 8.86299C105.303 8.55489 104.974 8.3387 104.535 8.21445C104.096 8.09019 103.702 8.1019 103.354 8.24957C103.006 8.39724 102.712 8.63662 102.471 8.96771C102.23 9.2988 102.049 9.67834 101.928 10.1063C101.807 10.5343 101.763 10.951 101.795 11.3563C101.828 11.7617 101.954 12.1171 102.173 12.4224C102.393 12.7277 102.723 12.9425 103.162 13.0668Z" fill="black"/>
<path d="M107.596 15.2511L110.892 7.01318L111.841 7.39294L110.625 10.4339L110.705 10.4661C110.818 10.3867 110.969 10.2885 111.159 10.1716C111.353 10.0531 111.592 9.97485 111.878 9.93678C112.168 9.89711 112.514 9.95772 112.916 10.1186C113.436 10.3267 113.843 10.6402 114.136 11.0591C114.428 11.478 114.591 11.9706 114.622 12.537C114.654 13.1034 114.54 13.711 114.28 14.36C114.019 15.0143 113.68 15.537 113.266 15.9279C112.852 16.3162 112.396 16.5629 111.897 16.668C111.398 16.7705 110.892 16.7187 110.377 16.5127C109.98 16.3539 109.688 16.1611 109.502 15.9342C109.317 15.7047 109.194 15.4797 109.133 15.2592C109.073 15.0361 109.031 14.8543 109.006 14.7138L108.893 14.6687L108.514 15.618L107.596 15.2511ZM109.766 12.5352C109.579 13.0018 109.483 13.4408 109.477 13.8522C109.472 14.2609 109.561 14.6183 109.743 14.9246C109.926 15.2282 110.208 15.4561 110.589 15.6085C110.986 15.7672 111.359 15.7951 111.708 15.6922C112.061 15.5876 112.376 15.3838 112.653 15.0808C112.933 14.7761 113.162 14.4039 113.337 13.9641C113.511 13.5297 113.601 13.1114 113.606 12.7091C113.615 12.3053 113.527 11.9478 113.34 11.6367C113.157 11.324 112.865 11.0872 112.462 10.9263C112.076 10.7718 111.712 10.7399 111.371 10.8305C111.031 10.9185 110.725 11.1099 110.451 11.4049C110.179 11.6972 109.95 12.074 109.766 12.5352Z" fill="black"/>
<path d="M116.905 19.5569C116.338 19.2585 115.914 18.8759 115.634 18.4089C115.358 17.9408 115.228 17.422 115.243 16.8526C115.263 16.2819 115.431 15.6949 115.748 15.0916C116.066 14.4883 116.455 14.0144 116.917 13.6698C117.383 13.324 117.881 13.1262 118.413 13.0764C118.949 13.0253 119.483 13.1395 120.015 13.4191C120.322 13.5804 120.598 13.7908 120.843 14.0503C121.088 14.3099 121.273 14.6192 121.398 14.9783C121.524 15.3348 121.561 15.7393 121.509 16.1917C121.457 16.6442 121.286 17.1452 120.997 17.6948L120.796 18.0783L116.256 15.6911L116.667 14.9088L120.287 16.8121C120.461 16.4798 120.551 16.1483 120.555 15.8176C120.562 15.4883 120.483 15.1844 120.32 14.9059C120.159 14.6287 119.915 14.4041 119.587 14.2321C119.227 14.0425 118.868 13.968 118.511 14.0085C118.157 14.0478 117.836 14.1724 117.546 14.3822C117.256 14.5921 117.026 14.8593 116.855 15.184L116.581 15.7055C116.347 16.1503 116.225 16.5677 116.216 16.9577C116.211 17.3465 116.304 17.6939 116.495 18.0002C116.688 18.3038 116.967 18.5518 117.333 18.744C117.57 18.869 117.803 18.9487 118.029 18.983C118.26 19.0161 118.481 19.0019 118.693 18.9403C118.906 18.8762 119.105 18.7621 119.289 18.5979L120.034 19.303C119.786 19.5511 119.495 19.7306 119.159 19.8413C118.825 19.9495 118.465 19.9822 118.08 19.9394C117.695 19.8941 117.304 19.7666 116.905 19.5569Z" fill="black"/>
<path d="M122.322 25.4894L127.75 18.1237L128.545 18.7097L127.918 19.5607L128.016 19.6326C128.145 19.5842 128.316 19.5273 128.529 19.462C128.746 19.396 128.998 19.3806 129.284 19.4158C129.575 19.4503 129.894 19.5961 130.243 19.8531C130.694 20.1856 131.009 20.5914 131.186 21.0705C131.364 21.5496 131.397 22.0672 131.285 22.6233C131.173 23.1794 130.91 23.7388 130.495 24.3014C130.077 24.8687 129.618 25.2894 129.118 25.5633C128.62 25.835 128.117 25.9588 127.607 25.9347C127.099 25.9084 126.622 25.7307 126.175 25.4017C125.831 25.1481 125.598 24.8881 125.475 24.6216C125.353 24.3529 125.291 24.1041 125.287 23.8754C125.285 23.6443 125.29 23.4577 125.302 23.3155L125.232 23.2641L123.145 26.096L122.322 25.4894ZM126.585 21.3984C126.287 21.803 126.084 22.2036 125.974 22.6002C125.867 22.9945 125.862 23.3628 125.962 23.7051C126.063 24.0451 126.278 24.3367 126.609 24.5801C126.953 24.8337 127.307 24.9546 127.671 24.9429C128.038 24.9306 128.394 24.8126 128.739 24.5891C129.087 24.3649 129.401 24.0622 129.682 23.6809C129.96 23.3042 130.152 22.9219 130.259 22.534C130.369 22.1454 130.373 21.7771 130.271 21.4291C130.173 21.0804 129.949 20.7776 129.6 20.5205C129.266 20.2738 128.922 20.1513 128.569 20.1531C128.218 20.1526 127.872 20.2606 127.533 20.4772C127.196 20.6915 126.88 20.9985 126.585 21.3984Z" fill="black"/>
<path d="M133.315 25.8124L130.62 28.7733L129.864 28.0852L135.835 21.5225L136.592 22.2106L134.399 24.6204L134.463 24.6787C134.81 24.5294 135.167 24.485 135.533 24.5454C135.904 24.6056 136.283 24.8116 136.67 25.1634C137.005 25.4686 137.238 25.8031 137.367 26.1671C137.499 26.5289 137.509 26.9108 137.397 27.3127C137.289 27.7144 137.043 28.1268 136.658 28.5498L133.812 31.6773L133.056 30.9892L135.855 27.913C136.211 27.522 136.384 27.1274 136.376 26.7291C136.371 26.3306 136.19 25.9691 135.834 25.6445C135.586 25.419 135.316 25.2692 135.024 25.195C134.735 25.1228 134.442 25.1356 134.146 25.2334C133.852 25.3332 133.575 25.5262 133.315 25.8124Z" fill="black"/>
<path d="M136.932 35.2079C136.531 34.7606 136.285 34.2726 136.196 33.7441C136.108 33.2178 136.171 32.6884 136.384 32.156C136.599 31.6257 136.962 31.1312 137.474 30.6723C137.99 30.2097 138.525 29.8994 139.078 29.7414C139.632 29.5856 140.166 29.58 140.68 29.7247C141.196 29.8715 141.654 30.1686 142.055 30.6159C142.456 31.0633 142.7 31.5501 142.788 32.0765C142.878 32.605 142.814 33.1354 142.597 33.6675C142.381 34.2019 142.016 34.7004 141.499 35.1631C140.988 35.6219 140.455 35.9282 139.903 36.0821C139.352 36.2381 138.819 36.2428 138.304 36.0959C137.79 35.9513 137.333 35.6553 136.932 35.2079ZM137.616 34.5949C137.92 34.9347 138.258 35.1362 138.629 35.1994C139 35.2627 139.374 35.2197 139.753 35.0707C140.131 34.9216 140.486 34.6986 140.817 34.4017C141.148 34.1048 141.41 33.7755 141.601 33.4137C141.793 33.0519 141.878 32.6823 141.858 32.3049C141.838 31.9274 141.676 31.5688 141.371 31.229C141.066 30.8891 140.728 30.6886 140.355 30.6273C139.982 30.566 139.605 30.6109 139.224 30.7619C138.844 30.9129 138.488 31.1368 138.157 31.4337C137.825 31.7306 137.565 32.059 137.376 32.4188C137.186 32.7787 137.103 33.1464 137.125 33.5219C137.148 33.8974 137.311 34.2551 137.616 34.5949Z" fill="black"/>
<path d="M147.115 36.9783L146.426 37.5042L144.333 34.7636L145.021 34.2377L147.115 36.9783ZM146.898 34.0687L147.519 34.8812L142.479 38.7312C142.249 38.9065 142.102 39.0713 142.038 39.2255C141.979 39.3803 141.969 39.5253 142.011 39.6607C142.057 39.7967 142.125 39.9243 142.216 40.0437C142.285 40.1332 142.345 40.2031 142.398 40.2535C142.454 40.3021 142.498 40.341 142.531 40.3702L141.927 41.0929C141.865 41.0536 141.785 40.9925 141.689 40.9096C141.591 40.8284 141.484 40.7121 141.368 40.5606C141.193 40.3311 141.07 40.0685 141.001 39.7727C140.933 39.4793 140.945 39.1831 141.036 38.8842C141.13 38.5876 141.33 38.3219 141.638 38.087L146.898 34.0687Z" fill="black"/>
<path d="M143.83 44.2356C143.504 43.7309 143.338 43.2106 143.332 42.6746C143.328 42.1409 143.473 41.6279 143.767 41.1354C144.062 40.6454 144.499 40.2139 145.076 39.8409C145.658 39.4647 146.235 39.2419 146.805 39.1724C147.377 39.1054 147.906 39.1835 148.391 39.4068C148.877 39.6325 149.283 39.9977 149.609 40.5023C149.935 41.0069 150.1 41.5261 150.104 42.0597C150.11 42.5957 149.964 43.1096 149.666 43.6012C149.37 44.0952 148.931 44.5303 148.348 44.9064C147.771 45.2794 147.197 45.4987 146.628 45.5642C146.059 45.6321 145.532 45.5532 145.046 45.3274C144.561 45.1041 144.156 44.7402 143.83 44.2356ZM144.602 43.7372C144.849 44.1205 145.151 44.3724 145.508 44.4929C145.864 44.6134 146.241 44.6297 146.638 44.5417C147.035 44.4537 147.42 44.289 147.794 44.0476C148.167 43.8063 148.477 43.5219 148.723 43.1946C148.969 42.8673 149.111 42.5156 149.15 42.1396C149.189 41.7637 149.085 41.384 148.837 41.0007C148.59 40.6174 148.287 40.3663 147.928 40.2473C147.569 40.1284 147.19 40.1137 146.79 40.2033C146.391 40.2928 146.004 40.4583 145.631 40.6997C145.257 40.941 144.949 41.2246 144.705 41.5503C144.462 41.8761 144.322 42.2262 144.285 42.6006C144.248 42.975 144.354 43.3539 144.602 43.7372Z" fill="black"/>
<path d="M153.162 50.0108L152.51 49.314C152.62 49.1924 152.713 49.0485 152.789 48.8821C152.87 48.717 152.909 48.5279 152.906 48.3148C152.903 48.1017 152.834 47.863 152.697 47.5987C152.51 47.2368 152.271 46.9783 151.98 46.8232C151.692 46.6693 151.422 46.658 151.168 46.7892C150.942 46.9058 150.806 47.08 150.76 47.3118C150.714 47.5436 150.737 47.8566 150.83 48.2507L151.068 49.2397C151.212 49.8346 151.219 50.3299 151.089 50.7256C150.961 51.1199 150.69 51.4238 150.277 51.6371C149.938 51.812 149.585 51.8708 149.218 51.8136C148.851 51.7589 148.502 51.5981 148.169 51.3311C147.836 51.0642 147.551 50.701 147.314 50.2416C147.002 49.6385 146.876 49.0718 146.933 48.5414C146.991 48.011 147.244 47.5634 147.693 47.1985L148.354 47.9495C148.078 48.1959 147.919 48.4744 147.878 48.7849C147.838 49.0981 147.914 49.4407 148.106 49.8128C148.325 50.2363 148.589 50.5261 148.897 50.6823C149.209 50.8397 149.492 50.8528 149.746 50.7217C149.951 50.6157 150.086 50.455 150.15 50.2398C150.217 50.0232 150.209 49.7481 150.124 49.4146L149.846 48.3099C149.695 47.7021 149.689 47.2017 149.827 46.8085C149.969 46.4165 150.244 46.1152 150.652 45.9045C150.986 45.7322 151.329 45.6735 151.683 45.7284C152.038 45.7858 152.372 45.9397 152.687 46.1901C153.003 46.4431 153.268 46.7774 153.483 47.1932C153.785 47.7783 153.893 48.304 153.809 48.7701C153.726 49.2388 153.511 49.6524 153.162 50.0108Z" fill="black"/>
<path d="M153.457 53.5406L149.739 55.0242L149.36 54.0745L157.601 50.7863L157.98 51.736L154.954 52.9434L154.986 53.0238C155.363 53.0413 155.704 53.1575 156.007 53.3723C156.314 53.5887 156.565 53.9396 156.758 54.4252C156.926 54.8464 156.989 55.2489 156.946 55.6329C156.906 56.0158 156.748 56.3635 156.472 56.6759C156.199 56.99 155.797 57.253 155.266 57.4649L151.338 59.032L150.96 58.0823L154.822 56.541C155.313 56.3451 155.642 56.0662 155.809 55.7043C155.979 55.3441 155.975 54.9399 155.796 54.4919C155.672 54.1808 155.495 53.928 155.265 53.7336C155.036 53.542 154.767 53.4254 154.458 53.3838C154.151 53.3449 153.817 53.3972 153.457 53.5406Z" fill="black"/>
<path d="M152.59 63.5593C152.426 62.9814 152.419 62.4352 152.571 61.9209C152.723 61.4094 153.011 60.9611 153.436 60.5762C153.862 60.194 154.406 59.909 155.067 59.7213C155.734 59.5319 156.35 59.4874 156.916 59.5879C157.483 59.6912 157.965 59.9205 158.364 60.2758C158.762 60.6339 159.044 61.1019 159.208 61.6798C159.372 62.2577 159.378 62.8024 159.226 63.314C159.075 63.8283 158.785 64.2769 158.357 64.6599C157.929 65.0456 157.381 65.3332 156.714 65.5225C156.053 65.7103 155.441 65.7522 154.877 65.6481C154.313 65.5469 153.832 65.3172 153.433 64.9591C153.035 64.6038 152.754 64.1372 152.59 63.5593ZM153.473 63.3084C153.598 63.7473 153.813 64.0766 154.119 64.2961C154.424 64.5155 154.78 64.6413 155.185 64.6733C155.591 64.7053 156.007 64.6605 156.435 64.539C156.863 64.4175 157.242 64.2362 157.573 63.9951C157.904 63.754 158.143 63.4594 158.291 63.1113C158.438 62.7632 158.449 62.3697 158.325 61.9307C158.2 61.4917 157.983 61.1629 157.675 60.9442C157.367 60.7255 157.009 60.6005 156.6 60.5693C156.192 60.5381 155.774 60.5833 155.346 60.7048C154.918 60.8263 154.54 61.0072 154.212 61.2475C153.884 61.4878 153.648 61.7816 153.503 62.1289C153.359 62.4762 153.349 62.8694 153.473 63.3084Z" fill="black"/>
<path d="M151.465 68.5488L160.481 66.9858L160.649 67.9591L159.608 68.1397L159.629 68.2592C159.755 68.3134 159.918 68.3907 160.117 68.491C160.32 68.5937 160.512 68.7567 160.695 68.9802C160.88 69.2059 161.01 69.5322 161.084 69.9591C161.18 70.5112 161.126 71.0218 160.923 71.4908C160.72 71.9598 160.386 72.3564 159.92 72.6804C159.455 73.0044 158.877 73.2261 158.189 73.3455C157.494 73.4659 156.872 73.4521 156.322 73.3042C155.774 73.1559 155.325 72.8967 154.973 72.5267C154.625 72.1562 154.403 71.6978 154.308 71.1514C154.235 70.7302 154.247 70.3809 154.342 70.1034C154.441 69.8255 154.568 69.6027 154.723 69.435C154.882 69.2668 155.014 69.1354 155.121 69.0407L155.106 68.9553L151.64 69.5562L151.465 68.5488ZM157.374 68.5445C156.879 68.6304 156.455 68.7787 156.101 68.9894C155.751 69.1997 155.493 69.4627 155.328 69.7786C155.166 70.094 155.12 70.4538 155.19 70.8579C155.263 71.2791 155.435 71.6113 155.705 71.8545C155.98 72.1001 156.318 72.2613 156.721 72.338C157.128 72.417 157.565 72.416 158.031 72.3351C158.492 72.2552 158.895 72.112 159.241 71.9056C159.589 71.7015 159.847 71.4384 160.014 71.1164C160.184 70.7966 160.232 70.4233 160.158 69.9965C160.087 69.5867 159.924 69.2603 159.668 69.0175C159.415 68.7741 159.091 68.6133 158.696 68.5352C158.304 68.4565 157.864 68.4597 157.374 68.5445Z" fill="black"/>
<path d="M155.4 79.277L164.271 79.0967L164.379 84.4158L163.426 84.4351L163.34 80.1903L160.343 80.2512L160.421 84.0976L159.468 84.1169L159.39 80.2706L155.422 80.3512L155.4 79.277Z" fill="black"/>
<path d="M155.398 86.5194L162.044 86.8609L161.992 87.882L155.346 87.5405L155.398 86.5194ZM163.125 87.437C163.135 87.2379 163.212 87.0698 163.355 86.9325C163.498 86.7982 163.664 86.7359 163.855 86.7456C164.045 86.7554 164.204 86.8345 164.333 86.9828C164.461 87.1339 164.52 87.3091 164.51 87.5081C164.499 87.7071 164.423 87.8738 164.28 88.0082C164.137 88.1454 163.97 88.2092 163.78 88.1994C163.59 88.1896 163.43 88.1091 163.302 87.958C163.174 87.8096 163.115 87.636 163.125 87.437Z" fill="black"/>
<path d="M152.303 91.9276C152.365 91.4375 152.481 91.0241 152.651 90.6875C152.818 90.3504 153.019 90.0772 153.252 89.8677C153.481 89.6607 153.719 89.5028 153.966 89.394L154.432 90.2734C154.3 90.35 154.148 90.4488 153.976 90.5698C153.8 90.6905 153.64 90.8655 153.495 91.0947C153.347 91.3264 153.247 91.6414 153.197 92.0397C153.131 92.5727 153.204 93.0288 153.419 93.4079C153.633 93.7871 154.016 94.0111 154.566 94.0801L155.907 94.2484L155.918 94.1624C155.807 94.0728 155.671 93.9481 155.511 93.7882C155.353 93.6316 155.221 93.4171 155.115 93.1448C155.012 92.8757 154.988 92.5263 155.042 92.0964C155.108 91.5634 155.295 91.1006 155.6 90.7081C155.905 90.3184 156.314 90.0306 156.826 89.8445C157.338 89.6613 157.938 89.613 158.626 89.6992C159.302 89.7841 159.876 89.9768 160.348 90.2775C160.822 90.5787 161.171 90.9586 161.393 91.4172C161.617 91.8762 161.695 92.3837 161.625 92.9397C161.571 93.3695 161.457 93.7016 161.282 93.9358C161.109 94.1732 160.924 94.348 160.727 94.46C160.532 94.5753 160.373 94.663 160.249 94.7231L160.236 94.8263L161.285 94.9579L161.162 95.938L154.37 95.086C153.802 95.0148 153.357 94.828 153.034 94.5255C152.708 94.2255 152.489 93.8487 152.377 93.3951C152.262 92.9441 152.237 92.4549 152.303 91.9276ZM155.936 92.3483C155.885 92.7552 155.935 93.1108 156.086 93.415C156.237 93.7192 156.478 93.9663 156.809 94.1563C157.141 94.3464 157.55 94.4719 158.037 94.533C158.513 94.5927 158.941 94.5737 159.323 94.4761C159.705 94.3785 160.017 94.2023 160.259 93.9473C160.5 93.6923 160.647 93.3584 160.699 92.9457C160.753 92.5159 160.689 92.144 160.507 91.8301C160.325 91.519 160.059 91.2689 159.71 91.0796C159.361 90.8931 158.963 90.7719 158.516 90.7158C158.057 90.6583 157.643 90.679 157.272 90.7781C156.904 90.8804 156.602 91.0609 156.366 91.3195C156.132 91.5813 155.989 91.9241 155.936 92.3483Z" fill="black"/>
<path d="M154.275 97.1646L160.717 98.8309L160.47 99.7872L159.463 99.5269L159.442 99.6107C159.751 99.8339 159.962 100.12 160.075 100.468C160.19 100.817 160.194 101.201 160.085 101.621C159.975 102.046 159.787 102.375 159.521 102.607C159.257 102.843 158.933 102.996 158.548 103.067L158.53 103.134C158.82 103.385 159.021 103.701 159.131 104.081C159.244 104.463 159.241 104.884 159.122 105.345C158.973 105.921 158.671 106.346 158.215 106.619C157.762 106.893 157.157 106.932 156.399 106.736L152.088 105.62L152.344 104.63L156.656 105.746C157.131 105.869 157.504 105.826 157.776 105.619C158.047 105.412 158.228 105.132 158.319 104.78C158.437 104.327 158.39 103.94 158.181 103.621C157.974 103.302 157.662 103.088 157.245 102.981L153.051 101.896L153.311 100.889L157.724 102.03C158.09 102.125 158.416 102.083 158.701 101.903C158.989 101.724 159.181 101.447 159.278 101.072C159.345 100.815 159.339 100.557 159.259 100.297C159.18 100.041 159.036 99.8131 158.828 99.6131C158.622 99.4167 158.361 99.2776 158.045 99.1959L154.019 98.1545L154.275 97.1646Z" fill="black"/>
<path d="M150.458 109.352C150.614 108.96 150.829 108.634 151.103 108.373C151.38 108.113 151.697 107.945 152.053 107.869C152.413 107.794 152.794 107.836 153.196 107.996C153.551 108.136 153.81 108.32 153.975 108.547C154.143 108.775 154.243 109.031 154.277 109.314C154.31 109.598 154.302 109.893 154.252 110.199C154.203 110.509 154.141 110.816 154.065 111.118C153.964 111.513 153.879 111.832 153.811 112.075C153.744 112.322 153.72 112.511 153.739 112.643C153.757 112.778 153.843 112.875 153.996 112.936L154.028 112.949C154.426 113.107 154.777 113.12 155.084 112.99C155.389 112.863 155.629 112.58 155.802 112.142C155.982 111.689 156.024 111.294 155.927 110.957C155.831 110.62 155.691 110.355 155.507 110.161L156.187 109.387C156.499 109.697 156.706 110.028 156.809 110.379C156.914 110.734 156.944 111.088 156.901 111.441C156.859 111.797 156.776 112.131 156.653 112.442C156.574 112.641 156.459 112.86 156.309 113.098C156.16 113.341 155.965 113.554 155.724 113.738C155.482 113.925 155.183 114.041 154.826 114.086C154.47 114.131 154.046 114.056 153.555 113.861L149.479 112.245L149.856 111.294L150.694 111.626L150.713 111.578C150.604 111.46 150.503 111.296 150.41 111.085C150.316 110.874 150.265 110.622 150.257 110.33C150.249 110.038 150.316 109.712 150.458 109.352ZM151.255 109.836C151.106 110.211 151.054 110.558 151.099 110.874C151.144 111.193 151.257 111.464 151.438 111.689C151.618 111.916 151.837 112.08 152.095 112.182L152.965 112.527C152.933 112.468 152.924 112.362 152.938 112.209C152.953 112.06 152.981 111.891 153.022 111.702C153.065 111.517 153.108 111.336 153.152 111.161C153.199 110.99 153.235 110.851 153.262 110.744C153.328 110.484 153.367 110.232 153.38 109.989C153.394 109.749 153.356 109.535 153.266 109.347C153.178 109.163 153.013 109.023 152.771 108.927C152.441 108.796 152.143 108.819 151.877 108.996C151.612 109.177 151.405 109.457 151.255 109.836Z" fill="black"/>
<path d="M147.052 117.335L154.667 121.889L154.116 122.811L150.724 120.783L148.296 124.843L151.687 126.871L151.136 127.793L143.521 123.239L144.072 122.317L147.478 124.354L149.906 120.294L146.501 118.257L147.052 117.335Z" fill="black"/>
<path d="M148.735 129.617L149.489 130.2L145.419 135.464L144.665 134.881L146.372 132.674L140.106 127.83L140.763 126.98L147.029 131.824L148.735 129.617Z" fill="black"/>
<path d="M143.449 137.804L142.538 138.706L135.214 135.592L135.14 135.665L138.177 143.021L137.266 143.923L131.025 137.617L131.739 136.91L136.481 141.701L136.543 141.64L133.771 134.899L134.461 134.216L141.174 137.057L141.235 136.996L136.493 132.205L137.208 131.498L143.449 137.804Z" fill="black"/>
<path d="M129.067 139.168L134.469 146.207L133.616 146.861L128.795 140.578L125.523 143.089L124.943 142.333L129.067 139.168Z" fill="black"/>
<path d="M117.099 154.033L118.045 153.523C118.247 153.765 118.474 153.951 118.725 154.081C118.973 154.213 119.234 154.295 119.508 154.328C119.781 154.365 120.056 154.354 120.333 154.297C120.61 154.239 120.878 154.14 121.138 154C121.611 153.745 121.974 153.394 122.229 152.948C122.482 152.504 122.595 151.988 122.571 151.4C122.543 150.815 122.347 150.184 121.982 149.507C121.617 148.831 121.198 148.321 120.723 147.977C120.246 147.634 119.752 147.445 119.242 147.412C118.729 147.38 118.236 147.492 117.763 147.747C117.504 147.887 117.274 148.057 117.074 148.257C116.873 148.457 116.713 148.68 116.593 148.926C116.471 149.175 116.397 149.44 116.371 149.719C116.344 150.003 116.375 150.295 116.464 150.595L115.519 151.105C115.375 150.667 115.312 150.24 115.33 149.824C115.348 149.407 115.437 149.013 115.597 148.641C115.759 148.271 115.983 147.935 116.269 147.633C116.553 147.332 116.892 147.075 117.286 146.863C117.952 146.503 118.632 146.346 119.326 146.392C120.02 146.437 120.678 146.68 121.299 147.119C121.92 147.559 122.453 148.19 122.897 149.014C123.342 149.837 123.577 150.629 123.603 151.389C123.63 152.15 123.471 152.833 123.128 153.438C122.785 154.043 122.281 154.525 121.615 154.885C121.221 155.097 120.82 155.24 120.413 155.312C120.003 155.385 119.599 155.387 119.2 155.317C118.802 155.249 118.424 155.108 118.066 154.895C117.709 154.683 117.387 154.396 117.099 154.033Z" fill="black"/>
<path d="M110.347 157.408C110.557 157.797 110.878 158.037 111.311 158.127C111.744 158.217 112.21 158.163 112.71 157.966C113.075 157.821 113.372 157.636 113.599 157.41C113.824 157.184 113.972 156.938 114.043 156.671C114.112 156.404 114.094 156.14 113.99 155.876C113.903 155.656 113.776 155.487 113.609 155.37C113.44 155.257 113.251 155.181 113.043 155.142C112.836 155.105 112.628 155.09 112.419 155.095C112.211 155.102 112.023 155.116 111.853 155.136L110.926 155.242C110.689 155.27 110.419 155.287 110.117 155.291C109.811 155.297 109.504 155.262 109.194 155.185C108.883 155.112 108.596 154.974 108.332 154.771C108.069 154.568 107.86 154.273 107.708 153.886C107.532 153.44 107.489 152.991 107.581 152.538C107.67 152.087 107.895 151.667 108.257 151.279C108.617 150.892 109.114 150.573 109.748 150.323C110.339 150.089 110.888 149.982 111.396 150.002C111.901 150.023 112.344 150.156 112.726 150.399C113.105 150.644 113.4 150.985 113.611 151.424L112.579 151.831C112.429 151.53 112.223 151.314 111.959 151.182C111.694 151.054 111.401 150.995 111.08 151.007C110.757 151.023 110.432 151.096 110.104 151.225C109.723 151.376 109.404 151.573 109.15 151.816C108.896 152.063 108.724 152.332 108.635 152.625C108.547 152.921 108.562 153.219 108.681 153.52C108.789 153.794 108.954 153.987 109.175 154.098C109.396 154.21 109.653 154.27 109.945 154.278C110.237 154.287 110.544 154.275 110.866 154.241L111.996 154.13C112.714 154.061 113.329 154.124 113.841 154.319C114.353 154.514 114.719 154.89 114.938 155.446C115.121 155.908 115.155 156.36 115.041 156.803C114.925 157.249 114.693 157.651 114.344 158.01C113.993 158.372 113.554 158.657 113.028 158.865C112.496 159.075 111.985 159.166 111.496 159.139C111.008 159.114 110.579 158.986 110.208 158.754C109.834 158.522 109.558 158.201 109.38 157.79L110.347 157.408Z" fill="black"/>
<path d="M102.031 159.935C102.196 160.345 102.489 160.618 102.909 160.756C103.329 160.893 103.799 160.891 104.317 160.75C104.696 160.647 105.011 160.496 105.262 160.296C105.51 160.097 105.685 159.869 105.785 159.611C105.883 159.354 105.895 159.089 105.821 158.816C105.759 158.587 105.651 158.405 105.498 158.27C105.342 158.139 105.164 158.042 104.961 157.981C104.76 157.922 104.555 157.883 104.346 157.865C104.139 157.849 103.95 157.842 103.779 157.844L102.846 157.846C102.607 157.848 102.337 157.834 102.036 157.805C101.732 157.777 101.43 157.708 101.131 157.597C100.83 157.491 100.56 157.322 100.32 157.09C100.081 156.859 99.9065 156.543 99.7975 156.141C99.6719 155.679 99.6796 155.228 99.8207 154.788C99.959 154.35 100.23 153.957 100.633 153.612C101.033 153.267 101.562 153.005 102.22 152.826C102.833 152.66 103.391 152.614 103.893 152.691C104.393 152.767 104.819 152.948 105.172 153.232C105.521 153.517 105.776 153.89 105.937 154.349L104.867 154.639C104.751 154.324 104.57 154.086 104.323 153.925C104.074 153.768 103.789 153.678 103.468 153.654C103.145 153.634 102.814 153.67 102.474 153.763C102.078 153.87 101.74 154.031 101.46 154.245C101.181 154.461 100.98 154.71 100.859 154.991C100.739 155.275 100.721 155.573 100.806 155.886C100.883 156.17 101.025 156.38 101.232 156.515C101.44 156.65 101.688 156.738 101.978 156.78C102.267 156.821 102.574 156.842 102.897 156.844L104.033 156.859C104.754 156.87 105.358 157.001 105.845 157.251C106.332 157.502 106.654 157.916 106.811 158.493C106.941 158.973 106.925 159.426 106.762 159.853C106.598 160.284 106.323 160.658 105.936 160.975C105.547 161.296 105.08 161.531 104.533 161.679C103.981 161.829 103.464 161.863 102.981 161.782C102.499 161.703 102.086 161.528 101.743 161.256C101.397 160.985 101.158 160.635 101.027 160.207L102.031 159.935Z" fill="black"/>
<path d="M91.4449 163.972L90.3773 164.092L89.6673 157.79C89.604 157.227 89.6535 156.737 89.8158 156.321C89.9782 155.905 90.2359 155.573 90.5889 155.327C90.942 155.081 91.3739 154.929 91.8848 154.872C92.367 154.817 92.8059 154.856 93.2016 154.989C93.5976 155.125 93.9217 155.344 94.1738 155.647C94.4259 155.95 94.5774 156.327 94.6281 156.777L93.5777 156.896C93.5495 156.646 93.4633 156.435 93.3188 156.262C93.1719 156.093 92.9835 155.969 92.7537 155.89C92.524 155.811 92.2699 155.787 91.9915 155.819C91.6844 155.853 91.4305 155.947 91.2298 156.101C91.029 156.254 90.8868 156.462 90.803 156.724C90.7166 156.99 90.694 157.305 90.735 157.669L91.4449 163.972Z" fill="black"/>
<path d="M84.9035 155.329C85.3251 155.322 85.7091 155.395 86.0553 155.548C86.4016 155.704 86.6782 155.932 86.8853 156.232C87.0924 156.535 87.1995 156.903 87.2065 157.336C87.2127 157.718 87.1426 158.028 86.9963 158.267C86.85 158.509 86.6523 158.7 86.4033 158.84C86.1543 158.98 85.8787 159.085 85.5765 159.157C85.2715 159.231 84.9648 159.291 84.6565 159.336C84.253 159.395 83.9259 159.439 83.6751 159.469C83.4214 159.502 83.2374 159.553 83.1229 159.621C83.0056 159.689 82.9483 159.806 82.9509 159.97L82.9515 160.005C82.9584 160.433 83.0808 160.763 83.3185 160.996C83.5534 161.229 83.9062 161.342 84.3769 161.334C84.865 161.326 85.2459 161.213 85.5196 160.995C85.7934 160.777 85.9846 160.545 86.0933 160.301L87.0693 160.632C86.9026 161.039 86.6766 161.357 86.3915 161.587C86.1035 161.82 85.7884 161.984 85.4462 162.079C85.1012 162.177 84.7612 162.229 84.4262 162.234C84.2125 162.238 83.9666 162.216 83.6885 162.168C83.4076 162.124 83.1359 162.026 82.8735 161.874C82.6081 161.722 82.3863 161.49 82.2079 161.178C82.0295 160.866 81.9361 160.446 81.9275 159.918L81.8564 155.534L82.8787 155.517L82.8933 156.418H82.9453C83.0123 156.272 83.1253 156.116 83.2843 155.948C83.4434 155.781 83.6563 155.638 83.923 155.518C84.1897 155.398 84.5165 155.335 84.9035 155.329ZM84.7624 156.249C84.3581 156.256 84.0186 156.341 83.744 156.504C83.4664 156.668 83.2589 156.876 83.1215 157.13C82.9812 157.383 82.9133 157.649 82.9178 157.926L82.9329 158.862C82.9754 158.809 83.07 158.76 83.2165 158.714C83.3603 158.671 83.5272 158.632 83.7173 158.598C83.9045 158.566 84.0875 158.537 84.2661 158.511C84.442 158.488 84.5846 158.468 84.6941 158.452C84.9593 158.413 85.2067 158.352 85.4365 158.271C85.6634 158.192 85.8464 158.075 85.9854 157.919C86.1216 157.767 86.1876 157.561 86.1834 157.301C86.1776 156.946 86.0418 156.679 85.7761 156.502C85.5075 156.327 85.1696 156.243 84.7624 156.249Z" fill="black"/>
<path d="M74.0215 161.675L76.9977 155.235L78.0343 155.317L79.9644 162.144L78.8587 162.057L77.4443 156.626L77.3752 156.621L75.1271 161.763L74.0215 161.675Z" fill="black"/>
<path d="M71.2077 154.343C71.623 154.416 71.9861 154.56 72.2971 154.776C72.6075 154.995 72.836 155.272 72.9824 155.605C73.1284 155.942 73.1638 156.324 73.0887 156.75C73.0225 157.126 72.8949 157.417 72.7059 157.624C72.5164 157.834 72.2861 157.984 72.0151 158.074C71.7441 158.165 71.4535 158.216 71.1433 158.229C70.8298 158.244 70.5173 158.245 70.2059 158.231C69.7987 158.212 69.4691 158.193 69.2171 158.175C68.9618 158.16 68.7715 158.175 68.6462 158.22C68.518 158.265 68.4397 158.368 68.4111 158.53L68.4051 158.565C68.3309 158.986 68.3885 159.333 68.5778 159.607C68.7642 159.88 69.0893 160.058 69.5529 160.139C70.0336 160.224 70.4291 160.185 70.7392 160.023C71.0494 159.86 71.281 159.67 71.434 159.45L72.3296 159.96C72.0888 160.328 71.8066 160.598 71.4831 160.77C71.1562 160.944 70.8157 161.045 70.4617 161.074C70.1043 161.105 69.7607 161.091 69.4307 161.033C69.2202 160.996 68.983 160.928 68.7189 160.828C68.4515 160.731 68.2033 160.583 67.9744 160.385C67.7426 160.186 67.5687 159.916 67.4527 159.576C67.3366 159.236 67.3245 158.805 67.4162 158.285L68.177 153.967L69.1839 154.144L69.0275 155.032L69.0787 155.041C69.172 154.911 69.3126 154.778 69.5005 154.644C69.6883 154.51 69.9246 154.41 70.2091 154.343C70.4937 154.275 70.8266 154.275 71.2077 154.343ZM70.8948 155.22C70.4966 155.15 70.1471 155.169 69.8465 155.277C69.543 155.385 69.2998 155.55 69.1168 155.773C68.931 155.996 68.814 156.244 68.7659 156.517L68.6035 157.438C68.6552 157.394 68.7574 157.364 68.9099 157.347C69.0592 157.332 69.2304 157.326 69.4237 157.328C69.6136 157.332 69.7987 157.338 69.9791 157.346C70.1561 157.357 70.2999 157.365 70.4105 157.369C70.6782 157.381 70.9326 157.369 71.1737 157.332C71.4114 157.298 71.6133 157.218 71.7792 157.091C71.9418 156.968 72.0456 156.778 72.0907 156.522C72.1524 156.172 72.0696 155.884 71.8423 155.66C71.6117 155.437 71.2958 155.291 70.8948 155.22Z" fill="black"/>
<path d="M60.3308 157.247L61.2853 157.241C61.3003 157.404 61.3429 157.57 61.4132 157.739C61.4798 157.91 61.5924 158.067 61.7509 158.209C61.9093 158.352 62.1319 158.463 62.4187 158.542C62.8114 158.65 63.1635 158.65 63.4751 158.541C63.7832 158.434 63.9752 158.243 64.0511 157.967C64.1187 157.722 64.0829 157.504 63.9438 157.313C63.8047 157.122 63.5589 156.927 63.2063 156.728L62.3185 156.231C61.7832 155.934 61.4145 155.603 61.2123 155.239C61.0093 154.877 60.9696 154.473 61.0932 154.024C61.1944 153.657 61.3908 153.357 61.6822 153.126C61.9709 152.894 62.3261 152.746 62.7481 152.683C63.17 152.619 63.6302 152.656 64.1286 152.794C64.783 152.974 65.2854 153.265 65.636 153.667C65.9865 154.069 66.1437 154.559 66.1074 155.136L65.1074 155.112C65.1134 154.743 65.0163 154.437 64.8161 154.196C64.6131 153.955 64.3097 153.778 63.9059 153.667C63.4465 153.54 63.0549 153.537 62.7311 153.658C62.4037 153.78 62.2021 153.979 62.1261 154.255C62.0647 154.478 62.0913 154.686 62.2058 154.879C62.3195 155.075 62.5275 155.255 62.8298 155.42L63.8299 155.965C64.3791 156.266 64.7512 156.601 64.9463 156.969C65.1379 157.339 65.1726 157.746 65.0506 158.189C64.9509 158.551 64.761 158.843 64.481 159.065C64.1982 159.287 63.8582 159.428 63.4608 159.49C63.0607 159.55 62.635 159.518 62.184 159.394C61.5491 159.219 61.089 158.942 60.8038 158.564C60.5158 158.185 60.3581 157.746 60.3308 157.247Z" fill="black"/>
<path d="M57.4697 150.608C58.0526 150.83 58.5022 151.159 58.8183 151.594C59.1344 152.03 59.3138 152.533 59.3564 153.102C59.399 153.672 59.3021 154.267 59.0655 154.888C58.8249 155.519 58.4964 156.032 58.0802 156.427C57.6603 156.823 57.1892 157.078 56.667 157.191C56.1411 157.306 55.5974 157.257 55.036 157.043C54.5988 156.876 54.2356 156.645 53.9465 156.349C53.6573 156.054 53.4563 155.717 53.3433 155.341C53.2304 154.964 53.221 154.571 53.3151 154.162L54.2705 154.526C54.2354 154.837 54.3017 155.149 54.4694 155.464C54.6333 155.78 54.9259 156.018 55.3469 156.178C55.7193 156.32 56.0829 156.347 56.4377 156.26C56.7887 156.174 57.1093 155.986 57.3996 155.695C57.6861 155.405 57.9188 155.026 58.0978 154.556C58.2808 154.076 58.3647 153.628 58.3493 153.215C58.3312 152.8 58.2207 152.441 58.0178 152.138C57.8122 151.834 57.5205 151.61 57.1426 151.466C56.8943 151.371 56.6525 151.329 56.4172 151.338C56.1818 151.347 55.9631 151.406 55.7611 151.514C55.559 151.623 55.3851 151.779 55.2393 151.983L54.2839 151.619C54.4778 151.273 54.7374 150.993 55.0627 150.78C55.3843 150.569 55.7521 150.443 56.166 150.403C56.5763 150.365 57.0108 150.433 57.4697 150.608Z" fill="black"/>
<path d="M53.3831 149.061L50.5072 155.062L49.6164 154.635L50.0508 153.729L49.9883 153.699C49.7366 153.943 49.4232 154.089 49.0481 154.137C48.6729 154.185 48.3056 154.122 47.9462 153.95C47.8785 153.918 47.7945 153.876 47.6941 153.825C47.5938 153.773 47.5188 153.733 47.4692 153.702L47.9186 152.765C47.9461 152.787 48.0121 152.834 48.1166 152.903C48.2173 152.973 48.3288 153.038 48.4512 153.097C48.743 153.237 49.0327 153.3 49.3206 153.288C49.6046 153.276 49.8642 153.196 50.0994 153.046C50.3308 152.897 50.5113 152.688 50.6411 152.417L52.461 148.619L53.3831 149.061Z" fill="black"/>
<path d="M49.1009 146.924L45.9031 152.76L45.0065 152.268L48.2042 146.433L49.1009 146.924ZM44.9143 153.483C45.089 153.578 45.2071 153.72 45.2685 153.909C45.3274 154.096 45.3111 154.273 45.2195 154.44C45.1279 154.607 44.9874 154.716 44.798 154.768C44.6062 154.817 44.4228 154.794 44.2481 154.698C44.0733 154.603 43.9565 154.461 43.8976 154.274C43.8362 154.086 43.8513 153.908 43.9429 153.741C44.0345 153.574 44.1762 153.465 44.3681 153.415C44.5574 153.364 44.7395 153.387 44.9143 153.483Z" fill="black"/>
<path d="M47.7767 143.373L42.8024 151.053L41.9733 150.516L42.548 149.628L42.4462 149.562C42.3204 149.619 42.153 149.686 41.9442 149.764C41.7313 149.843 41.481 149.873 41.1931 149.855C40.9013 149.838 40.5736 149.712 40.2099 149.477C39.7396 149.172 39.4013 148.786 39.1948 148.318C38.9883 147.851 38.9242 147.336 39.0025 146.774C39.0808 146.213 39.3099 145.638 39.6899 145.052C40.073 144.46 40.5057 144.013 40.988 143.709C41.4687 143.408 41.9641 143.254 42.4744 143.247C42.983 143.243 43.4701 143.391 43.9355 143.693C44.2943 143.925 44.5431 144.171 44.6819 144.429C44.8191 144.69 44.8965 144.935 44.9139 145.163C44.9298 145.393 44.9363 145.58 44.9334 145.723L45.0061 145.77L46.9185 142.817L47.7767 143.373ZM43.7676 147.714C44.0408 147.292 44.22 146.88 44.3052 146.477C44.3889 146.077 44.3708 145.709 44.251 145.373C44.1296 145.04 43.8968 144.762 43.5526 144.539C43.1938 144.307 42.8332 144.207 42.4707 144.241C42.1042 144.275 41.756 144.415 41.4259 144.659C41.0919 144.903 40.7961 145.225 40.5386 145.622C40.2843 146.015 40.1156 146.408 40.0327 146.802C39.9458 147.196 39.9639 147.564 40.087 147.905C40.2061 148.247 40.4474 148.536 40.8111 148.772C41.1601 148.998 41.5108 149.099 41.863 149.076C42.2136 149.056 42.5516 148.927 42.8769 148.69C43.2006 148.456 43.4976 148.13 43.7676 147.714Z" fill="black"/>
<path d="M33.79 144.733L34.3181 144.046L37.0521 146.148L36.5239 146.835L33.79 144.733ZM34.7554 147.486L33.9448 146.863L37.8107 141.835C37.9868 141.606 38.0856 141.408 38.1072 141.243C38.1248 141.078 38.0959 140.935 38.0205 140.815C37.941 140.696 37.8418 140.591 37.7227 140.499C37.6334 140.43 37.5566 140.379 37.4923 140.344C37.4263 140.311 37.3734 140.285 37.3338 140.266L37.7288 139.411C37.7996 139.432 37.8921 139.471 38.0064 139.526C38.1225 139.579 38.2561 139.663 38.4072 139.779C38.6362 139.955 38.8227 140.177 38.9668 140.445C39.1087 140.71 39.1742 140.999 39.1636 141.312C39.1506 141.622 39.0262 141.931 38.7903 142.238L34.7554 147.486Z" fill="black"/>
<path d="M34.1674 136.308L27.8934 142.582L25.7735 140.462C25.2834 139.972 24.9648 139.486 24.8177 139.004C24.6686 138.524 24.6635 138.063 24.8024 137.622C24.9413 137.181 25.1956 136.776 25.5652 136.406C25.9349 136.037 26.3382 135.784 26.7753 135.65C27.2124 135.515 27.6688 135.522 28.1447 135.671C28.6185 135.822 29.0984 136.141 29.5845 136.627L31.3 138.342L30.6138 139.029L28.9228 137.337C28.5878 137.003 28.2692 136.782 27.967 136.676C27.6627 136.568 27.3747 136.557 27.1031 136.645C26.8274 136.733 26.5639 136.902 26.3127 137.154C26.0615 137.405 25.8889 137.671 25.795 137.953C25.701 138.235 25.7061 138.53 25.8103 138.839C25.9124 139.149 26.133 139.474 26.472 139.813L27.8076 141.148L33.4077 135.548L34.1674 136.308ZM28.3959 136.173L29.6703 131.811L30.5526 132.693L29.2536 137.031L28.3959 136.173Z" fill="black"/>
<path d="M27.1782 128.548C27.5818 129.046 27.8201 129.565 27.8929 130.105C27.9616 130.644 27.8765 131.172 27.6375 131.689C27.3944 132.206 27.0081 132.678 26.4784 133.107C25.9488 133.537 25.4039 133.818 24.8436 133.953C24.2792 134.086 23.7428 134.071 23.2343 133.907C22.7217 133.742 22.2764 133.427 21.8982 132.96C21.68 132.691 21.5094 132.388 21.3864 132.053C21.2635 131.718 21.2157 131.361 21.2431 130.982C21.2683 130.604 21.394 130.218 21.6202 129.823C21.8465 129.428 22.2009 129.035 22.6833 128.644L23.02 128.371L26.2491 132.357L25.5625 132.913L22.9878 129.735C22.6961 129.972 22.483 130.241 22.3487 130.543C22.2125 130.843 22.1646 131.153 22.2049 131.474C22.2434 131.792 22.3791 132.095 22.6118 132.382C22.8682 132.698 23.1685 132.908 23.5129 133.012C23.8532 133.116 24.1979 133.128 24.547 133.05C24.8961 132.971 25.2132 132.817 25.4982 132.586L25.956 132.215C26.3464 131.899 26.6229 131.563 26.7853 131.208C26.9437 130.853 26.9954 130.497 26.9404 130.14C26.8832 129.785 26.7246 129.447 26.4646 129.126C26.2955 128.918 26.1136 128.753 25.9189 128.632C25.7201 128.51 25.5112 128.436 25.2923 128.409C25.0711 128.384 24.8435 128.41 24.6094 128.488L24.203 127.546C24.5288 127.416 24.8677 127.366 25.2197 127.397C25.5695 127.43 25.913 127.542 26.2502 127.733C26.5852 127.926 26.8946 128.198 27.1782 128.548Z" fill="black"/>
<path d="M23.3301 123.293C23.5619 123.645 23.7058 124.008 23.762 124.383C23.8158 124.759 23.7716 125.115 23.6294 125.45C23.4847 125.787 23.2314 126.075 22.8695 126.313C22.551 126.523 22.2515 126.63 21.9711 126.634C21.6883 126.641 21.4211 126.576 21.1696 126.441C20.9181 126.306 20.6813 126.129 20.4591 125.913C20.2329 125.695 20.018 125.468 19.8144 125.232C19.5487 124.923 19.3359 124.671 19.1761 124.475C19.0123 124.278 18.8709 124.15 18.7519 124.09C18.6313 124.028 18.5023 124.042 18.3647 124.132L18.3358 124.151C17.9787 124.386 17.7655 124.667 17.6962 124.992C17.6253 125.315 17.7193 125.674 17.978 126.067C18.2463 126.475 18.5459 126.736 18.8768 126.85C19.2078 126.964 19.5056 127.001 19.7702 126.962L20.014 127.963C19.5809 128.041 19.1909 128.021 18.844 127.903C18.493 127.785 18.1857 127.607 17.922 127.369C17.6543 127.13 17.4284 126.871 17.2442 126.591C17.1268 126.413 17.0136 126.193 16.9046 125.933C16.7916 125.672 16.7289 125.39 16.7163 125.087C16.7021 124.782 16.7789 124.47 16.9467 124.152C17.1145 123.835 17.4191 123.531 17.8607 123.24L21.5235 120.83L22.0854 121.684L21.3326 122.18L21.3612 122.223C21.5199 122.202 21.7125 122.213 21.9389 122.258C22.1654 122.303 22.4007 122.405 22.6448 122.566C22.889 122.727 23.1174 122.969 23.3301 123.293ZM22.4771 123.667C22.2548 123.329 22.0012 123.088 21.7161 122.944C21.4294 122.797 21.1422 122.734 20.8545 122.754C20.5652 122.771 20.3047 122.856 20.0731 123.008L19.2913 123.523C19.3585 123.53 19.4507 123.584 19.5679 123.683C19.681 123.781 19.8033 123.902 19.9346 124.043C20.0619 124.184 20.1844 124.323 20.3021 124.46C20.4159 124.596 20.5089 124.706 20.5813 124.79C20.7563 124.993 20.9399 125.169 21.132 125.32C21.3201 125.469 21.517 125.561 21.7227 125.595C21.9244 125.628 22.1338 125.573 22.351 125.43C22.6477 125.235 22.7999 124.978 22.8075 124.658C22.811 124.338 22.7009 124.007 22.4771 123.667Z" fill="black"/>
<path d="M19.3877 116.684C19.6783 117.236 19.7982 117.78 19.7473 118.316C19.6965 118.852 19.4988 119.348 19.1544 119.803C18.8099 120.259 18.3437 120.641 17.7559 120.951C17.1578 121.265 16.5722 121.433 15.999 121.454C15.4219 121.474 14.9 121.354 14.4334 121.094C13.9628 120.832 13.5876 120.435 13.3078 119.904C13.0899 119.49 12.9701 119.076 12.9486 118.663C12.927 118.25 12.9985 117.865 13.1628 117.508C13.3272 117.15 13.58 116.849 13.9211 116.604L14.3973 117.509C14.1653 117.719 14.0083 117.998 13.9264 118.344C13.8406 118.69 13.9026 119.062 14.1125 119.461C14.2981 119.813 14.5529 120.074 14.8768 120.243C15.1969 120.411 15.562 120.481 15.9723 120.455C16.3787 120.427 16.8042 120.296 17.249 120.062C17.7039 119.822 18.0624 119.542 18.3244 119.222C18.5851 118.898 18.7394 118.556 18.7875 118.195C18.8341 117.831 18.7633 117.47 18.5749 117.112C18.4512 116.877 18.298 116.685 18.1153 116.536C17.9326 116.388 17.7296 116.287 17.5063 116.235C17.283 116.183 17.0492 116.185 16.8049 116.242L16.3287 115.337C16.7032 115.205 17.0828 115.167 17.4677 115.222C17.8487 115.276 18.2077 115.425 18.5448 115.669C18.878 115.911 19.159 116.25 19.3877 116.684Z" fill="black"/>
<path d="M10.0852 112.778L10.8811 112.435L12.2448 115.603L11.449 115.945L10.0852 112.778ZM9.58719 115.652L9.18286 114.713L15.0084 112.205C15.2737 112.091 15.4561 111.967 15.5556 111.833C15.6514 111.697 15.6955 111.559 15.6881 111.417C15.6768 111.274 15.6415 111.134 15.5821 110.996C15.5376 110.892 15.4957 110.81 15.4565 110.748C15.4147 110.688 15.3813 110.639 15.3562 110.603L16.1175 110.048C16.1688 110.102 16.231 110.18 16.304 110.284C16.3796 110.387 16.4551 110.526 16.5305 110.701C16.6447 110.966 16.6996 111.251 16.6952 111.554C16.6896 111.856 16.6061 112.14 16.4446 112.408C16.282 112.673 16.0229 112.882 15.6674 113.035L9.58719 115.652Z" fill="black"/>
<path d="M5.86403 107.641L12.3597 103.11L12.3319 103.01L4.43087 102.464L4.13037 101.378L13.5507 102.151L13.8466 103.22L6.16453 108.727L5.86403 107.641Z" fill="black"/>
<path d="M12.4563 97.4788L5.9202 98.7287L5.72816 97.7245L12.2643 96.4746L12.4563 97.4788ZM4.7332 98.4264C4.77064 98.6222 4.73625 98.8037 4.63004 98.971C4.52329 99.1355 4.3763 99.2357 4.18906 99.2715C4.00183 99.3073 3.82826 99.2684 3.66834 99.1549C3.50789 99.0386 3.40894 98.8825 3.37151 98.6868C3.33408 98.4911 3.36874 98.3109 3.47549 98.1464C3.5817 97.9791 3.72842 97.8775 3.91565 97.8417C4.10289 97.8059 4.27673 97.8462 4.43719 97.9625C4.5971 98.076 4.69577 98.2307 4.7332 98.4264Z" fill="black"/>
<path d="M6.1936 90.4829L6.56436 91.3625C6.41954 91.4386 6.28238 91.5413 6.1529 91.6709C6.02019 91.7979 5.91824 91.9619 5.84706 92.1628C5.77588 92.3637 5.75855 92.6117 5.79509 92.9069C5.8451 93.3111 5.97993 93.6363 6.19958 93.8827C6.41602 94.1266 6.66612 94.231 6.9499 94.1959C7.20214 94.1647 7.39 94.0484 7.51349 93.8468C7.63698 93.6453 7.72333 93.3436 7.77255 92.9417L7.89203 91.9316C7.96228 91.3234 8.12712 90.8562 8.38653 90.5301C8.64308 90.2044 9.0021 90.0131 9.46359 89.956C9.84196 89.9092 10.1937 89.9763 10.5187 90.1573C10.8434 90.3353 11.1157 90.6071 11.3356 90.9728C11.5555 91.3385 11.6971 91.7779 11.7606 92.291C11.844 92.9646 11.7668 93.5402 11.529 94.0178C11.2913 94.4954 10.8988 94.8277 10.3515 95.0148L9.99154 94.0814C10.3356 93.9457 10.5807 93.7394 10.7269 93.4623C10.8727 93.1824 10.9199 92.8345 10.8684 92.4188C10.8099 91.9459 10.6631 91.5828 10.4281 91.3296C10.1898 91.0738 9.92878 90.9636 9.645 90.9988C9.41569 91.0271 9.23357 91.1311 9.09865 91.3107C8.96086 91.4908 8.87384 91.7519 8.83759 92.094L8.71581 93.2265C8.64733 93.849 8.48016 94.3208 8.2143 94.6418C7.94523 94.9603 7.58281 95.1478 7.12705 95.2042C6.75442 95.2503 6.41184 95.1866 6.09931 95.0128C5.78642 94.8361 5.52576 94.5759 5.31733 94.2321C5.10855 93.8854 4.97543 93.4799 4.91797 93.0155C4.8371 92.362 4.91693 91.8312 5.15746 91.4231C5.39764 91.0121 5.74302 90.6987 6.1936 90.4829Z" fill="black"/>
<path d="M8.33281 83.8436L4.40044 83.9499L4.3728 82.9279L11.0249 82.748L11.0526 83.7701L9.92655 83.8005L9.92842 83.8699C10.2705 84.0167 10.5643 84.2514 10.8099 84.5742C11.0527 84.897 11.1809 85.3095 11.1945 85.8118C11.2057 86.2276 11.1248 86.5996 10.9516 86.9279C10.7756 87.2563 10.5053 87.5178 10.1407 87.7126C9.77325 87.9075 9.30657 88.0125 8.74068 88.0279L4.51382 88.1423L4.48618 87.1201L8.64375 87.0077C9.1288 86.9945 9.51201 86.8484 9.79339 86.5692C10.0747 86.2871 10.2096 85.9338 10.1981 85.5094C10.1913 85.2553 10.1193 84.9987 9.98228 84.7395C9.84517 84.4774 9.63994 84.2604 9.36659 84.0887C9.09316 83.914 8.74857 83.8324 8.33281 83.8436Z" fill="black"/>
<path d="M11.3734 78.5715C11.3431 78.992 11.2363 79.368 11.0531 79.6994C10.867 80.0306 10.6155 80.286 10.2984 80.4659C9.97854 80.6455 9.60252 80.7197 9.17041 80.6885C8.79015 80.661 8.48732 80.5638 8.26191 80.397C8.03362 80.2299 7.86083 80.0162 7.74353 79.7558C7.62623 79.4954 7.54538 79.2116 7.50096 78.9043C7.45387 78.5939 7.42129 78.2832 7.40321 77.972C7.38048 77.565 7.3652 77.2352 7.35737 76.9827C7.34687 76.7271 7.31265 76.5393 7.25471 76.4193C7.19698 76.2964 7.08601 76.229 6.92181 76.2172L6.88724 76.2147C6.46089 76.1839 6.12118 76.2767 5.86811 76.4929C5.61524 76.7063 5.47186 77.0478 5.43796 77.5174C5.4028 78.0042 5.48183 78.3936 5.67504 78.6856C5.86824 78.9775 6.08178 79.1884 6.31565 79.3182L5.90007 80.2612C5.50925 80.0592 5.21189 79.8061 5.00799 79.5018C4.80142 79.1944 4.66586 78.8661 4.6013 78.5168C4.53408 78.1645 4.51253 77.8212 4.53666 77.4871C4.55206 77.2739 4.59566 77.0309 4.66748 76.7581C4.73663 76.4822 4.85835 76.2202 5.03263 75.9722C5.20712 75.7213 5.45761 75.5207 5.78409 75.3705C6.11057 75.2204 6.5374 75.1643 7.06458 75.2024L11.4376 75.5181L11.364 76.5379L10.4652 76.473L10.4613 76.5249C10.6004 76.6044 10.7462 76.7308 10.8987 76.904C11.0513 77.0771 11.1755 77.3018 11.2714 77.5781C11.3673 77.8543 11.4013 78.1854 11.3734 78.5715ZM10.4687 78.3497C10.4978 77.9464 10.443 77.6008 10.3046 77.3128C10.1663 77.0219 9.97699 76.7969 9.73655 76.6376C9.49633 76.4755 9.23794 76.3844 8.96139 76.3645L8.02802 76.2971C8.07675 76.344 8.11742 76.4425 8.15003 76.5925C8.17996 76.7395 8.2039 76.9092 8.22186 77.1016C8.23715 77.2909 8.24987 77.4757 8.26002 77.656C8.26749 77.8332 8.27448 77.977 8.28098 78.0875C8.29641 78.3551 8.3347 78.6069 8.39584 78.8429C8.45431 79.0759 8.55478 79.2685 8.69727 79.4207C8.83709 79.5698 9.03663 79.6537 9.2959 79.6724C9.65023 79.698 9.92761 79.5863 10.1281 79.3372C10.3258 79.0851 10.4394 78.7559 10.4687 78.3497Z" fill="black"/>
<path d="M3.06925 71.3459L11.8539 72.593L11.7102 73.6053L2.92554 72.3582L3.06925 71.3459Z" fill="black"/>
<path d="M7.70737 60.5892C7.27013 60.524 6.88588 60.6379 6.55463 60.9308C6.22338 61.2237 5.98716 61.6294 5.84596 62.1477C5.74272 62.5267 5.71369 62.875 5.75888 63.1927C5.80482 63.5075 5.91345 63.7736 6.08476 63.9909C6.25682 64.2054 6.47941 64.3498 6.7525 64.4242C6.98101 64.4865 7.19228 64.4857 7.3863 64.4218C7.5783 64.3543 7.75217 64.249 7.90791 64.1059C8.06087 63.9619 8.198 63.8047 8.31929 63.6342C8.43779 63.4629 8.53957 63.3035 8.62464 63.1561L9.09557 62.3504C9.21482 62.1434 9.3632 61.9174 9.5407 61.6724C9.71896 61.4246 9.93143 61.1996 10.1781 60.9974C10.4228 60.7916 10.7054 60.6441 11.0261 60.5548C11.3468 60.4655 11.7078 60.4756 12.109 60.5849C12.5716 60.7109 12.9566 60.946 13.264 61.2901C13.5721 61.6315 13.7733 62.0635 13.8674 62.5861C13.9623 63.1058 13.9202 63.6946 13.741 64.3522C13.574 64.9653 13.3305 65.4692 13.0104 65.864C12.6911 66.256 12.3196 66.5319 11.8958 66.6919C11.4728 66.8491 11.0227 66.8806 10.5454 66.7865L10.8369 65.7164C11.1677 65.7766 11.4649 65.7408 11.7283 65.609C11.9897 65.4737 12.2118 65.2737 12.3946 65.0092C12.5754 64.7412 12.7121 64.4371 12.8047 64.0972C12.9125 63.7015 12.9452 63.3287 12.9028 62.9789C12.8576 62.6283 12.7444 62.3295 12.5632 62.0826C12.3792 61.8349 12.1311 61.6686 11.819 61.5835C11.5348 61.5061 11.2819 61.5225 11.0602 61.6328C10.8386 61.743 10.6368 61.9126 10.4547 62.1414C10.2726 62.3702 10.0988 62.6237 9.9332 62.9019L9.34529 63.8733C8.97082 64.4897 8.5521 64.9444 8.08912 65.2374C7.62614 65.5303 7.10623 65.5983 6.52938 65.4411C6.05007 65.3105 5.66736 65.0671 5.38126 64.7108C5.09313 64.3509 4.91011 63.9239 4.83219 63.4297C4.75225 62.9319 4.78667 62.4099 4.93545 61.8637C5.08576 61.312 5.31829 60.8485 5.63305 60.4732C5.94503 60.0972 6.30516 59.8301 6.71346 59.6719C7.12252 59.5109 7.54492 59.4823 7.98066 59.586L7.70737 60.5892Z" fill="black"/>
<path d="M9.79826 54.5469L10.6122 54.844L9.42999 58.0836L8.61602 57.7865L9.79826 54.5469ZM7.46289 56.2958L7.8134 55.3353L13.7717 57.5096C14.043 57.6087 14.2608 57.6436 14.4252 57.6144C14.5879 57.5815 14.715 57.5111 14.8067 57.4031C14.8967 57.2914 14.9674 57.165 15.0189 57.024C15.0575 56.9181 15.0837 56.8293 15.0976 56.7575C15.1088 56.6848 15.1178 56.6265 15.1245 56.5829L16.0586 56.7024C16.0592 56.7764 16.0505 56.8762 16.0323 57.0018C16.0169 57.1284 15.9765 57.2812 15.9111 57.4603C15.8121 57.7316 15.6568 57.9762 15.445 58.1941C15.2343 58.4093 14.9784 58.5588 14.6772 58.6426C14.3771 58.7237 14.0452 58.6979 13.6816 58.5652L7.46289 56.2958Z" fill="black"/>
<path d="M15.7428 50.7683L12.166 49.131L12.5915 48.2013L18.6423 50.9711L18.2167 51.9008L17.1925 51.4319L17.1636 51.495C17.406 51.7774 17.5663 52.1176 17.6446 52.5156C17.7203 52.9124 17.6535 53.3392 17.4443 53.7962C17.2712 54.1744 17.0346 54.4726 16.7345 54.691C16.4318 54.9082 16.0739 55.0239 15.6608 55.0381C15.2451 55.0511 14.7799 54.9398 14.2652 54.7042L10.4204 52.9442L10.846 52.0146L14.6277 53.7457C15.0689 53.9476 15.4773 53.9853 15.8529 53.8586C16.2298 53.7294 16.5065 53.4717 16.6832 53.0857C16.789 52.8546 16.8375 52.5925 16.8287 52.2994C16.8212 52.0037 16.7325 51.7185 16.5628 51.4439C16.3943 51.1666 16.121 50.9415 15.7428 50.7683Z" fill="black"/>
<path d="M21.0218 46.9674C20.7399 47.4449 20.3704 47.7953 19.9133 48.0184C19.4537 48.2401 18.9416 48.3235 18.377 48.2686C17.8099 48.2122 17.223 48.0048 16.6161 47.6465C16.0142 47.2912 15.5528 46.8796 15.232 46.4118C14.9112 45.944 14.7388 45.4548 14.7148 44.9443C14.6909 44.4338 14.8214 43.9373 15.1062 43.4548C15.3265 43.0817 15.5627 42.8237 15.8148 42.6807C16.0659 42.5338 16.3035 42.4494 16.5278 42.4275C16.751 42.4016 16.9314 42.3857 17.0691 42.3798L17.1131 42.3052L14.2927 40.64L14.8125 39.7596L22.453 44.2705L21.9509 45.1211L21.0704 44.6013L21.0087 44.7057C21.075 44.8321 21.1525 45.0019 21.2412 45.2153C21.3274 45.4272 21.3673 45.6805 21.361 45.9753C21.3522 46.2686 21.2391 46.5993 21.0218 46.9674ZM20.3014 46.381C20.5099 46.0279 20.5941 45.6751 20.5539 45.3227C20.5113 44.9688 20.3633 44.6315 20.1099 44.3109C19.854 43.9887 19.5096 43.6999 19.0769 43.4444C18.6491 43.1919 18.238 43.033 17.8438 42.968C17.447 42.9014 17.0872 42.9372 16.7642 43.0752C16.4387 43.2117 16.1703 43.4591 15.9588 43.8172C15.7386 44.1903 15.6508 44.5577 15.6955 44.9195C15.7391 45.2773 15.8871 45.6146 16.1395 45.9313C16.3909 46.2441 16.7181 46.5194 17.121 46.7573C17.5289 46.9981 17.9362 47.1547 18.3429 47.2271C18.7485 47.2956 19.1223 47.2647 19.4642 47.1345C19.805 47.0003 20.0841 46.7491 20.3014 46.381Z" fill="black"/>
<path d="M23.5992 42.6331L18.1323 38.839L18.7152 37.999L24.1822 41.7932L23.5992 42.6331ZM17.5175 37.7795C17.4039 37.9433 17.2502 38.0457 17.0563 38.087C16.8641 38.1259 16.6897 38.0909 16.5331 37.9823C16.3765 37.8736 16.2827 37.7224 16.2519 37.5287C16.2227 37.3327 16.265 37.1528 16.3786 36.9891C16.4922 36.8254 16.6451 36.7241 16.8373 36.6852C17.0312 36.644 17.2064 36.6777 17.363 36.7864C17.5196 36.8951 17.6125 37.0474 17.6417 37.2435C17.6726 37.4371 17.6312 37.6158 17.5175 37.7795Z" fill="black"/>
<path d="M27.1471 38.0931C26.7698 38.5606 26.3275 38.8811 25.8202 39.0544C25.3148 39.2254 24.7822 39.2485 24.2225 39.1234C23.6646 38.9961 23.1181 38.7166 22.5832 38.2849C22.0437 37.8496 21.6518 37.3718 21.4072 36.8516C21.1645 36.3291 21.0734 35.8028 21.1338 35.2726C21.196 34.7401 21.4158 34.2401 21.7931 33.7726C22.1703 33.3051 22.6117 32.9858 23.1172 32.8147C23.6245 32.6414 24.1582 32.6193 24.7183 32.7484C25.2803 32.8753 25.831 33.1564 26.3704 33.5917C26.9054 34.0234 27.2931 34.4996 27.5336 35.0202C27.7759 35.5386 27.8659 36.0641 27.8036 36.5965C27.7432 37.1267 27.5243 37.6256 27.1471 38.0931ZM26.4323 37.5163C26.7189 37.1612 26.8637 36.7955 26.8666 36.4193C26.8695 36.0432 26.7671 35.6803 26.5593 35.3307C26.3515 34.9812 26.0745 34.6667 25.7283 34.3874C25.3822 34.1081 25.0152 33.9029 24.6274 33.7718C24.2396 33.6407 23.861 33.6154 23.4917 33.6959C23.1224 33.7764 22.7944 33.9943 22.5078 34.3494C22.2213 34.7045 22.0776 35.0711 22.0769 35.4491C22.0762 35.8271 22.1809 36.1918 22.391 36.5432C22.601 36.8945 22.8791 37.2099 23.2253 37.4892C23.5714 37.7685 23.9373 37.9728 24.3229 38.1021C24.7084 38.2314 25.0848 38.2549 25.4518 38.1725C25.8189 38.0902 26.1457 37.8715 26.4323 37.5163Z" fill="black"/>
<path d="M33.8659 22.4341L33.0652 23.1506C32.8118 22.9627 32.5479 22.8345 32.2735 22.7661C32.0012 22.6958 31.7282 22.6766 31.4544 22.7084C31.1808 22.7362 30.9159 22.8105 30.6597 22.9313C30.4034 23.0521 30.1655 23.2107 29.946 23.4072C29.5457 23.7654 29.2736 24.1912 29.1296 24.6843C28.9879 25.1755 28.9974 25.7038 29.1584 26.2691C29.3214 26.8324 29.6592 27.4004 30.1715 27.9728C30.6839 28.5453 31.211 28.9438 31.7528 29.1681C32.2969 29.3906 32.8208 29.4585 33.3247 29.3719C33.8308 29.2833 34.2839 29.0599 34.6843 28.7017C34.9038 28.5052 35.0877 28.2863 35.2361 28.045C35.3845 27.8037 35.4886 27.5497 35.5484 27.283C35.6084 27.0123 35.6185 26.7377 35.5787 26.4594C35.5391 26.1769 35.4409 25.9005 35.2841 25.63L36.0847 24.9134C36.3269 25.3053 36.4877 25.7059 36.5673 26.1153C36.6469 26.5247 36.6521 26.929 36.5829 27.3281C36.5118 27.7251 36.3722 28.1039 36.164 28.4646C35.9579 28.8234 35.6881 29.1521 35.3545 29.4507C34.7907 29.9553 34.1659 30.2663 33.4803 30.3838C32.7947 30.5012 32.0987 30.4187 31.3924 30.1361C30.686 29.8535 30.0208 29.3636 29.3967 28.6662C28.7726 27.9689 28.3592 27.2536 28.1565 26.5203C27.9537 25.7871 27.9486 25.0862 28.1411 24.4178C28.3336 23.7494 28.7118 23.1629 29.2757 22.6582C29.6093 22.3597 29.9658 22.1278 30.3452 21.9627C30.7267 21.7957 31.1196 21.6999 31.524 21.6753C31.9264 21.6485 32.3266 21.6973 32.7247 21.8216C33.1209 21.9438 33.5013 22.148 33.8659 22.4341Z" fill="black"/>
<path d="M41.6615 24.4569C41.1712 24.804 40.6583 24.9919 40.123 25.0205C39.5901 25.0475 39.0713 24.9246 38.5668 24.6518C38.0647 24.3774 37.615 23.9597 37.2178 23.3987C36.8173 22.8329 36.5702 22.2664 36.4766 21.6993C36.3853 21.1305 36.4409 20.5992 36.6435 20.1055C36.8483 19.6101 37.1959 19.1889 37.6863 18.8417C38.1766 18.4946 38.6882 18.3076 39.2212 18.2806C39.7565 18.252 40.2761 18.376 40.7799 18.6528C41.2861 18.9279 41.7394 19.3483 42.1399 19.9141C42.5371 20.4751 42.7805 21.0389 42.8701 21.6053C42.9621 22.1701 42.9056 22.7002 42.7008 23.1956C42.4982 23.6893 42.1518 24.1097 41.6615 24.4569ZM41.1308 23.7072C41.5032 23.4436 41.7421 23.1311 41.8474 22.77C41.9526 22.4088 41.9529 22.0318 41.8481 21.6388C41.7433 21.2459 41.5624 20.8679 41.3054 20.5049C41.0484 20.1418 40.7512 19.8444 40.4137 19.6127C40.0763 19.3809 39.7189 19.2535 39.3416 19.2305C38.9643 19.2074 38.5894 19.3277 38.217 19.5914C37.8445 19.855 37.6065 20.1686 37.5029 20.5322C37.3993 20.8957 37.4007 21.2751 37.5072 21.6704C37.6136 22.0657 37.7953 22.4449 38.0523 22.8079C38.3093 23.1709 38.6057 23.4671 38.9415 23.6965C39.2773 23.9259 39.633 24.051 40.0087 24.0717C40.3843 24.0924 40.7583 23.9709 41.1308 23.7072Z" fill="black"/>
<path d="M47.7591 20.5806C47.2756 20.8523 46.7802 20.97 46.2728 20.9338C45.764 20.8951 45.2792 20.7103 44.8183 20.3796C44.3561 20.0464 43.9523 19.5726 43.607 18.9582C43.2646 18.3489 43.0719 17.7614 43.029 17.1958C42.9861 16.6301 43.0823 16.1205 43.3177 15.6668C43.5531 15.2132 43.915 14.8491 44.4035 14.5746C44.7812 14.3623 45.1149 14.2576 45.4047 14.2603C45.6956 14.2592 45.9436 14.3054 46.1485 14.3989C46.3546 14.4885 46.5187 14.5653 46.6407 14.6292L46.7163 14.5867L45.1116 11.7315L46.0029 11.2306L50.35 18.9654L49.4889 19.4494L48.988 18.5581L48.8822 18.6175C48.8762 18.76 48.858 18.9458 48.8277 19.1749C48.796 19.4015 48.7035 19.6406 48.5502 19.8925C48.3954 20.1418 48.1317 20.3712 47.7591 20.5806ZM47.4299 19.712C47.7875 19.5111 48.0373 19.2481 48.1793 18.9231C48.3199 18.5956 48.361 18.2295 48.3027 17.825C48.2429 17.418 48.0899 16.9954 47.8436 16.5573C47.6002 16.1242 47.3243 15.7807 47.0159 15.5266C46.706 15.27 46.3768 15.1205 46.0282 15.0778C45.6781 15.0327 45.3218 15.112 44.9592 15.3158C44.5815 15.5281 44.3213 15.8019 44.1785 16.1373C44.0367 16.4687 43.9956 16.8347 44.0551 17.2353C44.1157 17.632 44.2606 18.0343 44.4898 18.4422C44.7219 18.8551 44.9957 19.1949 45.3112 19.4615C45.6278 19.7242 45.9667 19.885 46.3277 19.9438C46.6899 19.9987 47.0573 19.9214 47.4299 19.712Z" fill="black"/>
<path d="M54.8221 17.0716C54.2337 17.3263 53.6699 17.4161 53.1307 17.3411C52.593 17.2622 52.1074 17.0381 51.6737 16.6688C51.2415 16.2957 50.89 15.7963 50.6193 15.1708C50.3485 14.5452 50.2239 13.9446 50.2453 13.3688C50.2682 12.7892 50.4272 12.2767 50.7222 11.8311C51.0186 11.3818 51.4425 11.0378 51.9938 10.7991C52.3119 10.6615 52.649 10.5785 53.005 10.5503C53.361 10.5221 53.7179 10.5722 54.0756 10.7006C54.4321 10.8264 54.7703 11.0514 55.09 11.3756C55.4098 11.6999 55.693 12.1469 55.9396 12.7168L56.1117 13.1144L51.4043 15.152L51.0532 14.3409L54.8064 12.7163C54.6573 12.3718 54.4553 12.0941 54.2004 11.8834C53.9482 11.6716 53.6624 11.5419 53.3429 11.4946C53.026 11.446 52.698 11.4952 52.3587 11.642C51.985 11.8038 51.7017 12.0365 51.509 12.3403C51.3178 12.6402 51.213 12.9688 51.1946 13.3261C51.1762 13.6834 51.2398 14.0304 51.3855 14.367L51.6196 14.9078C51.8192 15.369 52.0679 15.7255 52.3658 15.9774C52.6652 16.2255 52.9941 16.3711 53.3527 16.4141C53.7101 16.4546 54.0783 16.3928 54.4573 16.2287C54.7038 16.122 54.9115 15.9912 55.0805 15.8362C55.251 15.6774 55.3787 15.4963 55.4637 15.2927C55.5475 15.0864 55.5833 14.8601 55.571 14.6136L56.5877 14.4757C56.6253 14.8245 56.582 15.1642 56.4577 15.495C56.3322 15.8231 56.1319 16.1239 55.8568 16.3971C55.5805 16.6678 55.2356 16.8926 54.8221 17.0716Z" fill="black"/>
<path d="M66.7444 6.70542C66.5813 6.4455 66.396 6.22236 66.1887 6.03598C65.9835 5.84611 65.7573 5.6972 65.51 5.58928C65.2655 5.48065 65.0025 5.41686 64.7209 5.39789C64.4393 5.37892 64.143 5.40828 63.832 5.48598C63.322 5.61337 62.8911 5.86092 62.5394 6.22862C62.1877 6.59631 61.9525 7.06736 61.834 7.64175C61.7155 8.21614 61.7494 8.87602 61.9356 9.6214C62.1218 10.3667 62.4036 10.9647 62.7811 11.4152C63.1586 11.8657 63.5932 12.1694 64.0849 12.3264C64.5766 12.4834 65.0887 12.4954 65.6211 12.3624C66.1143 12.2393 66.5224 12.0257 66.8454 11.7217C67.1705 11.4143 67.3898 11.0409 67.5034 10.6017C67.619 10.159 67.6111 9.67433 67.4795 9.14753L67.8157 9.13498L65.2265 9.78175L64.9955 8.85704L68.2741 8.03808L68.5051 8.96279C68.6821 9.67174 68.6848 10.326 68.5131 10.9256C68.3441 11.5245 68.0309 12.0344 67.5734 12.4553C67.118 12.8727 66.5484 13.1668 65.8647 13.3376C65.1025 13.528 64.388 13.5159 63.7212 13.3015C63.0571 13.0863 62.4814 12.6883 61.9939 12.1075C61.5093 11.5259 61.1536 10.7812 60.9268 9.87338C60.7567 9.19246 60.6948 8.55744 60.7412 7.96832C60.7896 7.3757 60.934 6.84545 61.1744 6.37756C61.4148 5.90967 61.7392 5.51605 62.1476 5.1967C62.5561 4.87734 63.0363 4.64872 63.5884 4.51083C64.0423 4.39743 64.4826 4.36039 64.9092 4.3997C65.3379 4.43551 65.7375 4.53962 66.108 4.71201C66.4807 4.88091 66.8137 5.11179 67.1072 5.40465C67.3999 5.69472 67.6377 6.03872 67.8204 6.43664L66.7444 6.70542Z" fill="black"/>
<path d="M71.1792 12.1069L70.123 5.53668L71.1324 5.37439L72.1887 11.9446L71.1792 12.1069ZM70.4602 4.35913C70.2634 4.39076 70.083 4.35103 69.9189 4.23992C69.7576 4.12836 69.6618 3.97847 69.6316 3.79027C69.6013 3.60206 69.6453 3.42971 69.7635 3.27322C69.8845 3.11627 70.0434 3.02197 70.2401 2.99034C70.4369 2.95871 70.6159 2.99867 70.7772 3.11023C70.9413 3.22134 71.0385 3.37099 71.0688 3.5592C71.099 3.74741 71.0537 3.91999 70.9326 4.07694C70.8144 4.23343 70.657 4.32749 70.4602 4.35913Z" fill="black"/>
<path d="M76.2937 4.73018L76.3894 5.59136L72.9619 5.97209L72.8662 5.11091L76.2937 4.73018ZM73.6892 3.41537L74.7053 3.30249L75.4056 9.60633C75.4375 9.89339 75.503 10.1041 75.6022 10.2383C75.7039 10.3694 75.8235 10.4521 75.961 10.4862C76.101 10.5171 76.2457 10.5243 76.395 10.5077C76.5069 10.4953 76.5981 10.4793 76.6686 10.4599C76.7388 10.4376 76.7949 10.4197 76.837 10.4063L77.1451 11.2962C77.0791 11.3297 76.9858 11.3662 76.8652 11.4058C76.745 11.4482 76.5901 11.4799 76.4007 11.501C76.1136 11.5328 75.8254 11.5024 75.5361 11.4095C75.2497 11.3164 75.0021 11.1536 74.7931 10.921C74.5871 10.6882 74.4627 10.3794 74.42 9.99479L73.6892 3.41537Z" fill="black"/>
</svg>
