<svg width="100" height="100" viewBox="0 0 100 100" fill="none" xmlns="http://www.w3.org/2000/svg">
<g clip-path="url(#clip0_95_18)">
<path d="M35.3017 47.0465H35.8012V50.2245H35.3017V47.0465ZM32.9658 50.9001H35.9249V51.3045H32.9658V50.9001ZM32.9658 49.9296H33.4606V51.0999H32.9658V49.9296ZM33.2988 47.2844H33.7127V47.7173C33.7127 48.0028 33.6651 48.2724 33.57 48.5261C33.4748 48.7767 33.3369 48.9971 33.1561 49.1874C32.9753 49.3777 32.7549 49.522 32.4948 49.6203L32.2379 49.2255C32.4662 49.1398 32.6597 49.0193 32.8183 48.8639C32.9769 48.7053 33.0958 48.5277 33.1751 48.331C33.2576 48.1312 33.2988 47.9267 33.2988 47.7173V47.2844ZM33.3987 47.2844H33.8031V47.7173C33.8031 47.8727 33.8253 48.0234 33.8697 48.1693C33.9173 48.312 33.9855 48.4468 34.0743 48.5737C34.1662 48.7005 34.2773 48.8131 34.4073 48.9115C34.5373 49.0098 34.6864 49.0875 34.8545 49.1446L34.5976 49.5442C34.3439 49.4491 34.1266 49.3127 33.9458 49.1351C33.765 48.9543 33.6286 48.7434 33.5367 48.5023C33.4447 48.2581 33.3987 47.9964 33.3987 47.7173V47.2844ZM39.4689 47.0418H39.9684V51.3996H39.4689V47.0418ZM39.8542 48.7307H40.6392V49.1446H39.8542V48.7307ZM36.7714 49.9534H37.1282C37.3883 49.9534 37.6277 49.9502 37.8466 49.9438C38.0686 49.9375 38.2843 49.9232 38.4936 49.901C38.7029 49.8788 38.9154 49.8487 39.1311 49.8106L39.1787 50.2198C38.9535 50.2578 38.7347 50.288 38.5222 50.3102C38.3128 50.3324 38.094 50.3482 37.8656 50.3577C37.6404 50.3641 37.3946 50.3673 37.1282 50.3673H36.7714V49.9534ZM36.7619 47.4319H38.7458V49.0447H37.2662V50.1151H36.7714V48.645H38.251V47.8363H36.7619V47.4319ZM42.2212 47.6412H45.7751V48.0408H42.2212V47.6412ZM42.0405 50.51H45.9797V50.9191H42.0405V50.51ZM43.7532 49.8725H44.2479V50.6717H43.7532V49.8725ZM44.0006 48.2835C44.2955 48.2835 44.5508 48.3168 44.7665 48.3834C44.9822 48.45 45.1487 48.5451 45.266 48.6688C45.3834 48.7925 45.4421 48.9432 45.4421 49.1208C45.4421 49.2984 45.3834 49.4506 45.266 49.5775C45.1487 49.7012 44.9822 49.7964 44.7665 49.863C44.5508 49.9296 44.2939 49.9629 43.9958 49.9629C43.7008 49.9629 43.4455 49.9296 43.2298 49.863C43.0142 49.7964 42.8477 49.7012 42.7303 49.5775C42.6129 49.4506 42.5543 49.2984 42.5543 49.1208C42.5543 48.9432 42.6129 48.7925 42.7303 48.6688C42.8477 48.5451 43.0142 48.45 43.2298 48.3834C43.4455 48.3168 43.7024 48.2835 44.0006 48.2835ZM44.0006 48.6736C43.8039 48.6736 43.6342 48.691 43.4915 48.7259C43.3519 48.7608 43.2441 48.8116 43.168 48.8782C43.095 48.9416 43.0586 49.0225 43.0586 49.1208C43.0586 49.2159 43.095 49.2968 43.168 49.3634C43.2441 49.43 43.3519 49.4808 43.4915 49.5157C43.6342 49.5506 43.8039 49.568 44.0006 49.568C44.1972 49.568 44.3653 49.5506 44.5048 49.5157C44.6444 49.4808 44.7506 49.43 44.8236 49.3634C44.8997 49.2968 44.9378 49.2159 44.9378 49.1208C44.9378 49.0225 44.8997 48.9416 44.8236 48.8782C44.7506 48.8116 44.6444 48.7608 44.5048 48.7259C44.3653 48.691 44.1972 48.6736 44.0006 48.6736ZM43.7532 47.1036H44.2479V47.8886H43.7532V47.1036ZM48.2724 47.998H48.9765V48.3881H48.2724V47.998ZM46.6025 48.8496H46.8832C47.0894 48.8496 47.2765 48.848 47.4446 48.8449C47.6127 48.8385 47.7745 48.8274 47.9299 48.8116C48.0885 48.7957 48.2518 48.7735 48.4199 48.7449L48.4627 49.1255C48.2914 49.1573 48.1249 49.1811 47.9632 49.1969C47.8014 49.2128 47.6333 49.2239 47.4589 49.2302C47.2876 49.2366 47.0957 49.2397 46.8832 49.2397H46.6025V48.8496ZM46.6025 47.2939H48.2391V47.684H47.0735V49.1065H46.6025V47.2939ZM46.9356 48.0599H48.0774V48.4357H46.9356V48.0599ZM49.6235 47.0465H50.0993V49.3729H49.6235V47.0465ZM48.7767 47.1179H49.2477V49.3349H48.7767V47.1179ZM47.1925 49.5537H50.0993V50.6194H47.692V51.2188H47.202V50.2578H49.6093V49.9391H47.1925V49.5537ZM47.202 50.9667H50.2515V51.3521H47.202V50.9667ZM51.8621 50.4481H55.8013V50.862H51.8621V50.4481ZM52.1856 47.4509H55.454V47.8553H52.1856V47.4509ZM52.2046 49.273H55.4445V49.6727H52.2046V49.273ZM52.8279 47.8268H53.3226V49.3111H52.8279V47.8268ZM54.3169 47.8268H54.8117V49.3111H54.3169V47.8268ZM56.2386 50.4719H60.1778V50.8811H56.2386V50.4719ZM57.9513 49.587H58.4508V50.6384H57.9513V49.587ZM56.7048 47.3462H59.7116V48.7259H57.2044V49.5299H56.7144V48.331H59.2168V47.7506H56.7048V47.3462ZM56.7144 49.3301H59.8115V49.7297H56.7144V49.3301ZM62.4135 48.1455H63.1509V48.5499H62.4135V48.1455ZM62.9748 47.1322H63.4458V49.6679H62.9748V47.1322ZM61.4524 47.6507H61.8473V47.9742C61.8473 48.2058 61.8108 48.431 61.7379 48.6498C61.6649 48.8655 61.5555 49.0589 61.4096 49.2302C61.2637 49.4015 61.0782 49.5331 60.853 49.6251L60.5961 49.2445C60.7896 49.162 60.9482 49.0542 61.0718 48.921C61.1987 48.7846 61.2939 48.6339 61.3573 48.469C61.4207 48.3041 61.4524 48.1392 61.4524 47.9742V47.6507ZM61.5476 47.6507H61.933V47.9695C61.933 48.1281 61.9631 48.2835 62.0233 48.4357C62.0868 48.588 62.1788 48.7275 62.2993 48.8544C62.4198 48.9781 62.5705 49.0764 62.7512 49.1493L62.4991 49.5347C62.2834 49.4459 62.1042 49.3222 61.9615 49.1636C61.8219 49.0019 61.7173 48.8179 61.6475 48.6117C61.5809 48.4056 61.5476 48.1915 61.5476 47.9695V47.6507ZM60.7055 47.3795H62.6323V47.7839H60.7055V47.3795ZM63.8217 47.0465H64.2974V49.6964H63.8217V47.0465ZM61.3478 49.8772H64.2974V51.3949H63.8026V50.2769H61.3478V49.8772ZM65.4769 49.3396H68.4932V49.7393H65.4769V49.3396ZM64.9916 50.4529H68.9309V50.862H64.9916V50.4529ZM65.4769 47.3938H68.4551V47.7935H65.9812V49.4586H65.4769V47.3938ZM65.829 48.3548H68.36V48.7497H65.829V48.3548Z" fill="black"/>
<path d="M32.7969 53.6248H32.9416C33.3281 53.6248 33.5402 53.6169 33.792 53.5733L33.8098 53.7041C33.5502 53.7497 33.3321 53.7557 32.9416 53.7557H32.7969V53.6248ZM32.7969 52.9052H33.6493V53.0381H32.9594V53.6922H32.7969V52.9052ZM32.9059 53.2581H33.5997V53.3909H32.9059V53.2581ZM33.9962 52.7982H34.1627V53.8647H33.9962V52.7982ZM33.005 53.9539H34.1627V54.5644H33.005V53.9539ZM34.0001 54.0867H33.1656V54.4316H34.0001V54.0867ZM36.261 52.7942H36.4256V54.5902H36.261V52.7942ZM35.48 52.933C35.7456 52.933 35.9359 53.1768 35.9359 53.5574C35.9359 53.94 35.7456 54.1838 35.48 54.1838C35.2164 54.1838 35.0261 53.94 35.0261 53.5574C35.0261 53.1768 35.2164 52.933 35.48 52.933ZM35.48 53.0817C35.3056 53.0817 35.1827 53.268 35.1827 53.5574C35.1827 53.8488 35.3056 54.0391 35.48 54.0391C35.6564 54.0391 35.7774 53.8488 35.7774 53.5574C35.7774 53.268 35.6564 53.0817 35.48 53.0817ZM36.7822 53.72H38.4077V53.8548H36.7822V53.72ZM36.9884 52.8398H38.1976V53.264H37.1549V53.5019H36.9923V53.1431H38.037V52.9687H36.9884V52.8398ZM36.9923 53.4385H38.2372V53.5673H36.9923V53.4385ZM37.0003 54.0173H38.1996V54.5644H37.0003V54.0173ZM38.039 54.1481H37.1608V54.4316H38.039V54.1481ZM40.0065 53.2601H40.4109V53.3969H40.0065V53.2601ZM40.3594 52.7962H40.5239V53.8647H40.3594V52.7962ZM39.9352 53.9182C40.3039 53.9182 40.5318 54.0431 40.5318 54.2532C40.5318 54.4653 40.3039 54.5862 39.9352 54.5862C39.5645 54.5862 39.3365 54.4653 39.3365 54.2532C39.3365 54.0431 39.5645 53.9182 39.9352 53.9182ZM39.9352 54.047C39.6656 54.047 39.501 54.1224 39.501 54.2532C39.501 54.3821 39.6656 54.4574 39.9352 54.4574C40.2048 54.4574 40.3693 54.3821 40.3693 54.2532C40.3693 54.1224 40.2048 54.047 39.9352 54.047ZM39.507 52.9766H39.6418V53.1213C39.6418 53.4524 39.4396 53.7358 39.1422 53.8468L39.057 53.716C39.3226 53.6189 39.507 53.379 39.507 53.1213V52.9766ZM39.5387 52.9766H39.6715V53.1213C39.6715 53.3532 39.846 53.5753 40.1056 53.6664L40.0224 53.7973C39.731 53.6922 39.5387 53.4226 39.5387 53.1213V52.9766ZM39.1066 52.9271H40.064V53.0619H39.1066V52.9271ZM42.0878 52.7962H42.2523V54.5882H42.0878V52.7962ZM42.2127 53.5317H42.5457V53.6704H42.2127V53.5317ZM40.8647 53.0817H41.9213V53.2165H40.8647V53.0817ZM41.3999 53.3651C41.6537 53.3651 41.836 53.5356 41.836 53.7775C41.836 54.0193 41.6537 54.1898 41.3999 54.1898C41.1482 54.1898 40.9638 54.0193 40.9638 53.7775C40.9638 53.5356 41.1482 53.3651 41.3999 53.3651ZM41.3999 53.5019C41.2374 53.5019 41.1204 53.6149 41.1204 53.7775C41.1204 53.938 41.2374 54.053 41.3999 54.053C41.5625 54.053 41.6794 53.938 41.6794 53.7775C41.6794 53.6149 41.5625 53.5019 41.3999 53.5019ZM41.3147 52.818H41.4792V53.1431H41.3147V52.818ZM43.5565 53.1114H44.058V53.2462H43.5565V53.1114ZM43.5565 53.494H44.062V53.6308H43.5565V53.494ZM42.7794 52.9508H43.5981V53.7913H42.7794V52.9508ZM43.4356 53.0837H42.94V53.6585H43.4356V53.0837ZM44.0065 52.7982H44.171V54.1065H44.0065V52.7982ZM43.0193 54.4138H44.2146V54.5486H43.0193V54.4138ZM43.0193 53.9876H43.1838V54.4752H43.0193V53.9876ZM46.2971 53.5098H46.6282V53.6486H46.2971V53.5098ZM46.1762 52.7942H46.3427V54.5882H46.1762V52.7942ZM45.0344 52.9707H45.1989V54.0807H45.0344V52.9707ZM45.0344 53.9955H45.1771C45.4428 53.9955 45.7143 53.9777 46.0097 53.9162L46.0295 54.053C45.7242 54.1164 45.4487 54.1343 45.1771 54.1343H45.0344V53.9955ZM47.5141 53.6922H47.6786V54.0054H47.5141V53.6922ZM46.7866 53.6347H48.4061V53.7675H46.7866V53.6347ZM47.5954 53.9559C47.9799 53.9559 48.2099 54.0689 48.2099 54.271C48.2099 54.4713 47.9799 54.5842 47.5954 54.5842C47.2108 54.5842 46.9809 54.4713 46.9809 54.271C46.9809 54.0689 47.2108 53.9559 47.5954 53.9559ZM47.5954 54.0827C47.3159 54.0827 47.1474 54.1501 47.1474 54.271C47.1474 54.39 47.3159 54.4574 47.5954 54.4574C47.8768 54.4574 48.0434 54.39 48.0434 54.271C48.0434 54.1501 47.8768 54.0827 47.5954 54.0827ZM47.4903 52.9429H47.637V52.9964C47.637 53.2858 47.3079 53.4801 46.9372 53.5257L46.8778 53.3949C47.1989 53.3612 47.4903 53.2006 47.4903 52.9964V52.9429ZM47.5597 52.9429H47.7044V52.9964C47.7044 53.2006 47.9958 53.3612 48.3169 53.3949L48.2574 53.5257C47.8868 53.4801 47.5597 53.2858 47.5597 52.9964V52.9429ZM46.9353 52.8775H48.2614V53.0103H46.9353V52.8775ZM49.3376 53.492H49.6766V53.6288H49.3376V53.492ZM49.9759 52.7962H50.1345V54.5882H49.9759V52.7962ZM49.6211 52.8339H49.7777V54.499H49.6211V52.8339ZM49.0145 52.9449C49.2465 52.9449 49.3971 53.1848 49.3971 53.5693C49.3971 53.9539 49.2465 54.1937 49.0145 54.1937C48.7826 54.1937 48.6339 53.9539 48.6339 53.5693C48.6339 53.1848 48.7826 52.9449 49.0145 52.9449ZM49.0145 53.0975C48.8738 53.0975 48.7846 53.2799 48.7846 53.5693C48.7846 53.8587 48.8738 54.0411 49.0145 54.0411C49.1572 54.0411 49.2465 53.8587 49.2465 53.5693C49.2465 53.2799 49.1572 53.0975 49.0145 53.0975ZM51.6025 52.8597H51.7472V52.9588C51.7472 53.3017 51.3983 53.5475 51.0257 53.6109L50.9602 53.4781C51.2873 53.4286 51.6025 53.2145 51.6025 52.9588V52.8597ZM51.6322 52.8597H51.775V52.9588C51.775 53.2085 52.0941 53.4286 52.4172 53.4781L52.3518 53.6109C51.9831 53.5475 51.6322 53.2977 51.6322 52.9588V52.8597ZM51.6025 53.9063H51.7651V54.5882H51.6025V53.9063ZM50.879 53.8052H52.4985V53.942H50.879V53.8052ZM53.658 53.2601H54.0624V53.3969H53.658V53.2601ZM54.0108 52.7962H54.1754V53.8647H54.0108V52.7962ZM53.5866 53.9182C53.9553 53.9182 54.1833 54.0431 54.1833 54.2532C54.1833 54.4653 53.9553 54.5862 53.5866 54.5862C53.2159 54.5862 52.988 54.4653 52.988 54.2532C52.988 54.0431 53.2159 53.9182 53.5866 53.9182ZM53.5866 54.047C53.317 54.047 53.1525 54.1224 53.1525 54.2532C53.1525 54.3821 53.317 54.4574 53.5866 54.4574C53.8562 54.4574 54.0207 54.3821 54.0207 54.2532C54.0207 54.1224 53.8562 54.047 53.5866 54.047ZM53.1585 52.9766H53.2932V53.1213C53.2932 53.4524 53.0911 53.7358 52.7937 53.8468L52.7085 53.716C52.9741 53.6189 53.1585 53.379 53.1585 53.1213V52.9766ZM53.1902 52.9766H53.323V53.1213C53.323 53.3532 53.4974 53.5753 53.7571 53.6664L53.6738 53.7973C53.3825 53.6922 53.1902 53.4226 53.1902 53.1213V52.9766ZM52.758 52.9271H53.7155V53.0619H52.758V52.9271ZM55.7392 52.7962H55.9038V54.5882H55.7392V52.7962ZM55.8641 53.5317H56.1971V53.6704H55.8641V53.5317ZM54.5162 53.0817H55.5727V53.2165H54.5162V53.0817ZM55.0514 53.3651C55.3051 53.3651 55.4875 53.5356 55.4875 53.7775C55.4875 54.0193 55.3051 54.1898 55.0514 54.1898C54.7996 54.1898 54.6153 54.0193 54.6153 53.7775C54.6153 53.5356 54.7996 53.3651 55.0514 53.3651ZM55.0514 53.5019C54.8888 53.5019 54.7719 53.6149 54.7719 53.7775C54.7719 53.938 54.8888 54.053 55.0514 54.053C55.2139 54.053 55.3309 53.938 55.3309 53.7775C55.3309 53.6149 55.2139 53.5019 55.0514 53.5019ZM54.9661 52.818H55.1307V53.1431H54.9661V52.818ZM57.654 52.7962H57.8185V54.5882H57.654V52.7962ZM57.1287 52.9885H57.2912C57.2912 53.5079 57.0573 53.9618 56.4587 54.2552L56.3714 54.1224C56.8888 53.8726 57.1287 53.492 57.1287 53.0163V52.9885ZM56.4527 52.9885H57.2V53.1233H56.4527V52.9885Z" fill="black"/>
</g>
<defs>
<clipPath id="clip0_95_18">
<rect width="100" height="100" fill="white"/>
</clipPath>
</defs>
</svg>
