<svg width="167" height="167" viewBox="0 0 167 167" fill="none" xmlns="http://www.w3.org/2000/svg">
<path d="M84.8445 11.0659L83.7201 10.9992L87.4978 2.33496L88.6049 2.40065L91.3317 11.4507L90.2072 11.384L88.0028 3.77109L87.9336 3.76698L84.8445 11.0659ZM85.465 7.63068L89.9973 7.89958L89.9409 8.85103L85.4085 8.58214L85.465 7.63068Z" fill="black"/>
<path d="M95.31 12.2415C94.7635 12.1473 94.3049 11.9261 93.9341 11.5778C93.5638 11.2268 93.3042 10.7776 93.1553 10.2302C93.0069 9.67997 92.9926 9.05762 93.1123 8.36313C93.2311 7.67434 93.4522 7.09699 93.7758 6.63109C94.0994 6.16519 94.4956 5.83051 94.9645 5.62705C95.4333 5.42359 95.9439 5.36947 96.496 5.46467C96.923 5.53829 97.248 5.6676 97.4711 5.85261C97.6975 6.03526 97.8607 6.22753 97.9607 6.42942C98.0641 6.62895 98.1429 6.79202 98.1973 6.91863L98.2827 6.93335L98.8392 3.7057L99.8468 3.87942L98.3392 12.6231L97.3658 12.4553L97.5395 11.4477L97.42 11.4271C97.3253 11.5339 97.194 11.6666 97.026 11.8252C96.8585 11.9809 96.6358 12.1081 96.3579 12.2068C96.0805 12.3026 95.7312 12.3142 95.31 12.2415ZM95.6027 11.36C96.0068 11.4297 96.3665 11.3832 96.6818 11.2207C96.9975 11.0553 97.2604 10.7973 97.4703 10.4466C97.6807 10.0931 97.8286 9.66871 97.914 9.17346C97.9984 8.6839 98.0011 8.24327 97.9221 7.85157C97.8436 7.45702 97.6826 7.13323 97.439 6.8802C97.1959 6.62433 96.8694 6.46106 96.4595 6.3904C96.0326 6.31678 95.6579 6.36502 95.3355 6.53511C95.0164 6.70284 94.7536 6.96087 94.547 7.30919C94.3437 7.65516 94.2023 8.05869 94.1228 8.51978C94.0423 8.98657 94.0404 9.42293 94.1169 9.82887C94.1968 10.2324 94.3583 10.571 94.6013 10.8444C94.8476 11.1155 95.1814 11.2873 95.6027 11.36Z" fill="black"/>
<path d="M102.912 13.9506C102.334 13.787 101.865 13.506 101.507 13.1074C101.151 12.7095 100.921 12.2287 100.816 11.6648C100.715 11.1017 100.757 10.4894 100.945 9.82798C101.133 9.16099 101.419 8.61298 101.801 8.18393C102.187 7.75567 102.635 7.46532 103.147 7.31287C103.661 7.16121 104.207 7.16717 104.785 7.33075C105.363 7.49432 105.83 7.77502 106.186 8.17284C106.544 8.57144 106.774 9.05369 106.875 9.61957C106.979 10.1862 106.936 10.8031 106.747 11.4701C106.56 12.1315 106.274 12.675 105.89 13.1004C105.508 13.5267 105.06 13.8157 104.546 13.9673C104.034 14.1198 103.49 14.1142 102.912 13.9506ZM103.162 13.0669C103.601 13.1911 103.994 13.1808 104.341 13.0359C104.688 12.891 104.982 12.6544 105.222 12.3261C105.462 11.9978 105.642 11.6196 105.764 11.1917C105.885 10.7637 105.929 10.3456 105.898 9.93745C105.866 9.52929 105.741 9.17116 105.522 8.86305C105.303 8.55495 104.974 8.33876 104.535 8.21451C104.096 8.09025 103.702 8.10196 103.354 8.24963C103.006 8.3973 102.712 8.63668 102.471 8.96777C102.23 9.29886 102.049 9.6784 101.928 10.1064C101.807 10.5344 101.763 10.9511 101.795 11.3564C101.828 11.7618 101.954 12.1172 102.173 12.4225C102.393 12.7278 102.723 12.9426 103.162 13.0669Z" fill="black"/>
<path d="M107.596 15.2511L110.892 7.01314L111.841 7.3929L110.625 10.4339L110.705 10.4661C110.818 10.3867 110.969 10.2885 111.159 10.1716C111.353 10.0531 111.592 9.97481 111.878 9.93674C112.168 9.89707 112.514 9.95768 112.916 10.1186C113.436 10.3267 113.843 10.6402 114.136 11.0591C114.428 11.478 114.591 11.9706 114.622 12.537C114.654 13.1034 114.54 13.711 114.28 14.36C114.019 15.0143 113.68 15.537 113.266 15.9279C112.852 16.3162 112.396 16.5629 111.897 16.668C111.398 16.7705 110.892 16.7187 110.377 16.5127C109.98 16.3539 109.688 16.1611 109.502 15.9342C109.317 15.7047 109.194 15.4797 109.133 15.2592C109.073 15.0361 109.031 14.8543 109.006 14.7138L108.893 14.6687L108.514 15.618L107.596 15.2511ZM109.766 12.5352C109.579 13.0018 109.483 13.4408 109.477 13.8522C109.472 14.2609 109.561 14.6183 109.743 14.9246C109.926 15.2282 110.208 15.4561 110.589 15.6085C110.986 15.7672 111.359 15.7951 111.708 15.6922C112.061 15.5876 112.376 15.3838 112.653 15.0808C112.933 14.7761 113.162 14.4039 113.337 13.9641C113.511 13.5297 113.601 13.1114 113.606 12.7091C113.615 12.3053 113.527 11.9478 113.34 11.6367C113.157 11.324 112.865 11.0872 112.462 10.9263C112.076 10.7718 111.712 10.7399 111.371 10.8305C111.031 10.9185 110.725 11.1099 110.451 11.4049C110.179 11.6972 109.95 12.074 109.766 12.5352Z" fill="black"/>
<path d="M116.905 19.5569C116.338 19.2585 115.914 18.8759 115.634 18.4089C115.358 17.9408 115.228 17.422 115.243 16.8526C115.263 16.2819 115.431 15.6949 115.748 15.0916C116.066 14.4883 116.455 14.0144 116.917 13.6698C117.383 13.324 117.881 13.1262 118.413 13.0764C118.949 13.0253 119.483 13.1395 120.015 13.4191C120.322 13.5804 120.598 13.7908 120.843 14.0503C121.088 14.3099 121.273 14.6192 121.398 14.9783C121.524 15.3348 121.561 15.7393 121.509 16.1917C121.457 16.6442 121.286 17.1452 120.997 17.6948L120.796 18.0783L116.256 15.6911L116.667 14.9088L120.287 16.8121C120.461 16.4798 120.551 16.1483 120.555 15.8176C120.562 15.4883 120.483 15.1844 120.32 14.9059C120.159 14.6287 119.915 14.4041 119.587 14.2321C119.227 14.0425 118.868 13.968 118.511 14.0085C118.157 14.0478 117.836 14.1724 117.546 14.3822C117.256 14.5921 117.026 14.8593 116.855 15.184L116.581 15.7055C116.347 16.1503 116.225 16.5677 116.216 16.9577C116.211 17.3465 116.304 17.6939 116.495 18.0002C116.688 18.3038 116.967 18.5518 117.333 18.744C117.57 18.869 117.803 18.9487 118.029 18.983C118.26 19.0161 118.481 19.0019 118.693 18.9403C118.906 18.8762 119.105 18.7621 119.289 18.5979L120.034 19.303C119.786 19.5511 119.495 19.7306 119.159 19.8413C118.825 19.9495 118.465 19.9822 118.08 19.9394C117.695 19.8941 117.304 19.7666 116.905 19.5569Z" fill="black"/>
<path d="M122.322 25.4893L127.75 18.1236L128.545 18.7096L127.918 19.5606L128.016 19.6325C128.145 19.5841 128.316 19.5272 128.529 19.4619C128.746 19.3959 128.998 19.3805 129.284 19.4157C129.575 19.4502 129.894 19.596 130.243 19.853C130.694 20.1855 131.009 20.5913 131.186 21.0704C131.364 21.5495 131.397 22.0671 131.285 22.6232C131.173 23.1793 130.91 23.7387 130.495 24.3013C130.077 24.8686 129.618 25.2893 129.118 25.5632C128.62 25.8349 128.117 25.9587 127.607 25.9346C127.099 25.9083 126.622 25.7306 126.175 25.4016C125.831 25.148 125.598 24.888 125.475 24.6215C125.353 24.3528 125.291 24.104 125.287 23.8753C125.285 23.6442 125.29 23.4576 125.302 23.3154L125.232 23.264L123.145 26.0959L122.322 25.4893ZM126.585 21.3983C126.287 21.8029 126.084 22.2035 125.974 22.6001C125.867 22.9944 125.862 23.3627 125.962 23.705C126.063 24.045 126.278 24.3366 126.609 24.58C126.953 24.8336 127.307 24.9545 127.671 24.9428C128.038 24.9305 128.394 24.8125 128.739 24.589C129.087 24.3648 129.401 24.0621 129.682 23.6808C129.96 23.3041 130.152 22.9218 130.259 22.5339C130.369 22.1453 130.373 21.777 130.271 21.429C130.173 21.0803 129.949 20.7775 129.6 20.5204C129.266 20.2737 128.922 20.1512 128.569 20.153C128.218 20.1525 127.872 20.2605 127.533 20.4771C127.196 20.6914 126.88 20.9984 126.585 21.3983Z" fill="black"/>
<path d="M133.315 25.8123L130.62 28.7732L129.864 28.0851L135.835 21.5224L136.592 22.2105L134.399 24.6203L134.463 24.6786C134.81 24.5293 135.167 24.4849 135.533 24.5453C135.904 24.6055 136.283 24.8115 136.67 25.1633C137.005 25.4685 137.238 25.803 137.367 26.167C137.499 26.5288 137.509 26.9107 137.397 27.3126C137.289 27.7143 137.043 28.1267 136.658 28.5497L133.812 31.6772L133.056 30.9891L135.855 27.9129C136.211 27.5219 136.384 27.1273 136.376 26.729C136.371 26.3305 136.19 25.969 135.834 25.6444C135.586 25.4189 135.316 25.2691 135.024 25.1949C134.735 25.1227 134.442 25.1355 134.146 25.2333C133.852 25.3331 133.575 25.5261 133.315 25.8123Z" fill="black"/>
<path d="M136.932 35.2079C136.531 34.7606 136.285 34.2726 136.196 33.7441C136.108 33.2178 136.171 32.6884 136.384 32.156C136.599 31.6257 136.962 31.1312 137.474 30.6723C137.99 30.2097 138.525 29.8994 139.078 29.7414C139.632 29.5856 140.166 29.58 140.68 29.7247C141.196 29.8715 141.654 30.1686 142.055 30.6159C142.456 31.0633 142.7 31.5501 142.788 32.0765C142.878 32.605 142.814 33.1354 142.597 33.6675C142.381 34.2019 142.016 34.7004 141.499 35.1631C140.988 35.6219 140.455 35.9282 139.903 36.0821C139.352 36.2381 138.819 36.2428 138.304 36.0959C137.79 35.9513 137.333 35.6553 136.932 35.2079ZM137.616 34.5949C137.92 34.9347 138.258 35.1362 138.629 35.1994C139 35.2627 139.374 35.2197 139.753 35.0707C140.131 34.9216 140.486 34.6986 140.817 34.4017C141.148 34.1048 141.41 33.7755 141.601 33.4137C141.793 33.0519 141.878 32.6823 141.858 32.3049C141.838 31.9274 141.676 31.5688 141.371 31.229C141.066 30.8891 140.728 30.6886 140.355 30.6273C139.982 30.566 139.605 30.6109 139.224 30.7619C138.844 30.9129 138.488 31.1368 138.157 31.4337C137.825 31.7306 137.565 32.059 137.376 32.4188C137.186 32.7787 137.103 33.1464 137.125 33.5219C137.148 33.8974 137.311 34.2551 137.616 34.5949Z" fill="black"/>
<path d="M147.115 36.9783L146.426 37.5042L144.333 34.7636L145.021 34.2377L147.115 36.9783ZM146.898 34.0687L147.519 34.8812L142.479 38.7312C142.249 38.9065 142.102 39.0713 142.038 39.2255C141.979 39.3803 141.969 39.5253 142.011 39.6607C142.057 39.7967 142.125 39.9243 142.216 40.0437C142.285 40.1332 142.345 40.2031 142.398 40.2535C142.454 40.3021 142.498 40.341 142.531 40.3702L141.927 41.0929C141.865 41.0536 141.785 40.9925 141.689 40.9096C141.591 40.8284 141.484 40.7121 141.368 40.5606C141.193 40.3311 141.07 40.0685 141.001 39.7727C140.933 39.4793 140.945 39.1831 141.036 38.8842C141.13 38.5876 141.33 38.3219 141.638 38.087L146.898 34.0687Z" fill="black"/>
<path d="M143.83 44.2356C143.504 43.7309 143.338 43.2106 143.332 42.6746C143.328 42.1409 143.473 41.6279 143.767 41.1354C144.062 40.6454 144.499 40.2139 145.076 39.8409C145.658 39.4647 146.235 39.2419 146.805 39.1724C147.377 39.1054 147.906 39.1835 148.391 39.4068C148.877 39.6325 149.283 39.9977 149.609 40.5023C149.935 41.0069 150.1 41.5261 150.104 42.0597C150.11 42.5957 149.964 43.1096 149.666 43.6012C149.37 44.0952 148.931 44.5303 148.348 44.9064C147.771 45.2794 147.197 45.4987 146.628 45.5642C146.059 45.6321 145.532 45.5532 145.046 45.3274C144.561 45.1041 144.156 44.7402 143.83 44.2356ZM144.602 43.7372C144.849 44.1205 145.151 44.3724 145.508 44.4929C145.864 44.6134 146.241 44.6297 146.638 44.5417C147.035 44.4537 147.42 44.289 147.794 44.0476C148.167 43.8063 148.477 43.5219 148.723 43.1946C148.969 42.8673 149.111 42.5156 149.15 42.1396C149.189 41.7637 149.085 41.384 148.837 41.0007C148.59 40.6174 148.287 40.3663 147.928 40.2473C147.569 40.1284 147.19 40.1137 146.79 40.2033C146.391 40.2928 146.004 40.4583 145.631 40.6997C145.257 40.941 144.949 41.2246 144.705 41.5503C144.462 41.8761 144.322 42.2262 144.285 42.6006C144.248 42.975 144.354 43.3539 144.602 43.7372Z" fill="black"/>
<path d="M153.162 50.0108L152.51 49.314C152.62 49.1924 152.713 49.0485 152.789 48.8821C152.87 48.717 152.909 48.5279 152.906 48.3148C152.903 48.1017 152.834 47.863 152.697 47.5987C152.51 47.2368 152.271 46.9783 151.98 46.8232C151.692 46.6693 151.422 46.658 151.168 46.7892C150.942 46.9058 150.806 47.08 150.76 47.3118C150.714 47.5436 150.737 47.8566 150.83 48.2507L151.068 49.2397C151.212 49.8346 151.219 50.3299 151.089 50.7256C150.961 51.1199 150.69 51.4238 150.277 51.6371C149.938 51.812 149.585 51.8708 149.218 51.8136C148.851 51.7589 148.502 51.5981 148.169 51.3311C147.836 51.0642 147.551 50.701 147.314 50.2416C147.002 49.6385 146.876 49.0718 146.933 48.5414C146.991 48.011 147.244 47.5634 147.693 47.1985L148.354 47.9495C148.078 48.1959 147.919 48.4744 147.878 48.7849C147.838 49.0981 147.914 49.4407 148.106 49.8128C148.325 50.2363 148.589 50.5261 148.897 50.6823C149.209 50.8397 149.492 50.8528 149.746 50.7217C149.951 50.6157 150.086 50.455 150.15 50.2398C150.217 50.0232 150.209 49.7481 150.124 49.4146L149.846 48.3099C149.695 47.7021 149.689 47.2017 149.827 46.8085C149.969 46.4165 150.244 46.1152 150.652 45.9045C150.986 45.7322 151.329 45.6735 151.683 45.7284C152.038 45.7858 152.372 45.9397 152.687 46.1901C153.003 46.4431 153.268 46.7774 153.483 47.1932C153.785 47.7783 153.893 48.304 153.809 48.7701C153.726 49.2388 153.511 49.6524 153.162 50.0108Z" fill="black"/>
<path d="M153.457 53.5405L149.739 55.0241L149.36 54.0744L157.601 50.7862L157.98 51.7359L154.954 52.9433L154.986 53.0237C155.363 53.0412 155.704 53.1574 156.007 53.3722C156.314 53.5886 156.565 53.9395 156.758 54.4251C156.926 54.8463 156.989 55.2488 156.946 55.6328C156.906 56.0157 156.748 56.3634 156.472 56.6758C156.199 56.9899 155.797 57.2529 155.266 57.4648L151.338 59.0319L150.96 58.0822L154.822 56.5409C155.313 56.345 155.642 56.0661 155.809 55.7042C155.979 55.344 155.975 54.9398 155.796 54.4918C155.672 54.1807 155.495 53.9279 155.265 53.7335C155.036 53.5419 154.767 53.4253 154.458 53.3837C154.151 53.3448 153.817 53.3971 153.457 53.5405Z" fill="black"/>
<path d="M152.59 63.5593C152.426 62.9814 152.419 62.4352 152.571 61.9209C152.723 61.4094 153.011 60.9611 153.436 60.5762C153.862 60.194 154.406 59.909 155.067 59.7213C155.734 59.5319 156.35 59.4874 156.916 59.5879C157.483 59.6912 157.965 59.9205 158.364 60.2758C158.762 60.6339 159.044 61.1019 159.208 61.6798C159.372 62.2577 159.378 62.8024 159.226 63.314C159.075 63.8283 158.785 64.2769 158.357 64.6599C157.929 65.0456 157.381 65.3332 156.714 65.5225C156.053 65.7103 155.441 65.7522 154.877 65.6481C154.313 65.5469 153.832 65.3172 153.433 64.9591C153.035 64.6038 152.754 64.1372 152.59 63.5593ZM153.473 63.3084C153.598 63.7473 153.813 64.0766 154.119 64.2961C154.424 64.5155 154.78 64.6413 155.185 64.6733C155.591 64.7053 156.007 64.6605 156.435 64.539C156.863 64.4175 157.242 64.2362 157.573 63.9951C157.904 63.754 158.143 63.4594 158.291 63.1113C158.438 62.7632 158.449 62.3697 158.325 61.9307C158.2 61.4917 157.983 61.1629 157.675 60.9442C157.367 60.7255 157.009 60.6005 156.6 60.5693C156.192 60.5381 155.774 60.5833 155.346 60.7048C154.918 60.8263 154.54 61.0072 154.212 61.2475C153.884 61.4878 153.648 61.7816 153.503 62.1289C153.359 62.4762 153.349 62.8694 153.473 63.3084Z" fill="black"/>
<path d="M151.465 68.5489L160.481 66.9859L160.649 67.9592L159.608 68.1398L159.629 68.2593C159.755 68.3135 159.918 68.3908 160.117 68.4911C160.32 68.5938 160.512 68.7568 160.695 68.9803C160.88 69.206 161.01 69.5323 161.084 69.9592C161.18 70.5113 161.126 71.0219 160.923 71.4909C160.72 71.9599 160.386 72.3565 159.92 72.6805C159.455 73.0045 158.877 73.2262 158.189 73.3456C157.494 73.466 156.872 73.4522 156.322 73.3043C155.774 73.156 155.325 72.8968 154.973 72.5268C154.625 72.1563 154.403 71.6979 154.308 71.1515C154.235 70.7303 154.247 70.381 154.342 70.1035C154.441 69.8256 154.568 69.6028 154.723 69.4351C154.882 69.2669 155.014 69.1355 155.121 69.0408L155.106 68.9554L151.64 69.5563L151.465 68.5489ZM157.374 68.5446C156.879 68.6305 156.455 68.7788 156.101 68.9895C155.751 69.1998 155.493 69.4628 155.328 69.7787C155.166 70.0941 155.12 70.4539 155.19 70.858C155.263 71.2792 155.435 71.6114 155.705 71.8546C155.98 72.1002 156.318 72.2614 156.721 72.3381C157.128 72.4171 157.565 72.4161 158.031 72.3352C158.492 72.2553 158.895 72.1121 159.241 71.9057C159.589 71.7016 159.847 71.4385 160.014 71.1165C160.184 70.7967 160.232 70.4234 160.158 69.9966C160.087 69.5868 159.924 69.2604 159.668 69.0176C159.415 68.7742 159.091 68.6134 158.696 68.5353C158.304 68.4566 157.864 68.4598 157.374 68.5446Z" fill="black"/>
<path d="M155.4 79.277L164.271 79.0967L164.379 84.4158L163.426 84.4351L163.34 80.1903L160.343 80.2512L160.421 84.0976L159.468 84.1169L159.39 80.2706L155.422 80.3512L155.4 79.277Z" fill="black"/>
<path d="M155.398 86.5194L162.044 86.8609L161.992 87.882L155.346 87.5405L155.398 86.5194ZM163.125 87.437C163.135 87.2379 163.212 87.0698 163.355 86.9325C163.498 86.7982 163.664 86.7359 163.855 86.7456C164.045 86.7554 164.204 86.8345 164.333 86.9828C164.461 87.1339 164.52 87.3091 164.51 87.5081C164.499 87.7071 164.423 87.8738 164.28 88.0082C164.137 88.1454 163.97 88.2092 163.78 88.1994C163.59 88.1896 163.43 88.1091 163.302 87.958C163.174 87.8096 163.115 87.636 163.125 87.437Z" fill="black"/>
<path d="M152.303 91.9277C152.365 91.4376 152.481 91.0242 152.651 90.6876C152.818 90.3505 153.019 90.0773 153.252 89.8678C153.481 89.6608 153.719 89.5029 153.966 89.3941L154.432 90.2735C154.3 90.3501 154.148 90.4489 153.976 90.5699C153.8 90.6906 153.64 90.8655 153.495 91.0947C153.347 91.3264 153.247 91.6415 153.197 92.0398C153.131 92.5728 153.204 93.0289 153.419 93.408C153.633 93.7872 154.016 94.0112 154.566 94.0802L155.907 94.2485L155.918 94.1625C155.807 94.0729 155.671 93.9482 155.511 93.7883C155.353 93.6317 155.221 93.4172 155.115 93.1449C155.012 92.8758 154.988 92.5264 155.042 92.0965C155.108 91.5635 155.295 91.1007 155.6 90.7082C155.905 90.3185 156.314 90.0307 156.826 89.8446C157.338 89.6614 157.938 89.613 158.626 89.6992C159.302 89.7841 159.876 89.9769 160.348 90.2776C160.822 90.5788 161.171 90.9587 161.393 91.4173C161.617 91.8763 161.695 92.3838 161.625 92.9398C161.571 93.3696 161.457 93.7017 161.282 93.9359C161.109 94.1733 160.924 94.3481 160.727 94.4601C160.532 94.5754 160.373 94.6631 160.249 94.7232L160.236 94.8264L161.285 94.958L161.162 95.9381L154.37 95.0861C153.802 95.0149 153.357 94.8281 153.034 94.5256C152.708 94.2256 152.489 93.8488 152.377 93.3952C152.262 92.9442 152.237 92.455 152.303 91.9277ZM155.936 92.3484C155.885 92.7553 155.935 93.1109 156.086 93.4151C156.237 93.7193 156.478 93.9664 156.809 94.1564C157.141 94.3465 157.55 94.472 158.037 94.5331C158.513 94.5928 158.941 94.5738 159.323 94.4762C159.705 94.3786 160.017 94.2023 160.259 93.9473C160.5 93.6923 160.647 93.3585 160.699 92.9458C160.753 92.516 160.689 92.1441 160.507 91.8302C160.325 91.5191 160.059 91.269 159.71 91.0797C159.361 90.8932 158.963 90.772 158.516 90.7159C158.057 90.6584 157.643 90.6791 157.272 90.7782C156.904 90.8805 156.602 91.0609 156.366 91.3195C156.132 91.5813 155.989 91.9242 155.936 92.3484Z" fill="black"/>
<path d="M154.275 97.1645L160.717 98.8308L160.47 99.7871L159.463 99.5268L159.442 99.6106C159.751 99.8338 159.962 100.12 160.075 100.468C160.19 100.817 160.194 101.201 160.085 101.621C159.975 102.046 159.787 102.375 159.521 102.607C159.257 102.843 158.933 102.996 158.548 103.067L158.53 103.134C158.82 103.385 159.021 103.701 159.131 104.081C159.244 104.463 159.241 104.884 159.122 105.345C158.973 105.921 158.671 106.346 158.215 106.619C157.762 106.893 157.157 106.932 156.399 106.736L152.088 105.62L152.344 104.63L156.656 105.746C157.131 105.869 157.504 105.826 157.776 105.619C158.047 105.412 158.228 105.132 158.319 104.78C158.437 104.327 158.39 103.94 158.181 103.621C157.974 103.302 157.662 103.088 157.245 102.981L153.051 101.896L153.311 100.889L157.724 102.03C158.09 102.125 158.416 102.083 158.701 101.903C158.989 101.724 159.181 101.447 159.278 101.072C159.345 100.815 159.339 100.557 159.259 100.297C159.18 100.041 159.036 99.813 158.828 99.613C158.622 99.4166 158.361 99.2775 158.045 99.1958L154.019 98.1544L154.275 97.1645Z" fill="black"/>
<path d="M150.458 109.352C150.614 108.96 150.829 108.634 151.103 108.373C151.38 108.113 151.697 107.945 152.053 107.869C152.413 107.794 152.794 107.836 153.196 107.996C153.551 108.136 153.81 108.32 153.975 108.547C154.143 108.775 154.243 109.031 154.277 109.314C154.31 109.598 154.302 109.893 154.252 110.199C154.203 110.509 154.141 110.816 154.065 111.118C153.964 111.513 153.879 111.832 153.811 112.075C153.744 112.322 153.72 112.511 153.739 112.643C153.757 112.778 153.843 112.875 153.996 112.936L154.028 112.949C154.426 113.107 154.777 113.12 155.084 112.99C155.389 112.863 155.629 112.58 155.802 112.142C155.982 111.689 156.024 111.294 155.927 110.957C155.831 110.62 155.691 110.355 155.507 110.161L156.187 109.387C156.499 109.697 156.706 110.028 156.809 110.379C156.914 110.734 156.944 111.088 156.901 111.441C156.859 111.797 156.776 112.131 156.653 112.442C156.574 112.641 156.459 112.86 156.309 113.098C156.16 113.341 155.965 113.554 155.724 113.738C155.482 113.925 155.183 114.041 154.826 114.086C154.47 114.131 154.046 114.056 153.555 113.861L149.479 112.245L149.856 111.294L150.694 111.626L150.713 111.578C150.604 111.46 150.503 111.296 150.41 111.085C150.316 110.874 150.265 110.622 150.257 110.33C150.249 110.038 150.316 109.712 150.458 109.352ZM151.255 109.836C151.106 110.211 151.054 110.558 151.099 110.874C151.144 111.193 151.257 111.464 151.438 111.689C151.618 111.916 151.837 112.08 152.095 112.182L152.965 112.527C152.933 112.468 152.924 112.362 152.938 112.209C152.953 112.06 152.981 111.891 153.022 111.702C153.065 111.517 153.108 111.336 153.152 111.161C153.199 110.99 153.235 110.851 153.262 110.744C153.328 110.484 153.367 110.232 153.38 109.989C153.394 109.749 153.356 109.535 153.266 109.347C153.178 109.163 153.013 109.023 152.771 108.927C152.441 108.796 152.143 108.819 151.877 108.996C151.612 109.177 151.405 109.457 151.255 109.836Z" fill="black"/>
<path d="M147.052 117.335L154.667 121.889L154.116 122.811L150.724 120.783L148.296 124.843L151.687 126.871L151.136 127.793L143.521 123.239L144.072 122.317L147.478 124.354L149.906 120.294L146.501 118.257L147.052 117.335Z" fill="black"/>
<path d="M148.735 129.617L149.489 130.2L145.419 135.464L144.665 134.881L146.372 132.674L140.106 127.83L140.763 126.98L147.029 131.824L148.735 129.617Z" fill="black"/>
<path d="M143.449 137.804L142.538 138.706L135.214 135.592L135.14 135.665L138.177 143.021L137.266 143.923L131.025 137.617L131.739 136.91L136.481 141.701L136.543 141.64L133.771 134.899L134.461 134.216L141.174 137.057L141.235 136.996L136.493 132.205L137.208 131.498L143.449 137.804Z" fill="black"/>
<path d="M129.067 139.168L134.469 146.207L133.616 146.861L128.795 140.578L125.523 143.089L124.943 142.333L129.067 139.168Z" fill="black"/>
<path d="M117.099 154.033L118.045 153.523C118.247 153.765 118.474 153.951 118.725 154.081C118.973 154.213 119.234 154.295 119.508 154.328C119.781 154.365 120.056 154.354 120.333 154.297C120.61 154.239 120.878 154.14 121.138 154C121.611 153.745 121.974 153.394 122.229 152.948C122.482 152.504 122.595 151.988 122.571 151.4C122.543 150.815 122.347 150.184 121.982 149.507C121.617 148.831 121.198 148.321 120.723 147.977C120.246 147.634 119.752 147.445 119.242 147.412C118.729 147.38 118.236 147.492 117.763 147.747C117.504 147.887 117.274 148.057 117.074 148.257C116.873 148.457 116.713 148.68 116.593 148.926C116.471 149.175 116.397 149.44 116.371 149.719C116.344 150.003 116.375 150.295 116.464 150.595L115.519 151.105C115.375 150.667 115.312 150.24 115.33 149.824C115.348 149.407 115.437 149.013 115.597 148.641C115.759 148.271 115.983 147.935 116.269 147.633C116.553 147.332 116.892 147.075 117.286 146.863C117.952 146.503 118.632 146.346 119.326 146.392C120.02 146.437 120.678 146.68 121.299 147.119C121.92 147.559 122.453 148.19 122.897 149.014C123.342 149.837 123.577 150.629 123.603 151.389C123.63 152.15 123.471 152.833 123.128 153.438C122.785 154.043 122.281 154.525 121.615 154.885C121.221 155.097 120.82 155.24 120.413 155.312C120.003 155.385 119.599 155.387 119.2 155.317C118.802 155.249 118.424 155.108 118.066 154.895C117.709 154.683 117.387 154.396 117.099 154.033Z" fill="black"/>
<path d="M110.347 157.408C110.557 157.797 110.878 158.037 111.311 158.127C111.744 158.217 112.21 158.163 112.71 157.966C113.075 157.821 113.372 157.636 113.599 157.41C113.824 157.184 113.972 156.938 114.043 156.671C114.112 156.404 114.094 156.14 113.99 155.876C113.903 155.656 113.776 155.487 113.609 155.37C113.44 155.257 113.251 155.181 113.043 155.142C112.836 155.105 112.628 155.09 112.419 155.095C112.211 155.102 112.023 155.116 111.853 155.136L110.926 155.242C110.689 155.27 110.419 155.287 110.117 155.291C109.811 155.297 109.504 155.262 109.194 155.185C108.883 155.112 108.596 154.974 108.332 154.771C108.069 154.568 107.86 154.273 107.708 153.886C107.532 153.44 107.489 152.991 107.581 152.538C107.67 152.087 107.895 151.667 108.257 151.279C108.617 150.892 109.114 150.573 109.748 150.323C110.339 150.089 110.888 149.982 111.396 150.002C111.901 150.023 112.344 150.156 112.726 150.399C113.105 150.644 113.4 150.985 113.611 151.424L112.579 151.831C112.429 151.53 112.223 151.314 111.959 151.182C111.694 151.054 111.401 150.995 111.08 151.007C110.757 151.023 110.432 151.096 110.104 151.225C109.723 151.376 109.404 151.573 109.15 151.816C108.896 152.063 108.724 152.332 108.635 152.625C108.547 152.921 108.562 153.219 108.681 153.52C108.789 153.794 108.954 153.987 109.175 154.098C109.396 154.21 109.653 154.27 109.945 154.278C110.237 154.287 110.544 154.275 110.866 154.241L111.996 154.13C112.714 154.061 113.329 154.124 113.841 154.319C114.353 154.514 114.719 154.89 114.938 155.446C115.121 155.908 115.155 156.36 115.041 156.803C114.925 157.249 114.693 157.651 114.344 158.01C113.993 158.372 113.554 158.657 113.028 158.865C112.496 159.075 111.985 159.166 111.496 159.139C111.008 159.114 110.579 158.986 110.208 158.754C109.834 158.522 109.558 158.201 109.38 157.79L110.347 157.408Z" fill="black"/>
<path d="M102.031 159.935C102.196 160.345 102.489 160.618 102.909 160.756C103.329 160.893 103.799 160.891 104.317 160.75C104.696 160.647 105.011 160.496 105.262 160.296C105.51 160.097 105.685 159.869 105.785 159.611C105.883 159.354 105.895 159.089 105.821 158.816C105.759 158.587 105.651 158.405 105.498 158.27C105.342 158.139 105.164 158.042 104.961 157.981C104.76 157.922 104.555 157.883 104.346 157.865C104.139 157.849 103.95 157.842 103.779 157.844L102.846 157.846C102.607 157.848 102.337 157.834 102.036 157.805C101.732 157.777 101.43 157.708 101.131 157.597C100.83 157.491 100.56 157.322 100.32 157.09C100.081 156.859 99.9066 156.543 99.7976 156.141C99.672 155.679 99.6797 155.228 99.8208 154.788C99.9591 154.35 100.23 153.957 100.633 153.612C101.033 153.267 101.562 153.005 102.22 152.826C102.833 152.66 103.391 152.614 103.893 152.691C104.393 152.767 104.819 152.948 105.172 153.232C105.521 153.517 105.776 153.89 105.937 154.349L104.867 154.639C104.751 154.324 104.57 154.086 104.323 153.925C104.074 153.768 103.789 153.678 103.468 153.654C103.145 153.634 102.814 153.67 102.474 153.763C102.078 153.87 101.74 154.031 101.46 154.245C101.181 154.461 100.98 154.71 100.859 154.991C100.739 155.275 100.721 155.573 100.806 155.886C100.883 156.17 101.025 156.38 101.232 156.515C101.44 156.65 101.688 156.738 101.978 156.78C102.267 156.821 102.574 156.842 102.897 156.844L104.033 156.859C104.754 156.87 105.358 157.001 105.845 157.251C106.332 157.502 106.654 157.916 106.811 158.493C106.941 158.973 106.925 159.426 106.762 159.853C106.598 160.284 106.323 160.658 105.936 160.975C105.547 161.296 105.08 161.531 104.533 161.679C103.981 161.829 103.464 161.863 102.981 161.782C102.499 161.703 102.086 161.528 101.743 161.256C101.397 160.985 101.158 160.635 101.027 160.207L102.031 159.935Z" fill="black"/>
<path d="M91.4449 163.972L90.3773 164.092L89.6673 157.79C89.604 157.227 89.6535 156.737 89.8158 156.321C89.9782 155.905 90.2359 155.573 90.5889 155.327C90.942 155.081 91.3739 154.929 91.8848 154.872C92.367 154.817 92.8059 154.856 93.2016 154.989C93.5976 155.125 93.9217 155.344 94.1738 155.647C94.4259 155.95 94.5774 156.327 94.6281 156.777L93.5777 156.896C93.5495 156.646 93.4633 156.435 93.3188 156.262C93.1719 156.093 92.9835 155.969 92.7537 155.89C92.524 155.811 92.2699 155.787 91.9915 155.819C91.6844 155.853 91.4305 155.947 91.2298 156.101C91.029 156.254 90.8868 156.462 90.803 156.724C90.7166 156.99 90.694 157.305 90.735 157.669L91.4449 163.972Z" fill="black"/>
<path d="M84.9035 155.329C85.3251 155.322 85.7091 155.395 86.0553 155.548C86.4016 155.704 86.6782 155.932 86.8853 156.232C87.0924 156.535 87.1995 156.903 87.2065 157.336C87.2127 157.718 87.1426 158.028 86.9963 158.267C86.85 158.509 86.6523 158.7 86.4033 158.84C86.1543 158.98 85.8787 159.085 85.5765 159.157C85.2715 159.231 84.9648 159.291 84.6565 159.336C84.253 159.395 83.9259 159.439 83.6751 159.469C83.4214 159.502 83.2374 159.553 83.1229 159.621C83.0056 159.689 82.9483 159.806 82.9509 159.97L82.9515 160.005C82.9584 160.433 83.0808 160.763 83.3185 160.996C83.5534 161.229 83.9062 161.342 84.3769 161.334C84.865 161.326 85.2459 161.213 85.5196 160.995C85.7934 160.777 85.9846 160.545 86.0933 160.301L87.0693 160.632C86.9026 161.039 86.6766 161.357 86.3915 161.587C86.1035 161.82 85.7884 161.984 85.4462 162.079C85.1012 162.177 84.7612 162.229 84.4262 162.234C84.2125 162.238 83.9666 162.216 83.6885 162.168C83.4076 162.124 83.1359 162.026 82.8735 161.874C82.6081 161.722 82.3863 161.49 82.2079 161.178C82.0295 160.866 81.9361 160.446 81.9275 159.918L81.8564 155.534L82.8787 155.517L82.8933 156.418L82.9453 156.418C83.0123 156.272 83.1253 156.116 83.2843 155.948C83.4434 155.781 83.6563 155.638 83.923 155.518C84.1897 155.398 84.5165 155.335 84.9035 155.329ZM84.7624 156.249C84.3581 156.256 84.0186 156.341 83.744 156.504C83.4664 156.668 83.2589 156.876 83.1215 157.13C82.9812 157.383 82.9133 157.649 82.9178 157.926L82.9329 158.862C82.9754 158.809 83.07 158.76 83.2165 158.714C83.3603 158.671 83.5272 158.632 83.7173 158.598C83.9045 158.566 84.0875 158.537 84.2661 158.511C84.442 158.488 84.5846 158.468 84.6941 158.452C84.9593 158.413 85.2067 158.352 85.4365 158.271C85.6634 158.192 85.8464 158.075 85.9854 157.919C86.1216 157.767 86.1876 157.561 86.1834 157.301C86.1776 156.946 86.0418 156.679 85.7761 156.502C85.5075 156.327 85.1696 156.243 84.7624 156.249Z" fill="black"/>
<path d="M74.0215 161.675L76.9977 155.235L78.0343 155.317L79.9644 162.144L78.8587 162.057L77.4443 156.626L77.3752 156.621L75.1271 161.763L74.0215 161.675Z" fill="black"/>
<path d="M71.2077 154.343C71.623 154.416 71.9861 154.56 72.2971 154.776C72.6075 154.995 72.836 155.272 72.9824 155.605C73.1284 155.942 73.1638 156.324 73.0887 156.75C73.0225 157.126 72.8949 157.417 72.7059 157.624C72.5164 157.834 72.2861 157.984 72.0151 158.074C71.7441 158.165 71.4535 158.216 71.1433 158.229C70.8298 158.244 70.5173 158.245 70.2059 158.231C69.7987 158.212 69.4691 158.193 69.2171 158.175C68.9618 158.16 68.7715 158.175 68.6462 158.22C68.518 158.265 68.4397 158.368 68.4111 158.53L68.4051 158.565C68.3309 158.986 68.3885 159.333 68.5778 159.607C68.7642 159.88 69.0893 160.058 69.5529 160.139C70.0336 160.224 70.4291 160.185 70.7392 160.023C71.0494 159.86 71.281 159.67 71.434 159.45L72.3296 159.96C72.0888 160.328 71.8066 160.598 71.4831 160.77C71.1562 160.944 70.8157 161.045 70.4617 161.074C70.1043 161.105 69.7607 161.091 69.4307 161.033C69.2202 160.996 68.983 160.928 68.7189 160.828C68.4515 160.731 68.2033 160.583 67.9744 160.385C67.7426 160.186 67.5687 159.916 67.4527 159.576C67.3366 159.236 67.3245 158.805 67.4162 158.285L68.177 153.967L69.1839 154.144L69.0275 155.032L69.0787 155.041C69.172 154.911 69.3126 154.778 69.5005 154.644C69.6883 154.51 69.9246 154.41 70.2091 154.343C70.4937 154.275 70.8266 154.275 71.2077 154.343ZM70.8948 155.22C70.4966 155.15 70.1471 155.169 69.8465 155.277C69.543 155.385 69.2998 155.55 69.1168 155.773C68.931 155.996 68.814 156.244 68.7659 156.517L68.6035 157.438C68.6552 157.394 68.7574 157.364 68.9099 157.347C69.0592 157.332 69.2304 157.326 69.4237 157.328C69.6136 157.332 69.7987 157.338 69.9791 157.346C70.1561 157.357 70.2999 157.365 70.4105 157.369C70.6782 157.381 70.9326 157.369 71.1737 157.332C71.4114 157.298 71.6133 157.218 71.7792 157.091C71.9418 156.968 72.0456 156.778 72.0907 156.522C72.1524 156.172 72.0696 155.884 71.8423 155.66C71.6117 155.437 71.2958 155.291 70.8948 155.22Z" fill="black"/>
<path d="M60.3308 157.247L61.2853 157.241C61.3003 157.404 61.3429 157.57 61.4132 157.739C61.4798 157.91 61.5924 158.067 61.7509 158.209C61.9093 158.352 62.1319 158.463 62.4187 158.542C62.8114 158.65 63.1635 158.65 63.4751 158.541C63.7832 158.434 63.9752 158.243 64.0511 157.967C64.1187 157.722 64.0829 157.504 63.9438 157.313C63.8047 157.122 63.5589 156.927 63.2063 156.728L62.3185 156.231C61.7832 155.934 61.4145 155.603 61.2123 155.239C61.0093 154.877 60.9696 154.473 61.0932 154.024C61.1944 153.657 61.3908 153.357 61.6822 153.126C61.9709 152.894 62.3261 152.746 62.7481 152.683C63.17 152.619 63.6302 152.656 64.1286 152.794C64.783 152.974 65.2854 153.265 65.636 153.667C65.9865 154.069 66.1437 154.559 66.1074 155.136L65.1074 155.112C65.1134 154.743 65.0163 154.437 64.8161 154.196C64.6131 153.955 64.3097 153.778 63.9059 153.667C63.4465 153.54 63.0549 153.537 62.7311 153.658C62.4037 153.78 62.2021 153.979 62.1261 154.255C62.0647 154.478 62.0913 154.686 62.2058 154.879C62.3195 155.075 62.5275 155.255 62.8298 155.42L63.8299 155.965C64.3791 156.266 64.7512 156.601 64.9463 156.969C65.1379 157.339 65.1726 157.746 65.0506 158.189C64.9509 158.551 64.761 158.843 64.481 159.065C64.1982 159.287 63.8582 159.428 63.4608 159.49C63.0607 159.55 62.635 159.518 62.184 159.394C61.5491 159.219 61.089 158.942 60.8038 158.564C60.5158 158.185 60.3581 157.746 60.3308 157.247Z" fill="black"/>
<path d="M57.4698 150.608C58.0527 150.83 58.5023 151.159 58.8184 151.594C59.1345 152.03 59.3139 152.533 59.3565 153.102C59.3991 153.672 59.3022 154.267 59.0656 154.888C58.825 155.519 58.4965 156.032 58.0803 156.427C57.6604 156.823 57.1893 157.078 56.6671 157.191C56.1412 157.306 55.5975 157.257 55.0361 157.043C54.5989 156.876 54.2357 156.645 53.9466 156.349C53.6574 156.054 53.4564 155.717 53.3434 155.341C53.2305 154.964 53.2211 154.571 53.3152 154.162L54.2706 154.526C54.2355 154.837 54.3018 155.149 54.4695 155.464C54.6334 155.78 54.926 156.018 55.347 156.178C55.7194 156.32 56.083 156.347 56.4378 156.26C56.7888 156.174 57.1094 155.986 57.3997 155.695C57.6862 155.405 57.9189 155.026 58.0979 154.556C58.2809 154.076 58.3648 153.628 58.3494 153.215C58.3313 152.8 58.2208 152.441 58.0179 152.138C57.8123 151.834 57.5206 151.61 57.1427 151.466C56.8944 151.371 56.6526 151.329 56.4173 151.338C56.1819 151.347 55.9632 151.406 55.7612 151.514C55.5591 151.623 55.3852 151.779 55.2394 151.983L54.284 151.619C54.4779 151.273 54.7375 150.993 55.0628 150.78C55.3844 150.569 55.7522 150.443 56.1661 150.403C56.5764 150.365 57.0109 150.433 57.4698 150.608Z" fill="black"/>
<path d="M53.3832 149.061L50.5073 155.062L49.6165 154.635L50.0509 153.729L49.9884 153.699C49.7367 153.943 49.4233 154.089 49.0482 154.137C48.673 154.185 48.3057 154.122 47.9463 153.95C47.8786 153.918 47.7946 153.876 47.6942 153.825C47.5939 153.773 47.5189 153.733 47.4693 153.702L47.9187 152.765C47.9462 152.787 48.0122 152.834 48.1167 152.903C48.2174 152.973 48.3289 153.038 48.4513 153.097C48.7431 153.237 49.0328 153.3 49.3207 153.288C49.6047 153.276 49.8643 153.196 50.0995 153.046C50.3309 152.897 50.5114 152.688 50.6412 152.417L52.4611 148.619L53.3832 149.061Z" fill="black"/>
<path d="M49.1008 146.924L45.903 152.76L45.0064 152.268L48.2041 146.433L49.1008 146.924ZM44.9142 153.483C45.0889 153.578 45.207 153.72 45.2684 153.909C45.3273 154.096 45.311 154.273 45.2194 154.44C45.1278 154.607 44.9873 154.716 44.7979 154.768C44.6061 154.817 44.4227 154.794 44.248 154.698C44.0732 154.603 43.9564 154.461 43.8975 154.274C43.8361 154.086 43.8512 153.908 43.9428 153.741C44.0344 153.574 44.1761 153.465 44.368 153.415C44.5573 153.364 44.7394 153.387 44.9142 153.483Z" fill="black"/>
<path d="M47.7766 143.373L42.8023 151.053L41.9732 150.516L42.5479 149.628L42.4461 149.562C42.3203 149.619 42.1529 149.686 41.9441 149.764C41.7312 149.843 41.4809 149.873 41.193 149.855C40.9012 149.838 40.5735 149.712 40.2098 149.477C39.7395 149.172 39.4012 148.786 39.1947 148.318C38.9882 147.851 38.9241 147.336 39.0024 146.774C39.0807 146.213 39.3098 145.638 39.6898 145.052C40.0729 144.46 40.5056 144.013 40.9879 143.709C41.4686 143.408 41.964 143.254 42.4743 143.247C42.9829 143.243 43.47 143.391 43.9354 143.693C44.2942 143.925 44.543 144.171 44.6818 144.429C44.819 144.69 44.8964 144.935 44.9138 145.163C44.9297 145.393 44.9362 145.58 44.9333 145.723L45.006 145.77L46.9184 142.817L47.7766 143.373ZM43.7675 147.714C44.0407 147.292 44.2199 146.88 44.3051 146.477C44.3888 146.077 44.3707 145.709 44.2509 145.373C44.1295 145.04 43.8967 144.762 43.5525 144.539C43.1937 144.307 42.8331 144.207 42.4706 144.241C42.1041 144.275 41.7559 144.415 41.4258 144.659C41.0918 144.903 40.796 145.225 40.5385 145.622C40.2842 146.015 40.1155 146.408 40.0326 146.802C39.9457 147.196 39.9638 147.564 40.0869 147.905C40.206 148.247 40.4473 148.536 40.811 148.772C41.16 148.998 41.5107 149.099 41.8629 149.076C42.2135 149.056 42.5515 148.927 42.8768 148.69C43.2005 148.456 43.4975 148.13 43.7675 147.714Z" fill="black"/>
<path d="M33.79 144.733L34.3181 144.046L37.0521 146.148L36.5239 146.835L33.79 144.733ZM34.7554 147.486L33.9448 146.863L37.8107 141.835C37.9868 141.606 38.0856 141.408 38.1072 141.243C38.1248 141.078 38.0959 140.935 38.0205 140.815C37.941 140.696 37.8418 140.591 37.7227 140.499C37.6334 140.43 37.5566 140.379 37.4923 140.344C37.4263 140.311 37.3734 140.285 37.3338 140.266L37.7288 139.411C37.7996 139.432 37.8921 139.471 38.0064 139.526C38.1225 139.579 38.2561 139.663 38.4072 139.779C38.6362 139.955 38.8227 140.177 38.9668 140.445C39.1087 140.71 39.1742 140.999 39.1636 141.312C39.1506 141.622 39.0262 141.931 38.7903 142.238L34.7554 147.486Z" fill="black"/>
<path d="M34.1674 136.308L27.8934 142.582L25.7735 140.462C25.2834 139.972 24.9648 139.486 24.8177 139.004C24.6686 138.524 24.6635 138.063 24.8024 137.622C24.9413 137.181 25.1956 136.776 25.5652 136.406C25.9349 136.037 26.3382 135.784 26.7753 135.65C27.2124 135.515 27.6688 135.522 28.1447 135.671C28.6185 135.822 29.0984 136.141 29.5845 136.627L31.3 138.342L30.6138 139.029L28.9228 137.337C28.5878 137.003 28.2692 136.782 27.967 136.676C27.6627 136.568 27.3747 136.557 27.1031 136.645C26.8274 136.733 26.5639 136.902 26.3127 137.154C26.0615 137.405 25.8889 137.671 25.795 137.953C25.701 138.235 25.7061 138.53 25.8103 138.839C25.9124 139.149 26.133 139.474 26.472 139.813L27.8076 141.148L33.4077 135.548L34.1674 136.308ZM28.3959 136.173L29.6703 131.811L30.5526 132.693L29.2536 137.031L28.3959 136.173Z" fill="black"/>
<path d="M27.1782 128.548C27.5818 129.046 27.8201 129.565 27.8929 130.105C27.9616 130.644 27.8765 131.172 27.6375 131.689C27.3944 132.206 27.0081 132.678 26.4784 133.107C25.9488 133.537 25.4039 133.818 24.8436 133.953C24.2792 134.086 23.7428 134.071 23.2343 133.907C22.7217 133.742 22.2764 133.427 21.8982 132.96C21.68 132.691 21.5094 132.388 21.3864 132.053C21.2635 131.718 21.2157 131.361 21.2431 130.982C21.2683 130.604 21.394 130.218 21.6202 129.823C21.8465 129.428 22.2009 129.035 22.6833 128.644L23.02 128.371L26.2491 132.357L25.5625 132.913L22.9878 129.735C22.6961 129.972 22.483 130.241 22.3487 130.543C22.2125 130.843 22.1646 131.153 22.2049 131.474C22.2434 131.792 22.3791 132.095 22.6118 132.382C22.8682 132.698 23.1685 132.908 23.5129 133.012C23.8532 133.116 24.1979 133.128 24.547 133.05C24.8961 132.971 25.2132 132.817 25.4982 132.586L25.956 132.215C26.3464 131.899 26.6229 131.563 26.7853 131.208C26.9437 130.853 26.9954 130.497 26.9404 130.14C26.8832 129.785 26.7246 129.447 26.4646 129.126C26.2955 128.918 26.1136 128.753 25.9189 128.632C25.7201 128.51 25.5112 128.436 25.2923 128.409C25.0711 128.384 24.8435 128.41 24.6094 128.488L24.203 127.546C24.5288 127.416 24.8677 127.366 25.2197 127.397C25.5695 127.43 25.913 127.542 26.2502 127.733C26.5852 127.926 26.8946 128.198 27.1782 128.548Z" fill="black"/>
<path d="M23.3301 123.293C23.5619 123.645 23.7058 124.008 23.762 124.383C23.8158 124.759 23.7716 125.115 23.6294 125.45C23.4847 125.787 23.2314 126.075 22.8695 126.313C22.551 126.523 22.2515 126.63 21.9711 126.634C21.6883 126.641 21.4211 126.576 21.1696 126.441C20.9181 126.306 20.6813 126.129 20.4591 125.913C20.2329 125.695 20.018 125.468 19.8144 125.232C19.5487 124.923 19.3359 124.671 19.1761 124.475C19.0123 124.278 18.8709 124.15 18.7519 124.09C18.6313 124.028 18.5023 124.042 18.3647 124.132L18.3358 124.151C17.9787 124.386 17.7655 124.667 17.6962 124.992C17.6253 125.315 17.7193 125.674 17.978 126.067C18.2463 126.475 18.5459 126.736 18.8768 126.85C19.2078 126.964 19.5056 127.001 19.7702 126.962L20.014 127.963C19.5809 128.041 19.1909 128.021 18.844 127.903C18.493 127.785 18.1857 127.607 17.922 127.369C17.6543 127.13 17.4284 126.871 17.2442 126.591C17.1268 126.413 17.0136 126.193 16.9046 125.933C16.7916 125.672 16.7289 125.39 16.7163 125.087C16.7021 124.782 16.7789 124.47 16.9467 124.152C17.1145 123.835 17.4191 123.531 17.8607 123.24L21.5235 120.83L22.0854 121.684L21.3326 122.18L21.3612 122.223C21.5199 122.202 21.7125 122.213 21.9389 122.258C22.1654 122.303 22.4007 122.405 22.6448 122.566C22.889 122.727 23.1174 122.969 23.3301 123.293ZM22.4771 123.667C22.2548 123.329 22.0012 123.088 21.7161 122.944C21.4294 122.797 21.1422 122.734 20.8545 122.754C20.5652 122.771 20.3047 122.856 20.0731 123.008L19.2913 123.523C19.3585 123.53 19.4507 123.584 19.5679 123.683C19.681 123.781 19.8033 123.902 19.9346 124.043C20.0619 124.184 20.1844 124.323 20.3021 124.46C20.4159 124.596 20.5089 124.706 20.5813 124.79C20.7563 124.993 20.9399 125.169 21.132 125.32C21.3201 125.469 21.517 125.561 21.7227 125.595C21.9244 125.628 22.1338 125.573 22.351 125.43C22.6477 125.235 22.7999 124.978 22.8075 124.658C22.811 124.338 22.7009 124.007 22.4771 123.667Z" fill="black"/>
<path d="M19.3876 116.684C19.6782 117.236 19.7981 117.78 19.7472 118.316C19.6964 118.852 19.4987 119.348 19.1543 119.803C18.8098 120.259 18.3436 120.641 17.7558 120.951C17.1577 121.265 16.5721 121.433 15.9989 121.454C15.4218 121.474 14.8999 121.354 14.4333 121.094C13.9627 120.832 13.5875 120.435 13.3077 119.904C13.0898 119.49 12.97 119.076 12.9485 118.663C12.9269 118.25 12.9984 117.865 13.1627 117.508C13.3271 117.15 13.5799 116.849 13.921 116.604L14.3972 117.509C14.1652 117.719 14.0082 117.998 13.9263 118.344C13.8405 118.69 13.9025 119.062 14.1124 119.461C14.298 119.813 14.5528 120.074 14.8767 120.243C15.1968 120.411 15.5619 120.481 15.9722 120.455C16.3786 120.427 16.8041 120.296 17.2489 120.062C17.7038 119.822 18.0623 119.542 18.3243 119.222C18.585 118.898 18.7393 118.556 18.7874 118.195C18.834 117.831 18.7632 117.47 18.5748 117.112C18.4511 116.877 18.2979 116.685 18.1152 116.536C17.9325 116.388 17.7295 116.287 17.5062 116.235C17.2829 116.183 17.0491 116.185 16.8048 116.242L16.3286 115.337C16.7031 115.205 17.0827 115.167 17.4676 115.222C17.8486 115.276 18.2076 115.425 18.5447 115.669C18.8779 115.911 19.1589 116.25 19.3876 116.684Z" fill="black"/>
<path d="M10.0852 112.778L10.8811 112.435L12.2448 115.603L11.449 115.945L10.0852 112.778ZM9.58717 115.652L9.18284 114.713L15.0084 112.205C15.2737 112.091 15.4561 111.967 15.5556 111.833C15.6514 111.697 15.6955 111.559 15.6881 111.417C15.6768 111.274 15.6415 111.134 15.5821 110.996C15.5376 110.892 15.4957 110.81 15.4565 110.748C15.4147 110.688 15.3813 110.639 15.3562 110.603L16.1175 110.048C16.1688 110.102 16.231 110.18 16.304 110.284C16.3796 110.387 16.4551 110.526 16.5305 110.701C16.6447 110.966 16.6996 111.251 16.6952 111.554C16.6896 111.856 16.6061 112.14 16.4446 112.408C16.282 112.673 16.0229 112.882 15.6674 113.035L9.58717 115.652Z" fill="black"/>
<path d="M5.86412 107.641L12.3598 103.11L12.332 103.01L4.43096 102.464L4.13046 101.378L13.5508 102.151L13.8467 103.22L6.16462 108.727L5.86412 107.641Z" fill="black"/>
<path d="M12.4563 97.4788L5.9202 98.7287L5.72816 97.7245L12.2643 96.4746L12.4563 97.4788ZM4.7332 98.4264C4.77064 98.6222 4.73625 98.8037 4.63004 98.971C4.52329 99.1355 4.3763 99.2357 4.18906 99.2715C4.00183 99.3073 3.82826 99.2684 3.66834 99.1549C3.50789 99.0386 3.40894 98.8825 3.37151 98.6868C3.33408 98.4911 3.36874 98.3109 3.47549 98.1464C3.5817 97.9791 3.72842 97.8775 3.91565 97.8417C4.10289 97.8059 4.27673 97.8462 4.43719 97.9625C4.5971 98.076 4.69577 98.2307 4.7332 98.4264Z" fill="black"/>
<path d="M6.1937 90.4829L6.56446 91.3625C6.41964 91.4386 6.28248 91.5414 6.153 91.671C6.02029 91.798 5.91834 91.9619 5.84716 92.1628C5.77598 92.3637 5.75865 92.6118 5.79519 92.907C5.8452 93.3112 5.98003 93.6364 6.19968 93.8828C6.41612 94.1267 6.66622 94.2311 6.95 94.196C7.20224 94.1648 7.3901 94.0484 7.51359 93.8468C7.63708 93.6453 7.72343 93.3436 7.77265 92.9417L7.89213 91.9316C7.96238 91.3234 8.12722 90.8563 8.38663 90.5302C8.64318 90.2045 9.0022 90.0131 9.46369 89.956C9.84206 89.9092 10.1938 89.9763 10.5188 90.1573C10.8435 90.3353 11.1158 90.6072 11.3357 90.9729C11.5556 91.3386 11.6972 91.778 11.7607 92.2911C11.8441 92.9647 11.7669 93.5403 11.5291 94.0179C11.2914 94.4955 10.8989 94.8278 10.3516 95.0148L9.99164 94.0815C10.3357 93.9458 10.5808 93.7394 10.727 93.4623C10.8728 93.1824 10.92 92.8346 10.8685 92.4189C10.81 91.946 10.6632 91.5829 10.4282 91.3297C10.1899 91.0739 9.92888 90.9636 9.6451 90.9988C9.41579 91.0271 9.23367 91.1312 9.09875 91.3108C8.96096 91.4909 8.87394 91.7519 8.83769 92.094L8.71591 93.2266C8.64743 93.8491 8.48026 94.3209 8.2144 94.6419C7.94533 94.9604 7.58291 95.1479 7.12715 95.2043C6.75452 95.2504 6.41194 95.1866 6.09941 95.0128C5.78652 94.8361 5.52586 94.5759 5.31743 94.2321C5.10865 93.8854 4.97553 93.4799 4.91807 93.0155C4.8372 92.362 4.91703 91.8312 5.15756 91.4231C5.39774 91.0121 5.74312 90.6987 6.1937 90.4829Z" fill="black"/>
<path d="M8.33272 83.8437L4.40035 83.95L4.37271 82.928L11.0248 82.7481L11.0525 83.7701L9.92646 83.8006L9.92833 83.8699C10.2704 84.0167 10.5642 84.2514 10.8098 84.5742C11.0526 84.897 11.1808 85.3096 11.1944 85.8119C11.2056 86.2277 11.1247 86.5997 10.9515 86.928C10.7755 87.2564 10.5052 87.5179 10.1406 87.7127C9.77316 87.9076 9.30648 88.0126 8.74059 88.028L4.51373 88.1423L4.48609 87.1202L8.64366 87.0078C9.12871 86.9946 9.51192 86.8485 9.7933 86.5693C10.0746 86.2872 10.2095 85.9339 10.198 85.5095C10.1912 85.2554 10.1192 84.9988 9.98219 84.7396C9.84508 84.4775 9.63985 84.2605 9.3665 84.0888C9.09307 83.9141 8.74848 83.8325 8.33272 83.8437Z" fill="black"/>
<path d="M11.3735 78.5715C11.3432 78.992 11.2364 79.368 11.0532 79.6994C10.8671 80.0306 10.6156 80.286 10.2985 80.4659C9.97859 80.6455 9.60257 80.7197 9.17046 80.6885C8.7902 80.661 8.48737 80.5638 8.26196 80.397C8.03367 80.2299 7.86088 80.0162 7.74358 79.7558C7.62628 79.4954 7.54543 79.2116 7.50101 78.9043C7.45392 78.5939 7.42134 78.2832 7.40326 77.972C7.38053 77.565 7.36525 77.2352 7.35742 76.9827C7.34692 76.7271 7.3127 76.5393 7.25476 76.4193C7.19703 76.2964 7.08606 76.229 6.92186 76.2172L6.88729 76.2147C6.46094 76.1839 6.12123 76.2767 5.86816 76.4929C5.61529 76.7063 5.47191 77.0478 5.43801 77.5174C5.40285 78.0042 5.48188 78.3936 5.67509 78.6856C5.86829 78.9775 6.08183 79.1884 6.3157 79.3182L5.90012 80.2612C5.5093 80.0592 5.21194 79.8061 5.00804 79.5018C4.80147 79.1944 4.66591 78.8661 4.60135 78.5168C4.53413 78.1645 4.51258 77.8212 4.53671 77.4871C4.55211 77.2739 4.59571 77.0309 4.66753 76.7581C4.73668 76.4822 4.8584 76.2202 5.03268 75.9722C5.20717 75.7213 5.45766 75.5207 5.78414 75.3705C6.11062 75.2204 6.53745 75.1643 7.06463 75.2024L11.4376 75.5181L11.364 76.5379L10.4652 76.473L10.4614 76.5249C10.6005 76.6044 10.7463 76.7308 10.8988 76.904C11.0514 77.0771 11.1756 77.3018 11.2715 77.5781C11.3674 77.8543 11.4014 78.1854 11.3735 78.5715ZM10.4687 78.3497C10.4978 77.9464 10.4431 77.6008 10.3047 77.3128C10.1664 77.0219 9.97704 76.7969 9.7366 76.6376C9.49638 76.4755 9.23799 76.3844 8.96144 76.3645L8.02807 76.2971C8.0768 76.344 8.11747 76.4425 8.15008 76.5925C8.18001 76.7395 8.20395 76.9092 8.22191 77.1016C8.2372 77.2909 8.24992 77.4757 8.26007 77.656C8.26754 77.8332 8.27453 77.977 8.28103 78.0875C8.29646 78.3551 8.33475 78.6069 8.39589 78.8429C8.45436 79.0759 8.55483 79.2685 8.69732 79.4207C8.83714 79.5698 9.03668 79.6537 9.29595 79.6724C9.65028 79.698 9.92766 79.5863 10.1281 79.3372C10.3258 79.0851 10.4394 78.7559 10.4687 78.3497Z" fill="black"/>
<path d="M3.06929 71.3459L11.8539 72.593L11.7102 73.6053L2.92558 72.3582L3.06929 71.3459Z" fill="black"/>
<path d="M7.7073 60.5892C7.27006 60.524 6.88581 60.6379 6.55456 60.9308C6.22331 61.2237 5.98709 61.6294 5.84589 62.1477C5.74265 62.5267 5.71362 62.875 5.75881 63.1927C5.80475 63.5075 5.91338 63.7736 6.08469 63.9909C6.25675 64.2054 6.47934 64.3498 6.75243 64.4242C6.98094 64.4865 7.19221 64.4857 7.38623 64.4218C7.57823 64.3543 7.7521 64.249 7.90784 64.1059C8.0608 63.9619 8.19793 63.8047 8.31922 63.6342C8.43772 63.4629 8.5395 63.3035 8.62457 63.1561L9.0955 62.3504C9.21475 62.1434 9.36313 61.9174 9.54063 61.6724C9.71889 61.4246 9.93136 61.1996 10.178 60.9974C10.4227 60.7916 10.7053 60.6441 11.026 60.5548C11.3467 60.4655 11.7077 60.4756 12.1089 60.5849C12.5715 60.7109 12.9565 60.946 13.2639 61.2901C13.572 61.6315 13.7732 62.0635 13.8673 62.5861C13.9622 63.1058 13.9201 63.6946 13.7409 64.3522C13.5739 64.9653 13.3304 65.4692 13.0103 65.864C12.691 66.256 12.3195 66.5319 11.8957 66.6919C11.4727 66.8491 11.0226 66.8806 10.5453 66.7865L10.8368 65.7164C11.1676 65.7766 11.4648 65.7408 11.7282 65.609C11.9896 65.4737 12.2117 65.2737 12.3945 65.0092C12.5753 64.7412 12.712 64.4371 12.8046 64.0972C12.9124 63.7015 12.9451 63.3287 12.9027 62.9789C12.8575 62.6283 12.7443 62.3295 12.5631 62.0826C12.3791 61.8349 12.131 61.6686 11.8189 61.5835C11.5347 61.5061 11.2818 61.5225 11.0601 61.6328C10.8385 61.743 10.6367 61.9126 10.4546 62.1414C10.2725 62.3702 10.0987 62.6237 9.93313 62.9019L9.34522 63.8733C8.97075 64.4897 8.55203 64.9444 8.08905 65.2374C7.62607 65.5303 7.10616 65.5983 6.52931 65.4411C6.05 65.3105 5.66729 65.0671 5.38119 64.7108C5.09306 64.3509 4.91004 63.9239 4.83212 63.4297C4.75218 62.9319 4.7866 62.4099 4.93538 61.8637C5.08569 61.312 5.31822 60.8485 5.63298 60.4732C5.94496 60.0972 6.30509 59.8301 6.71339 59.6719C7.12245 59.5109 7.54485 59.4823 7.98059 59.586L7.7073 60.5892Z" fill="black"/>
<path d="M9.79837 54.5469L10.6123 54.844L9.4301 58.0836L8.61613 57.7865L9.79837 54.5469ZM7.463 56.2958L7.81351 55.3353L13.7718 57.5096C14.0431 57.6087 14.2609 57.6436 14.4253 57.6144C14.588 57.5815 14.7151 57.5111 14.8068 57.4031C14.8968 57.2914 14.9675 57.165 15.019 57.024C15.0576 56.9181 15.0838 56.8293 15.0977 56.7575C15.1089 56.6848 15.1179 56.6265 15.1246 56.5829L16.0587 56.7024C16.0593 56.7764 16.0506 56.8762 16.0324 57.0018C16.017 57.1284 15.9766 57.2812 15.9112 57.4603C15.8122 57.7316 15.6569 57.9762 15.4451 58.1941C15.2344 58.4093 14.9785 58.5588 14.6773 58.6426C14.3772 58.7237 14.0453 58.6979 13.6817 58.5652L7.463 56.2958Z" fill="black"/>
<path d="M15.7428 50.7683L12.166 49.131L12.5915 48.2013L18.6423 50.9711L18.2167 51.9008L17.1925 51.4319L17.1636 51.495C17.406 51.7774 17.5663 52.1176 17.6446 52.5156C17.7203 52.9124 17.6535 53.3392 17.4443 53.7962C17.2712 54.1744 17.0346 54.4726 16.7345 54.691C16.4318 54.9082 16.0739 55.0239 15.6608 55.0381C15.2451 55.0511 14.7799 54.9398 14.2652 54.7042L10.4204 52.9442L10.846 52.0146L14.6277 53.7457C15.0689 53.9476 15.4773 53.9853 15.8529 53.8586C16.2298 53.7294 16.5065 53.4717 16.6832 53.0857C16.789 52.8546 16.8375 52.5925 16.8287 52.2994C16.8212 52.0037 16.7325 51.7185 16.5628 51.4439C16.3943 51.1666 16.121 50.9415 15.7428 50.7683Z" fill="black"/>
<path d="M21.0219 46.9674C20.74 47.4449 20.3705 47.7953 19.9134 48.0184C19.4538 48.2401 18.9417 48.3235 18.3771 48.2686C17.81 48.2122 17.2231 48.0048 16.6162 47.6465C16.0143 47.2912 15.5529 46.8796 15.2321 46.4118C14.9113 45.944 14.7389 45.4548 14.7149 44.9443C14.691 44.4338 14.8215 43.9373 15.1063 43.4548C15.3266 43.0817 15.5628 42.8237 15.8149 42.6807C16.066 42.5338 16.3036 42.4494 16.5279 42.4275C16.7511 42.4016 16.9315 42.3857 17.0692 42.3798L17.1132 42.3052L14.2928 40.64L14.8126 39.7596L22.4531 44.2705L21.951 45.1211L21.0705 44.6013L21.0088 44.7057C21.0751 44.8321 21.1526 45.0019 21.2413 45.2153C21.3275 45.4272 21.3674 45.6805 21.3611 45.9753C21.3523 46.2686 21.2392 46.5993 21.0219 46.9674ZM20.3015 46.381C20.51 46.0279 20.5942 45.6751 20.554 45.3227C20.5114 44.9688 20.3634 44.6315 20.11 44.3109C19.8541 43.9887 19.5097 43.6999 19.077 43.4444C18.6492 43.1919 18.2381 43.033 17.8439 42.968C17.4471 42.9014 17.0873 42.9372 16.7643 43.0752C16.4388 43.2117 16.1704 43.4591 15.9589 43.8172C15.7387 44.1903 15.6509 44.5577 15.6956 44.9195C15.7392 45.2773 15.8872 45.6146 16.1396 45.9313C16.391 46.2441 16.7182 46.5194 17.1211 46.7573C17.529 46.9981 17.9363 47.1547 18.343 47.2271C18.7486 47.2956 19.1224 47.2647 19.4643 47.1345C19.8051 47.0003 20.0842 46.7491 20.3015 46.381Z" fill="black"/>
<path d="M23.5992 42.6331L18.1323 38.839L18.7152 37.999L24.1822 41.7932L23.5992 42.6331ZM17.5175 37.7795C17.4039 37.9433 17.2502 38.0457 17.0563 38.087C16.8641 38.1259 16.6897 38.0909 16.5331 37.9823C16.3765 37.8736 16.2827 37.7224 16.2519 37.5287C16.2227 37.3327 16.265 37.1528 16.3786 36.9891C16.4922 36.8254 16.6451 36.7241 16.8373 36.6852C17.0312 36.644 17.2064 36.6777 17.363 36.7864C17.5196 36.8951 17.6125 37.0474 17.6417 37.2435C17.6726 37.4371 17.6312 37.6158 17.5175 37.7795Z" fill="black"/>
<path d="M27.1472 38.0932C26.7699 38.5607 26.3276 38.8812 25.8203 39.0545C25.3149 39.2255 24.7823 39.2486 24.2226 39.1235C23.6647 38.9962 23.1182 38.7167 22.5833 38.285C22.0438 37.8497 21.6519 37.3719 21.4073 36.8517C21.1646 36.3292 21.0735 35.8029 21.1339 35.2727C21.1961 34.7402 21.4159 34.2402 21.7932 33.7727C22.1704 33.3052 22.6118 32.9859 23.1173 32.8148C23.6246 32.6415 24.1583 32.6194 24.7184 32.7485C25.2804 32.8754 25.8311 33.1565 26.3705 33.5918C26.9055 34.0235 27.2932 34.4997 27.5337 35.0203C27.776 35.5387 27.866 36.0642 27.8037 36.5966C27.7433 37.1268 27.5244 37.6257 27.1472 38.0932ZM26.4324 37.5164C26.719 37.1613 26.8638 36.7956 26.8667 36.4194C26.8696 36.0433 26.7672 35.6804 26.5594 35.3308C26.3516 34.9813 26.0746 34.6668 25.7284 34.3875C25.3823 34.1082 25.0153 33.903 24.6275 33.7719C24.2397 33.6408 23.8611 33.6155 23.4918 33.696C23.1225 33.7765 22.7945 33.9944 22.5079 34.3495C22.2214 34.7046 22.0777 35.0712 22.077 35.4492C22.0763 35.8272 22.181 36.1919 22.3911 36.5433C22.6011 36.8946 22.8792 37.21 23.2254 37.4893C23.5715 37.7686 23.9374 37.9729 24.323 38.1022C24.7085 38.2315 25.0849 38.255 25.4519 38.1726C25.819 38.0903 26.1458 37.8716 26.4324 37.5164Z" fill="black"/>
<path d="M33.866 22.4341L33.0653 23.1506C32.8119 22.9627 32.548 22.8345 32.2736 22.7661C32.0013 22.6958 31.7283 22.6766 31.4545 22.7084C31.1809 22.7362 30.916 22.8105 30.6598 22.9313C30.4035 23.0521 30.1656 23.2107 29.9461 23.4072C29.5458 23.7654 29.2737 24.1912 29.1297 24.6843C28.988 25.1755 28.9975 25.7038 29.1585 26.2691C29.3215 26.8324 29.6593 27.4004 30.1716 27.9728C30.684 28.5453 31.2111 28.9438 31.7529 29.1681C32.297 29.3906 32.8209 29.4585 33.3248 29.3719C33.8309 29.2833 34.284 29.0599 34.6844 28.7017C34.9039 28.5052 35.0878 28.2863 35.2362 28.045C35.3846 27.8037 35.4887 27.5497 35.5485 27.283C35.6085 27.0123 35.6186 26.7377 35.5788 26.4594C35.5392 26.1769 35.441 25.9005 35.2842 25.63L36.0848 24.9134C36.327 25.3053 36.4878 25.7059 36.5674 26.1153C36.647 26.5247 36.6522 26.929 36.583 27.3281C36.5119 27.7251 36.3723 28.1039 36.1641 28.4646C35.958 28.8234 35.6882 29.1521 35.3546 29.4507C34.7908 29.9553 34.166 30.2663 33.4804 30.3838C32.7948 30.5012 32.0988 30.4187 31.3925 30.1361C30.6861 29.8535 30.0209 29.3636 29.3968 28.6662C28.7727 27.9689 28.3593 27.2536 28.1566 26.5203C27.9538 25.7871 27.9487 25.0862 28.1412 24.4178C28.3337 23.7494 28.7119 23.1629 29.2758 22.6582C29.6094 22.3597 29.9659 22.1278 30.3453 21.9627C30.7268 21.7957 31.1197 21.6999 31.5241 21.6753C31.9265 21.6485 32.3267 21.6973 32.7248 21.8216C33.121 21.9438 33.5014 22.148 33.866 22.4341Z" fill="black"/>
<path d="M41.6616 24.4569C41.1713 24.804 40.6584 24.9919 40.1231 25.0205C39.5902 25.0475 39.0714 24.9246 38.5669 24.6518C38.0648 24.3774 37.6151 23.9597 37.2179 23.3987C36.8174 22.8329 36.5703 22.2664 36.4767 21.6993C36.3854 21.1305 36.441 20.5992 36.6436 20.1055C36.8484 19.6101 37.196 19.1889 37.6864 18.8417C38.1767 18.4946 38.6883 18.3076 39.2213 18.2806C39.7566 18.252 40.2762 18.376 40.78 18.6528C41.2862 18.9279 41.7395 19.3483 42.14 19.9141C42.5372 20.4751 42.7806 21.0389 42.8702 21.6053C42.9622 22.1701 42.9057 22.7002 42.7009 23.1956C42.4983 23.6893 42.1519 24.1097 41.6616 24.4569ZM41.1309 23.7072C41.5033 23.4436 41.7422 23.1311 41.8475 22.77C41.9527 22.4088 41.953 22.0318 41.8482 21.6388C41.7434 21.2459 41.5625 20.8679 41.3055 20.5049C41.0485 20.1418 40.7513 19.8444 40.4138 19.6127C40.0764 19.3809 39.719 19.2535 39.3417 19.2305C38.9644 19.2074 38.5895 19.3277 38.2171 19.5914C37.8446 19.855 37.6066 20.1686 37.503 20.5322C37.3994 20.8957 37.4008 21.2751 37.5073 21.6704C37.6137 22.0657 37.7954 22.4449 38.0524 22.8079C38.3094 23.1709 38.6058 23.4671 38.9416 23.6965C39.2774 23.9259 39.6331 24.051 40.0088 24.0717C40.3844 24.0924 40.7584 23.9709 41.1309 23.7072Z" fill="black"/>
<path d="M47.759 20.5806C47.2755 20.8523 46.7801 20.97 46.2727 20.9338C45.7639 20.8951 45.2791 20.7103 44.8182 20.3796C44.356 20.0464 43.9522 19.5726 43.6069 18.9582C43.2645 18.3489 43.0718 17.7614 43.0289 17.1958C42.986 16.6301 43.0822 16.1205 43.3176 15.6668C43.553 15.2132 43.9149 14.8491 44.4034 14.5746C44.7811 14.3623 45.1148 14.2576 45.4046 14.2603C45.6955 14.2592 45.9435 14.3054 46.1484 14.3989C46.3545 14.4885 46.5186 14.5653 46.6406 14.6292L46.7162 14.5867L45.1115 11.7315L46.0028 11.2306L50.3499 18.9654L49.4888 19.4494L48.9879 18.5581L48.8821 18.6175C48.8761 18.76 48.8579 18.9458 48.8276 19.1749C48.7959 19.4015 48.7034 19.6406 48.5501 19.8925C48.3953 20.1418 48.1316 20.3712 47.759 20.5806ZM47.4298 19.712C47.7874 19.5111 48.0372 19.2481 48.1792 18.9231C48.3198 18.5956 48.3609 18.2295 48.3026 17.825C48.2428 17.418 48.0898 16.9954 47.8435 16.5573C47.6001 16.1242 47.3242 15.7807 47.0158 15.5266C46.7059 15.27 46.3767 15.1205 46.0281 15.0778C45.678 15.0327 45.3217 15.112 44.9591 15.3158C44.5814 15.5281 44.3212 15.8019 44.1784 16.1373C44.0366 16.4687 43.9955 16.8347 44.055 17.2353C44.1156 17.632 44.2605 18.0343 44.4897 18.4422C44.7218 18.8551 44.9956 19.1949 45.3111 19.4615C45.6277 19.7242 45.9666 19.885 46.3276 19.9438C46.6898 19.9987 47.0572 19.9214 47.4298 19.712Z" fill="black"/>
<path d="M54.8221 17.0716C54.2337 17.3263 53.6699 17.4161 53.1307 17.3411C52.593 17.2622 52.1074 17.0381 51.6737 16.6688C51.2415 16.2957 50.89 15.7963 50.6193 15.1708C50.3485 14.5452 50.2239 13.9446 50.2453 13.3688C50.2682 12.7892 50.4272 12.2767 50.7222 11.8311C51.0186 11.3818 51.4425 11.0378 51.9938 10.7991C52.3119 10.6615 52.649 10.5785 53.005 10.5503C53.361 10.5221 53.7179 10.5722 54.0756 10.7006C54.4321 10.8264 54.7703 11.0514 55.09 11.3756C55.4098 11.6999 55.693 12.1469 55.9396 12.7168L56.1117 13.1144L51.4043 15.152L51.0532 14.3409L54.8064 12.7163C54.6573 12.3718 54.4553 12.0941 54.2004 11.8834C53.9482 11.6716 53.6624 11.5419 53.3429 11.4946C53.026 11.446 52.698 11.4952 52.3587 11.642C51.985 11.8038 51.7017 12.0365 51.509 12.3403C51.3178 12.6402 51.213 12.9688 51.1946 13.3261C51.1762 13.6834 51.2398 14.0304 51.3855 14.367L51.6196 14.9078C51.8192 15.369 52.0679 15.7255 52.3658 15.9774C52.6652 16.2255 52.9941 16.3711 53.3527 16.4141C53.7101 16.4546 54.0783 16.3928 54.4573 16.2287C54.7038 16.122 54.9115 15.9912 55.0805 15.8362C55.251 15.6774 55.3787 15.4963 55.4637 15.2927C55.5475 15.0864 55.5833 14.8601 55.571 14.6136L56.5877 14.4757C56.6253 14.8245 56.582 15.1642 56.4577 15.495C56.3322 15.8231 56.1319 16.1239 55.8568 16.3971C55.5805 16.6678 55.2356 16.8926 54.8221 17.0716Z" fill="black"/>
<path d="M66.7445 6.70538C66.5814 6.44546 66.3961 6.22232 66.1888 6.03594C65.9836 5.84607 65.7574 5.69716 65.5101 5.58924C65.2656 5.48061 65.0026 5.41682 64.721 5.39785C64.4394 5.37888 64.1431 5.40824 63.8321 5.48594C63.3221 5.61333 62.8912 5.86088 62.5395 6.22858C62.1878 6.59627 61.9526 7.06732 61.8341 7.64171C61.7156 8.2161 61.7495 8.87598 61.9357 9.62136C62.1219 10.3667 62.4037 10.9647 62.7812 11.4152C63.1587 11.8657 63.5933 12.1694 64.085 12.3264C64.5767 12.4834 65.0888 12.4954 65.6212 12.3624C66.1144 12.2393 66.5225 12.0257 66.8455 11.7217C67.1706 11.4143 67.3899 11.0409 67.5035 10.6017C67.6191 10.159 67.6112 9.67429 67.4796 9.14749L67.8158 9.13494L65.2266 9.78171L64.9956 8.857L68.2742 8.03804L68.5052 8.96275C68.6822 9.6717 68.6849 10.326 68.5132 10.9256C68.3442 11.5245 68.031 12.0344 67.5735 12.4553C67.1181 12.8727 66.5485 13.1668 65.8648 13.3376C65.1026 13.528 64.3881 13.5159 63.7213 13.3015C63.0572 13.0863 62.4815 12.6883 61.994 12.1075C61.5094 11.5259 61.1537 10.7812 60.9269 9.87334C60.7568 9.19242 60.6949 8.5574 60.7413 7.96828C60.7897 7.37566 60.9341 6.84541 61.1745 6.37752C61.4149 5.90963 61.7393 5.51601 62.1477 5.19666C62.5562 4.8773 63.0364 4.64868 63.5885 4.51079C64.0424 4.39739 64.4827 4.36035 64.9093 4.39966C65.338 4.43547 65.7376 4.53958 66.1081 4.71197C66.4808 4.88087 66.8138 5.11175 67.1073 5.40461C67.4 5.69468 67.6378 6.03868 67.8205 6.4366L66.7445 6.70538Z" fill="black"/>
<path d="M71.1793 12.1069L70.1231 5.53672L71.1325 5.37443L72.1888 11.9446L71.1793 12.1069ZM70.4603 4.35917C70.2635 4.3908 70.0831 4.35107 69.919 4.23996C69.7577 4.1284 69.6619 3.97851 69.6317 3.79031C69.6014 3.6021 69.6454 3.42975 69.7636 3.27326C69.8846 3.11631 70.0435 3.02201 70.2402 2.99038C70.437 2.95875 70.616 2.99871 70.7773 3.11027C70.9414 3.22138 71.0386 3.37103 71.0689 3.55924C71.0991 3.74745 71.0538 3.92003 70.9327 4.07698C70.8145 4.23347 70.6571 4.32753 70.4603 4.35917Z" fill="black"/>
<path d="M76.2937 4.73018L76.3894 5.59136L72.9619 5.97209L72.8662 5.11091L76.2937 4.73018ZM73.6892 3.41537L74.7053 3.30249L75.4056 9.60633C75.4375 9.89339 75.503 10.1041 75.6022 10.2383C75.7039 10.3694 75.8235 10.4521 75.961 10.4862C76.101 10.5171 76.2457 10.5243 76.395 10.5077C76.5069 10.4953 76.5981 10.4793 76.6686 10.4599C76.7388 10.4376 76.7949 10.4197 76.837 10.4063L77.1451 11.2962C77.0791 11.3297 76.9858 11.3662 76.8652 11.4058C76.745 11.4482 76.5901 11.4799 76.4007 11.501C76.1136 11.5328 75.8254 11.5024 75.5361 11.4095C75.2497 11.3164 75.0021 11.1536 74.7931 10.921C74.5871 10.6882 74.4627 10.3794 74.42 9.99479L73.6892 3.41537Z" fill="black"/>
</svg>
