<svg width="66" height="31" viewBox="0 0 66 31" fill="none" xmlns="http://www.w3.org/2000/svg">
<rect width="66" height="31" rx="2" fill="white"/>
<path d="M16.6 18.764H26.44V19.592H16.6V18.764ZM21.004 16.448H21.988V19.112H21.004V16.448ZM17.8 10.88H25.216V14.168H18.808V16.34H17.824V13.376H24.232V11.696H17.8V10.88ZM17.824 15.92H25.468V16.736H17.824V15.92ZM28.7071 11.228H35.6911V12.044H28.7071V11.228ZM27.6391 18.524H37.4431V19.352H27.6391V18.524ZM35.1511 11.228H36.1351V12.32C36.1351 12.776 36.1271 13.264 36.1111 13.784C36.1031 14.296 36.0711 14.864 36.0151 15.488C35.9591 16.112 35.8631 16.816 35.7271 17.6L34.7191 17.492C34.8631 16.756 34.9631 16.08 35.0191 15.464C35.0831 14.848 35.1191 14.28 35.1271 13.76C35.1431 13.24 35.1511 12.76 35.1511 12.32V11.228ZM46.5741 10.088H47.5701V18.008H46.5741V10.088ZM40.5981 19.88H47.9061V20.696H40.5981V19.88ZM40.5981 17.204H41.5941V20.156H40.5981V17.204ZM41.7501 10.844C42.2941 10.844 42.7781 10.956 43.2021 11.18C43.6261 11.404 43.9621 11.72 44.2101 12.128C44.4581 12.528 44.5821 12.988 44.5821 13.508C44.5821 14.028 44.4581 14.492 44.2101 14.9C43.9621 15.3 43.6261 15.616 43.2021 15.848C42.7781 16.072 42.2941 16.184 41.7501 16.184C41.2141 16.184 40.7301 16.072 40.2981 15.848C39.8741 15.616 39.5381 15.3 39.2901 14.9C39.0421 14.492 38.9181 14.028 38.9181 13.508C38.9181 12.988 39.0421 12.528 39.2901 12.128C39.5381 11.72 39.8741 11.404 40.2981 11.18C40.7301 10.956 41.2141 10.844 41.7501 10.844ZM41.7501 11.708C41.3981 11.708 41.0821 11.784 40.8021 11.936C40.5221 12.088 40.2981 12.3 40.1301 12.572C39.9701 12.844 39.8901 13.156 39.8901 13.508C39.8901 13.868 39.9701 14.184 40.1301 14.456C40.2981 14.72 40.5221 14.928 40.8021 15.08C41.0821 15.232 41.3981 15.308 41.7501 15.308C42.1021 15.308 42.4181 15.232 42.6981 15.08C42.9861 14.928 43.2101 14.72 43.3701 14.456C43.5301 14.184 43.6101 13.868 43.6101 13.508C43.6101 13.156 43.5301 12.844 43.3701 12.572C43.2101 12.3 42.9861 12.088 42.6981 11.936C42.4181 11.784 42.1021 11.708 41.7501 11.708Z" fill="black"/>
</svg>
