<svg width="55" height="31" viewBox="0 0 55 31" fill="none" xmlns="http://www.w3.org/2000/svg">
<rect width="55" height="31" fill="#F9CBCB"/>
<rect width="55" height="31" rx="2" fill="white"/>
<path d="M24.508 10.076H25.504V20.936H24.508V10.076ZM21.328 11.252H22.312C22.312 12.036 22.216 12.792 22.024 13.52C21.84 14.248 21.548 14.94 21.148 15.596C20.748 16.244 20.228 16.848 19.588 17.408C18.948 17.968 18.172 18.468 17.26 18.908L16.732 18.104C17.78 17.6 18.644 17.012 19.324 16.34C20.004 15.668 20.508 14.92 20.836 14.096C21.164 13.264 21.328 12.368 21.328 11.408V11.252ZM17.236 11.252H21.748V12.056H17.236V11.252ZM28.1071 17.492H28.9591C29.6231 17.492 30.2311 17.484 30.7831 17.468C31.3351 17.452 31.8671 17.42 32.3791 17.372C32.8991 17.324 33.4311 17.252 33.9751 17.156L34.0711 17.972C33.5191 18.068 32.9791 18.144 32.4511 18.2C31.9231 18.248 31.3751 18.28 30.8071 18.296C30.2471 18.312 29.6311 18.32 28.9591 18.32H28.1071V17.492ZM28.1071 11.06H33.1591V11.888H29.1031V17.78H28.1071V11.06ZM28.8511 14.108H32.9191V14.912H28.8511V14.108ZM34.9831 10.076H35.9791V20.936H34.9831V10.076ZM35.7511 14.432H37.7551V15.272H35.7511V14.432Z" fill="black"/>
</svg>
